<svg xmlns="http://www.w3.org/2000/svg" width="467.017" height="56.785" viewBox="0 0 467.017 56.785"><g transform="translate(622.65 35.732)"><g transform="translate(-538.59 -32.922)"><rect width="1.015" height="30.386" transform="translate(175.028 4.014)" fill="#d6ab00"/><path d="M-559.442-26.26a7.905,7.905,0,0,1-.546,3.065,5.67,5.67,0,0,1-1.551,2.165,6.631,6.631,0,0,1-2.448,1.287,11.4,11.4,0,0,1-3.24.428c-.546,0-1.182-.022-1.912-.068a15.516,15.516,0,0,1-2.145-.281v-13.17a17.865,17.865,0,0,1,2.2-.263q1.139-.07,1.96-.068a11.857,11.857,0,0,1,3.151.39,6.434,6.434,0,0,1,2.428,1.229,5.448,5.448,0,0,1,1.561,2.147A8.111,8.111,0,0,1-559.442-26.26Zm-8.8,4.292c.143.013.31.023.5.03s.413.01.673.01a4.485,4.485,0,0,0,3.385-1.151,4.4,4.4,0,0,0,1.1-3.181,4.465,4.465,0,0,0-1.053-3.218,4.457,4.457,0,0,0-3.336-1.093c-.21,0-.423,0-.645.008s-.43.023-.625.05Z" transform="translate(572.778 34.63)" fill="#32322f"/><path d="M-559.791-32.211a1.6,1.6,0,0,1-.516,1.259,1.782,1.782,0,0,1-1.219.458,1.782,1.782,0,0,1-1.219-.458,1.6,1.6,0,0,1-.518-1.259,1.593,1.593,0,0,1,.518-1.258,1.776,1.776,0,0,1,1.219-.46,1.775,1.775,0,0,1,1.219.46A1.592,1.592,0,0,1-559.791-32.211Zm-.273,13.228h-2.906V-29.246h2.906Z" transform="translate(578.116 34.123)" fill="#32322f"/><path d="M-551.047-22.048a4.946,4.946,0,0,1-1.278,3.736,5.55,5.55,0,0,1-3.951,1.219,10.792,10.792,0,0,1-1.874-.165,11.839,11.839,0,0,1-1.735-.44l.506-2.438a8.72,8.72,0,0,0,1.434.43,8.511,8.511,0,0,0,1.707.155,2.356,2.356,0,0,0,1.766-.546,1.957,1.957,0,0,0,.518-1.4v-.371a4.705,4.705,0,0,1-.966.323,5.132,5.132,0,0,1-1.083.107,4.16,4.16,0,0,1-3.26-1.259,5.086,5.086,0,0,1-1.131-3.521,5.754,5.754,0,0,1,.351-2.059,4.385,4.385,0,0,1,1.024-1.589,4.539,4.539,0,0,1,1.649-1.024,6.291,6.291,0,0,1,2.2-.361q.527,0,1.084.048c.37.033.738.075,1.1.127s.713.115,1.044.187.628.147.888.225Zm-6.379-4.176q0,2.438,1.97,2.438a2.893,2.893,0,0,0,.838-.117,3.161,3.161,0,0,0,.665-.273v-4.644c-.145-.025-.313-.048-.508-.068s-.423-.028-.683-.028a2,2,0,0,0-1.717.761A3.151,3.151,0,0,0-557.427-26.224Z" transform="translate(580.027 35.901)" fill="#32322f"/><path d="M-550.182-32.211a1.6,1.6,0,0,1-.516,1.259,1.786,1.786,0,0,1-1.221.458,1.782,1.782,0,0,1-1.219-.458,1.6,1.6,0,0,1-.516-1.259,1.592,1.592,0,0,1,.516-1.258,1.775,1.775,0,0,1,1.219-.46,1.78,1.78,0,0,1,1.221.46A1.6,1.6,0,0,1-550.182-32.211Zm-.273,13.228h-2.906V-29.246h2.906Z" transform="translate(584.512 34.123)" fill="#32322f"/><path d="M-550.5-32.464l2.906-.468v3.023h3.493v2.42h-3.493v3.609a2.856,2.856,0,0,0,.323,1.464,1.38,1.38,0,0,0,1.3.546,5.572,5.572,0,0,0,.966-.088,4.9,4.9,0,0,0,.908-.245l.41,2.264a8.144,8.144,0,0,1-1.171.371,6.866,6.866,0,0,1-1.581.157,5.2,5.2,0,0,1-1.97-.323,3.1,3.1,0,0,1-1.249-.9,3.336,3.336,0,0,1-.653-1.394,8.25,8.25,0,0,1-.185-1.814Z" transform="translate(586.614 34.786)" fill="#32322f"/><path d="M-541.6-31.28a6.734,6.734,0,0,1,2.145.291,3.323,3.323,0,0,1,1.376.839,3.087,3.087,0,0,1,.731,1.326,6.549,6.549,0,0,1,.215,1.737v6.048q-.625.137-1.735.321a16.536,16.536,0,0,1-2.693.187,8.464,8.464,0,0,1-1.805-.177,3.9,3.9,0,0,1-1.394-.575,2.636,2.636,0,0,1-.9-1.044,3.6,3.6,0,0,1-.311-1.579,2.985,2.985,0,0,1,.361-1.522,2.779,2.779,0,0,1,.964-1,4.356,4.356,0,0,1,1.386-.536,7.8,7.8,0,0,1,1.619-.165,9.447,9.447,0,0,1,1.006.048,4.616,4.616,0,0,1,.711.127v-.273a1.615,1.615,0,0,0-.448-1.191,2.179,2.179,0,0,0-1.561-.448,9.935,9.935,0,0,0-1.464.108,6.306,6.306,0,0,0-1.249.3l-.37-2.342c.168-.052.38-.107.633-.165s.53-.112.829-.157.615-.083.948-.117S-541.938-31.28-541.6-31.28Zm.233,8.506q.43,0,.819-.02a5.657,5.657,0,0,0,.625-.058v-2.205c-.117-.025-.293-.052-.526-.078a6.12,6.12,0,0,0-.644-.038,5.888,5.888,0,0,0-.77.048,2.011,2.011,0,0,0-.635.187,1.062,1.062,0,0,0-.43.37,1.042,1.042,0,0,0-.155.586,1,1,0,0,0,.458.946A2.536,2.536,0,0,0-541.366-22.774Z" transform="translate(589.627 35.885)" fill="#32322f"/><path d="M-535.345-18.71a7.3,7.3,0,0,1-2.059-.273,3.059,3.059,0,0,1-1.249-.711,2.381,2.381,0,0,1-.625-1.113,6.035,6.035,0,0,1-.165-1.472v-11.3l2.906-.468v11.179a3.889,3.889,0,0,0,.058.7,1.229,1.229,0,0,0,.225.526,1.189,1.189,0,0,0,.478.351,2.581,2.581,0,0,0,.839.175Z" transform="translate(593.971 34.045)" fill="#32322f"/><path d="M-529.437-33.166a8.368,8.368,0,0,1,4.662,1.083,3.759,3.759,0,0,1,1.621,3.364,3.808,3.808,0,0,1-.655,2.313,4.3,4.3,0,0,1-1.882,1.394c.273.338.558.726.858,1.161s.6.891.888,1.366.576.969.849,1.482.526,1.018.761,1.512h-3.4l-.755-1.346c-.255-.455-.515-.9-.783-1.327s-.533-.836-.793-1.219-.523-.731-.784-1.044h-1.5v4.937H-533.4V-32.816a17.18,17.18,0,0,1,2.059-.271C-530.631-33.141-530-33.166-529.437-33.166Zm.175,2.595c-.221,0-.42.007-.595.018l-.5.04v3.668h.859a5.181,5.181,0,0,0,2.458-.43,1.552,1.552,0,0,0,.741-1.464,1.491,1.491,0,0,0-.751-1.414A4.669,4.669,0,0,0-529.262-30.571Z" transform="translate(597.994 34.63)" fill="#32322f"/><path d="M-526.431-25.8a6.279,6.279,0,0,1,.42-2.39,5.124,5.124,0,0,1,1.1-1.707,4.589,4.589,0,0,1,1.571-1.034,4.929,4.929,0,0,1,1.824-.35,4.529,4.529,0,0,1,3.453,1.336,5.5,5.5,0,0,1,1.269,3.931c0,.17-.007.355-.02.556s-.027.381-.038.536h-6.6a1.929,1.929,0,0,0,.839,1.424,3.372,3.372,0,0,0,1.99.528,8.492,8.492,0,0,0,1.571-.147,5.958,5.958,0,0,0,1.258-.361l.391,2.36a4.042,4.042,0,0,1-.625.235,8.054,8.054,0,0,1-.868.2q-.48.087-1.024.147a10.462,10.462,0,0,1-1.093.058,6.467,6.467,0,0,1-2.41-.41,4.668,4.668,0,0,1-1.7-1.123,4.424,4.424,0,0,1-1-1.687A6.672,6.672,0,0,1-526.431-25.8Zm6.829-1.113a3.007,3.007,0,0,0-.127-.721,1.832,1.832,0,0,0-.331-.625,1.764,1.764,0,0,0-.566-.448,1.833,1.833,0,0,0-.849-.177,1.952,1.952,0,0,0-.838.167,1.753,1.753,0,0,0-.586.438,2.019,2.019,0,0,0-.362.635,4.248,4.248,0,0,0-.185.731Z" transform="translate(602.631 35.885)" fill="#32322f"/><path d="M-516.461-22.832a2.886,2.886,0,0,0,1.133-.157.6.6,0,0,0,.332-.6.739.739,0,0,0-.43-.615,8.078,8.078,0,0,0-1.308-.6,12.786,12.786,0,0,1-1.237-.526,3.63,3.63,0,0,1-.948-.653,2.645,2.645,0,0,1-.6-.908,3.35,3.35,0,0,1-.215-1.268,2.743,2.743,0,0,1,1.074-2.284,4.662,4.662,0,0,1,2.945-.838,9.508,9.508,0,0,1,1.8.165,8.279,8.279,0,0,1,1.366.361l-.508,2.264a10.838,10.838,0,0,0-1.1-.313,6.045,6.045,0,0,0-1.336-.137q-1.364,0-1.366.761a.787.787,0,0,0,.058.311.68.68,0,0,0,.235.265,3.274,3.274,0,0,0,.478.273c.2.1.458.207.771.325a12.145,12.145,0,0,1,1.579.7,3.822,3.822,0,0,1,.986.743,2.33,2.33,0,0,1,.508.886,3.969,3.969,0,0,1,.145,1.129,2.6,2.6,0,0,1-1.141,2.3,5.7,5.7,0,0,1-3.228.778,9.253,9.253,0,0,1-2.274-.235,9,9,0,0,1-1.259-.39l.488-2.36A9.53,9.53,0,0,0-518-23,7.328,7.328,0,0,0-516.461-22.832Z" transform="translate(606.904 35.885)" fill="#32322f"/><path d="M-514.636-25.8a6.309,6.309,0,0,1,.418-2.39,5.148,5.148,0,0,1,1.1-1.707,4.605,4.605,0,0,1,1.571-1.034,4.937,4.937,0,0,1,1.824-.35,4.535,4.535,0,0,1,3.454,1.336A5.511,5.511,0,0,1-505-26.013c0,.17-.007.355-.02.556s-.025.381-.038.536h-6.594a1.929,1.929,0,0,0,.839,1.424,3.363,3.363,0,0,0,1.989.528,8.478,8.478,0,0,0,1.571-.147,5.976,5.976,0,0,0,1.259-.361l.39,2.36a4.041,4.041,0,0,1-.625.235,8.054,8.054,0,0,1-.868.2q-.477.087-1.024.147a10.439,10.439,0,0,1-1.093.058,6.468,6.468,0,0,1-2.41-.41A4.682,4.682,0,0,1-513.32-22a4.442,4.442,0,0,1-.994-1.687A6.674,6.674,0,0,1-514.636-25.8Zm6.829-1.113a3.009,3.009,0,0,0-.128-.721,1.8,1.8,0,0,0-.331-.625,1.765,1.765,0,0,0-.566-.448,1.821,1.821,0,0,0-.848-.177,1.965,1.965,0,0,0-.839.167,1.763,1.763,0,0,0-.585.438,1.985,1.985,0,0,0-.361.635,4.092,4.092,0,0,0-.185.731Z" transform="translate(610.482 35.885)" fill="#32322f"/><path d="M-503.876-31.28a6.745,6.745,0,0,1,2.147.291,3.322,3.322,0,0,1,1.376.839,3.087,3.087,0,0,1,.731,1.326,6.554,6.554,0,0,1,.215,1.737v6.048q-.625.137-1.737.321a16.514,16.514,0,0,1-2.692.187,8.454,8.454,0,0,1-1.805-.177,3.9,3.9,0,0,1-1.394-.575,2.636,2.636,0,0,1-.9-1.044,3.6,3.6,0,0,1-.313-1.579,3,3,0,0,1,.361-1.522,2.784,2.784,0,0,1,.966-1,4.356,4.356,0,0,1,1.386-.536,7.8,7.8,0,0,1,1.619-.165,9.413,9.413,0,0,1,1,.048,4.643,4.643,0,0,1,.713.127v-.273a1.609,1.609,0,0,0-.45-1.191,2.179,2.179,0,0,0-1.561-.448,9.912,9.912,0,0,0-1.462.108,6.278,6.278,0,0,0-1.249.3l-.371-2.342q.255-.077.635-.165c.253-.058.53-.112.829-.157s.615-.083.946-.117S-504.215-31.28-503.876-31.28Zm.235,8.506q.43,0,.819-.02a5.66,5.66,0,0,0,.625-.058v-2.205c-.117-.025-.293-.052-.526-.078a6.147,6.147,0,0,0-.645-.038,5.932,5.932,0,0,0-.771.048,2.014,2.014,0,0,0-.633.187,1.062,1.062,0,0,0-.43.37,1.029,1.029,0,0,0-.157.586,1,1,0,0,0,.458.946A2.548,2.548,0,0,0-503.642-22.774Z" transform="translate(614.734 35.885)" fill="#32322f"/><path d="M-495.5-28.455q-.39-.1-.918-.2a5.643,5.643,0,0,0-1.131-.108,5.144,5.144,0,0,0-.655.05,3.836,3.836,0,0,0-.575.107v7.843h-2.908v-9.717A17.911,17.911,0,0,1-499.841-31a10.694,10.694,0,0,1,2.372-.243c.155,0,.343.01.565.028s.443.047.665.078.441.072.663.117a3.225,3.225,0,0,1,.566.167Z" transform="translate(619.102 35.909)" fill="#32322f"/><path d="M-497.458-25.877a6.064,6.064,0,0,1,.36-2.1,5.046,5.046,0,0,1,1.044-1.717,4.993,4.993,0,0,1,1.659-1.161,5.487,5.487,0,0,1,2.224-.428,7.127,7.127,0,0,1,1.5.147,7.31,7.31,0,0,1,1.327.418l-.606,2.322a7.41,7.41,0,0,0-.9-.273,4.688,4.688,0,0,0-1.093-.117,2.3,2.3,0,0,0-1.922.8,3.291,3.291,0,0,0-.635,2.107,3.416,3.416,0,0,0,.595,2.147,2.5,2.5,0,0,0,2.079.761,7.168,7.168,0,0,0,1.133-.1,4.813,4.813,0,0,0,1.111-.311l.41,2.38a6.765,6.765,0,0,1-1.268.37,8.316,8.316,0,0,1-1.679.157,6.308,6.308,0,0,1-2.418-.42,4.567,4.567,0,0,1-1.669-1.141,4.449,4.449,0,0,1-.956-1.707A7.25,7.25,0,0,1-497.458-25.877Z" transform="translate(621.915 35.885)" fill="#32322f"/><path d="M-491.651-18.9V-33.577l2.908-.468v4.917a5.962,5.962,0,0,1,.751-.185,4.73,4.73,0,0,1,.888-.088,5.476,5.476,0,0,1,2.077.341,3.229,3.229,0,0,1,1.327.966,3.733,3.733,0,0,1,.7,1.482,8.346,8.346,0,0,1,.2,1.912V-18.9H-485.7v-5.443a4,4,0,0,0-.361-1.99,1.44,1.44,0,0,0-1.336-.585,3.637,3.637,0,0,0-.731.068c-.228.045-.433.095-.615.147v7.8Z" transform="translate(625.78 34.045)" fill="#32322f"/><path d="M-561.744-7.287q-.227-.7-.485-1.447t-.518-1.479h-5.281c-.17.495-.341.988-.513,1.484s-.332.978-.48,1.442h-3.16q.762-2.184,1.447-4.037t1.341-3.493q.655-1.639,1.292-3.111t1.321-2.878h2.885q.667,1.4,1.314,2.878t1.3,3.111q.657,1.639,1.343,3.493t1.451,4.037ZM-565.4-17.744c-.067.2-.167.463-.3.8s-.28.728-.448,1.171-.353.931-.56,1.464-.416,1.091-.63,1.676h3.866q-.31-.879-.6-1.681c-.193-.535-.378-1.023-.551-1.466s-.328-.834-.46-1.171S-565.32-17.552-565.4-17.744Z" transform="translate(572.181 42.856)" fill="#32322f"/><path d="M-559.382-6.444a7.3,7.3,0,0,1-2.059-.273,3.08,3.08,0,0,1-1.249-.713,2.358,2.358,0,0,1-.623-1.113,5.939,5.939,0,0,1-.167-1.472v-11.3l2.906-.468V-10.6a3.883,3.883,0,0,0,.058.7,1.237,1.237,0,0,0,.225.528,1.2,1.2,0,0,0,.478.35,2.621,2.621,0,0,0,.839.177Z" transform="translate(577.973 42.209)" fill="#32322f"/><path d="M-556.021-6.444a7.3,7.3,0,0,1-2.057-.273,3.068,3.068,0,0,1-1.249-.713,2.36,2.36,0,0,1-.625-1.113,6.025,6.025,0,0,1-.165-1.472v-11.3l2.906-.468V-10.6a3.882,3.882,0,0,0,.058.7,1.217,1.217,0,0,0,.225.528,1.188,1.188,0,0,0,.478.35,2.621,2.621,0,0,0,.839.177Z" transform="translate(580.211 42.209)" fill="#32322f"/><path d="M-553.445-19.945a1.593,1.593,0,0,1-.518,1.258,1.776,1.776,0,0,1-1.219.46,1.776,1.776,0,0,1-1.219-.46,1.592,1.592,0,0,1-.516-1.258A1.6,1.6,0,0,1-556.4-21.2a1.782,1.782,0,0,1,1.219-.458,1.782,1.782,0,0,1,1.219.458A1.6,1.6,0,0,1-553.445-19.945Zm-.273,13.226h-2.908V-16.98h2.908Z" transform="translate(582.34 42.287)" fill="#32322f"/><path d="M-549.734-19.015a6.748,6.748,0,0,1,2.147.293,3.326,3.326,0,0,1,1.374.839,3.08,3.08,0,0,1,.733,1.326,6.607,6.607,0,0,1,.213,1.737v6.048q-.625.137-1.735.321a16.722,16.722,0,0,1-2.692.185A8.568,8.568,0,0,1-551.5-8.44a3.874,3.874,0,0,1-1.394-.576,2.6,2.6,0,0,1-.9-1.043,3.6,3.6,0,0,1-.313-1.581,2.989,2.989,0,0,1,.361-1.522,2.764,2.764,0,0,1,.966-.994,4.361,4.361,0,0,1,1.384-.536,7.831,7.831,0,0,1,1.621-.167,8.985,8.985,0,0,1,1,.05,4.5,4.5,0,0,1,.713.125v-.271a1.609,1.609,0,0,0-.45-1.191,2.178,2.178,0,0,0-1.561-.45,9.935,9.935,0,0,0-1.464.108,6.374,6.374,0,0,0-1.247.3l-.371-2.34c.17-.052.381-.108.635-.167s.53-.11.83-.155.615-.085.946-.118S-550.073-19.015-549.734-19.015Zm.233,8.506c.286,0,.56-.007.821-.02a5.307,5.307,0,0,0,.625-.058v-2.2c-.118-.027-.293-.052-.528-.078a5.706,5.706,0,0,0-.643-.04,5.608,5.608,0,0,0-.771.05,2.013,2.013,0,0,0-.635.185,1.1,1.1,0,0,0-.43.371,1.032,1.032,0,0,0-.155.585.993.993,0,0,0,.458.946A2.518,2.518,0,0,0-549.5-10.509Z" transform="translate(584.212 44.049)" fill="#32322f"/><path d="M-547.543-18.406a16.181,16.181,0,0,1,1.912-.4,15.75,15.75,0,0,1,2.458-.185,6.012,6.012,0,0,1,2.175.34,3.277,3.277,0,0,1,1.376.966A3.771,3.771,0,0,1-538.9-16.2a7.9,7.9,0,0,1,.215,1.914V-8.5h-2.906v-5.443a3.918,3.918,0,0,0-.371-1.989,1.507,1.507,0,0,0-1.384-.586c-.21,0-.43.01-.665.03s-.441.042-.625.068V-8.5h-2.907Z" transform="translate(588.58 44.065)" fill="#32322f"/><path d="M-541.293-13.61a6.04,6.04,0,0,1,.361-2.1,4.986,4.986,0,0,1,1.044-1.716,4.946,4.946,0,0,1,1.659-1.161,5.459,5.459,0,0,1,2.224-.43,7.136,7.136,0,0,1,1.5.147,7.133,7.133,0,0,1,1.326.42l-.6,2.322a7.3,7.3,0,0,0-.9-.273,4.7,4.7,0,0,0-1.093-.118,2.3,2.3,0,0,0-1.922.8,3.291,3.291,0,0,0-.635,2.107,3.411,3.411,0,0,0,.595,2.145,2.491,2.491,0,0,0,2.079.761,7.118,7.118,0,0,0,1.131-.1,4.806,4.806,0,0,0,1.113-.313l.41,2.38a6.9,6.9,0,0,1-1.269.371,8.409,8.409,0,0,1-1.677.157,6.34,6.34,0,0,1-2.418-.42,4.542,4.542,0,0,1-1.669-1.143,4.424,4.424,0,0,1-.956-1.707A7.238,7.238,0,0,1-541.293-13.61Z" transform="translate(592.739 44.049)" fill="#32322f"/><path d="M-535.893-13.532a6.269,6.269,0,0,1,.42-2.39,5.128,5.128,0,0,1,1.1-1.707,4.564,4.564,0,0,1,1.571-1.034,4.9,4.9,0,0,1,1.824-.351,4.541,4.541,0,0,1,3.454,1.336,5.513,5.513,0,0,1,1.268,3.932c0,.168-.007.355-.02.556s-.025.38-.038.536h-6.6a1.939,1.939,0,0,0,.841,1.424,3.363,3.363,0,0,0,1.989.526,8.338,8.338,0,0,0,1.571-.147,5.983,5.983,0,0,0,1.259-.36l.39,2.36a4.041,4.041,0,0,1-.625.235,8.495,8.495,0,0,1-.868.2c-.32.06-.66.108-1.024.147a10.009,10.009,0,0,1-1.093.06,6.5,6.5,0,0,1-2.41-.41,4.726,4.726,0,0,1-1.7-1.123,4.467,4.467,0,0,1-.994-1.687A6.679,6.679,0,0,1-535.893-13.532Zm6.829-1.113a2.919,2.919,0,0,0-.127-.721,1.788,1.788,0,0,0-.331-.625,1.769,1.769,0,0,0-.566-.45,1.847,1.847,0,0,0-.848-.175,1.961,1.961,0,0,0-.84.165,1.751,1.751,0,0,0-.585.44,1.968,1.968,0,0,0-.362.635,4.216,4.216,0,0,0-.187.731Z" transform="translate(596.334 44.049)" fill="#32322f"/><path d="M-517.641-13.6a6.515,6.515,0,0,1-.341,2.167,4.862,4.862,0,0,1-.954,1.657,4.392,4.392,0,0,1-1.454,1.064,4.446,4.446,0,0,1-1.854.38,4.446,4.446,0,0,1-1.854-.38,4.373,4.373,0,0,1-1.454-1.064,4.834,4.834,0,0,1-.956-1.657,6.556,6.556,0,0,1-.341-2.167,6.553,6.553,0,0,1,.341-2.165,4.945,4.945,0,0,1,.956-1.667,4.311,4.311,0,0,1,1.454-1.074,4.446,4.446,0,0,1,1.854-.38,4.446,4.446,0,0,1,1.854.38,4.33,4.33,0,0,1,1.454,1.074,4.974,4.974,0,0,1,.954,1.667A6.512,6.512,0,0,1-517.641-13.6Zm-1.346,0a4.763,4.763,0,0,0-.878-3.013,2.858,2.858,0,0,0-2.38-1.123,2.856,2.856,0,0,0-2.38,1.123A4.753,4.753,0,0,0-525.5-13.6a4.712,4.712,0,0,0,.878,3,2.87,2.87,0,0,0,2.38,1.113,2.872,2.872,0,0,0,2.38-1.113A4.721,4.721,0,0,0-518.987-13.6Z" transform="translate(602.353 44.135)" fill="#32322f"/><path d="M-516.357-21.779a5.746,5.746,0,0,1,1.336.127,2.8,2.8,0,0,1,.673.223l-.253,1.093a4.072,4.072,0,0,0-.635-.2,4.391,4.391,0,0,0-1.063-.107,2.39,2.39,0,0,0-1.922.683,3.361,3.361,0,0,0-.576,2.185v1.053h4.059v1.074H-518.8v9.012h-1.267V-17.82a4.262,4.262,0,0,1,.908-2.965A3.609,3.609,0,0,1-516.357-21.779Z" transform="translate(606.868 42.209)" fill="#32322f"/><path d="M-507.693-6.877a6.254,6.254,0,0,1-2.428-.468,5.54,5.54,0,0,1-1.95-1.366,6.45,6.45,0,0,1-1.308-2.214,8.832,8.832,0,0,1-.478-3.015,8.242,8.242,0,0,1,.516-3.015,6.712,6.712,0,0,1,1.376-2.214,5.7,5.7,0,0,1,1.99-1.357,6.248,6.248,0,0,1,2.36-.458,9.019,9.019,0,0,1,1.386.1,7.757,7.757,0,0,1,1.093.243,7.626,7.626,0,0,1,.8.293,3.517,3.517,0,0,1,.508.263l-.43,1.151a7.885,7.885,0,0,0-1.238-.576,5.381,5.381,0,0,0-1.864-.281,5.342,5.342,0,0,0-2.215.428,4.368,4.368,0,0,0-1.589,1.211,5.233,5.233,0,0,0-.966,1.852,8.263,8.263,0,0,0-.323,2.382,8.512,8.512,0,0,0,.323,2.428,5.221,5.221,0,0,0,.946,1.844,4.189,4.189,0,0,0,1.531,1.171,5.006,5.006,0,0,0,2.079.41,8.066,8.066,0,0,0,2.155-.245,6.2,6.2,0,0,0,1.318-.5l.371,1.131a2.3,2.3,0,0,1-.47.225,8.763,8.763,0,0,1-.838.263,9.368,9.368,0,0,1-1.171.223A11.131,11.131,0,0,1-507.693-6.877Z" transform="translate(611 42.739)" fill="#32322f"/><path d="M-503.335-18.886a4.473,4.473,0,0,1,1.687.283,2.9,2.9,0,0,1,1.123.779,3.1,3.1,0,0,1,.623,1.181,5.382,5.382,0,0,1,.2,1.482V-8.8c-.132.038-.32.082-.566.127s-.533.095-.858.147-.686.093-1.084.127-.8.048-1.219.048a5.842,5.842,0,0,1-1.472-.175,3.261,3.261,0,0,1-1.171-.556,2.592,2.592,0,0,1-.779-.976,3.345,3.345,0,0,1-.285-1.452,2.954,2.954,0,0,1,.313-1.406,2.661,2.661,0,0,1,.878-.964,3.916,3.916,0,0,1,1.346-.556,7.652,7.652,0,0,1,1.7-.177c.183,0,.375.01.576.03s.4.045.586.078.35.065.486.1a1.619,1.619,0,0,1,.283.088v-.625a6.646,6.646,0,0,0-.078-1.024,2.224,2.224,0,0,0-.341-.9,1.873,1.873,0,0,0-.741-.643,2.765,2.765,0,0,0-1.258-.245,6.536,6.536,0,0,0-1.659.157c-.365.1-.631.188-.8.253l-.177-1.111A4.694,4.694,0,0,1-505-18.749,8.716,8.716,0,0,1-503.335-18.886Zm.117,9.4q.742,0,1.3-.05a8.819,8.819,0,0,0,.946-.125V-13.21a4.063,4.063,0,0,0-.683-.2,6.023,6.023,0,0,0-1.288-.108,7.426,7.426,0,0,0-.976.068,2.835,2.835,0,0,0-.936.293,1.956,1.956,0,0,0-.7.615,1.772,1.772,0,0,0-.272,1.034,2.225,2.225,0,0,0,.185.956,1.526,1.526,0,0,0,.526.623,2.3,2.3,0,0,0,.819.341A4.951,4.951,0,0,0-503.219-9.482Z" transform="translate(615.47 44.135)" fill="#32322f"/><path d="M-501.146-18.317q.565-.155,1.521-.351a11.95,11.95,0,0,1,2.342-.195,4.874,4.874,0,0,1,1.922.333,2.936,2.936,0,0,1,1.228.946,3.839,3.839,0,0,1,.655,1.472,8.564,8.564,0,0,1,.195,1.892v5.638h-1.268V-13.81a9.635,9.635,0,0,0-.147-1.814,3.063,3.063,0,0,0-.488-1.211,1.886,1.886,0,0,0-.9-.671,4.029,4.029,0,0,0-1.394-.207,10.685,10.685,0,0,0-1.552.1,4.757,4.757,0,0,0-.848.177v8.856h-1.267Z" transform="translate(619.461 44.15)" fill="#32322f"/><path d="M-491.59-18.886a4.473,4.473,0,0,1,1.687.283,2.9,2.9,0,0,1,1.123.779,3.105,3.105,0,0,1,.625,1.181,5.383,5.383,0,0,1,.195,1.482V-8.8c-.13.038-.32.082-.566.127s-.533.095-.858.147-.686.093-1.083.127-.8.048-1.219.048a5.855,5.855,0,0,1-1.474-.175,3.239,3.239,0,0,1-1.169-.556,2.6,2.6,0,0,1-.781-.976,3.371,3.371,0,0,1-.283-1.452,2.954,2.954,0,0,1,.311-1.406,2.66,2.66,0,0,1,.878-.964,3.91,3.91,0,0,1,1.347-.556,7.652,7.652,0,0,1,1.7-.177q.272,0,.575.03c.2.018.4.045.586.078s.351.065.486.1a1.575,1.575,0,0,1,.283.088v-.625a6.647,6.647,0,0,0-.077-1.024,2.273,2.273,0,0,0-.341-.9,1.9,1.9,0,0,0-.741-.643,2.777,2.777,0,0,0-1.259-.245,6.545,6.545,0,0,0-1.659.157c-.363.1-.631.188-.8.253l-.175-1.111a4.639,4.639,0,0,1,1.024-.293A8.708,8.708,0,0,1-491.59-18.886Zm.117,9.4q.742,0,1.3-.05a8.783,8.783,0,0,0,.944-.125V-13.21a4.064,4.064,0,0,0-.683-.2,6.012,6.012,0,0,0-1.288-.108,7.4,7.4,0,0,0-.974.068,2.832,2.832,0,0,0-.938.293,1.951,1.951,0,0,0-.7.615,1.76,1.76,0,0,0-.273,1.034,2.225,2.225,0,0,0,.185.956,1.527,1.527,0,0,0,.526.623,2.311,2.311,0,0,0,.819.341A4.962,4.962,0,0,0-491.473-9.482Z" transform="translate(623.289 44.135)" fill="#32322f"/><path d="M-481.119-6.952a11.3,11.3,0,0,1-1.444.37,11.531,11.531,0,0,1-2.224.177,5.413,5.413,0,0,1-2.02-.361,4.345,4.345,0,0,1-1.559-1.043,4.74,4.74,0,0,1-1.016-1.659,6.333,6.333,0,0,1-.36-2.205,7.068,7.068,0,0,1,.3-2.117,4.833,4.833,0,0,1,.888-1.667,4.055,4.055,0,0,1,1.434-1.093,4.605,4.605,0,0,1,1.942-.391,4.747,4.747,0,0,1,1.726.285,4.483,4.483,0,0,1,1.064.536v-5.425l1.268-.233Zm-1.268-7.941a4.471,4.471,0,0,0-.44-.291,4.079,4.079,0,0,0-.615-.293,5.242,5.242,0,0,0-.761-.225,4.093,4.093,0,0,0-.858-.087,3.357,3.357,0,0,0-1.571.331,2.823,2.823,0,0,0-1.024.888,3.744,3.744,0,0,0-.566,1.307,6.987,6.987,0,0,0-.175,1.589,4.3,4.3,0,0,0,.994,3.053,3.44,3.44,0,0,0,2.635,1.064,10.443,10.443,0,0,0,1.511-.088,5.6,5.6,0,0,0,.869-.185Z" transform="translate(627.051 42.209)" fill="#32322f"/><path d="M-479.651-18.886a4.476,4.476,0,0,1,1.689.283,2.9,2.9,0,0,1,1.123.779,3.1,3.1,0,0,1,.623,1.181,5.383,5.383,0,0,1,.195,1.482V-8.8a5.745,5.745,0,0,1-.565.127c-.248.047-.533.095-.859.147s-.686.093-1.083.127-.8.048-1.219.048a5.842,5.842,0,0,1-1.472-.175,3.247,3.247,0,0,1-1.171-.556,2.612,2.612,0,0,1-.781-.976,3.371,3.371,0,0,1-.281-1.452,2.954,2.954,0,0,1,.312-1.406,2.646,2.646,0,0,1,.878-.964,3.915,3.915,0,0,1,1.346-.556,7.663,7.663,0,0,1,1.7-.177c.183,0,.375.01.576.03s.4.045.585.078.351.065.488.1a1.621,1.621,0,0,1,.283.088v-.625a6.646,6.646,0,0,0-.078-1.024,2.224,2.224,0,0,0-.341-.9,1.884,1.884,0,0,0-.741-.643,2.764,2.764,0,0,0-1.257-.245,6.526,6.526,0,0,0-1.659.157c-.365.1-.631.188-.8.253l-.177-1.111a4.694,4.694,0,0,1,1.024-.293A8.708,8.708,0,0,1-479.651-18.886Zm.118,9.4c.495,0,.926-.017,1.3-.05a8.818,8.818,0,0,0,.946-.125V-13.21a4.064,4.064,0,0,0-.683-.2,6.022,6.022,0,0,0-1.287-.108,7.4,7.4,0,0,0-.976.068,2.835,2.835,0,0,0-.936.293,1.923,1.923,0,0,0-.7.615,1.76,1.76,0,0,0-.275,1.034,2.2,2.2,0,0,0,.187.956,1.527,1.527,0,0,0,.526.623,2.285,2.285,0,0,0,.819.341A4.95,4.95,0,0,0-479.533-9.482Z" transform="translate(631.236 44.135)" fill="#32322f"/><g transform="translate(194.577)"><path d="M-444.922-19.552q-.225-.7-.485-1.447l-.518-1.479h-5.28q-.257.74-.513,1.482c-.172.5-.333.978-.48,1.444h-3.161q.764-2.186,1.449-4.039t1.339-3.493q.657-1.639,1.293-3.111t1.321-2.876h2.885q.667,1.4,1.314,2.876t1.3,3.111q.657,1.639,1.344,3.493t1.449,4.039Zm-3.656-10.457c-.068.195-.168.463-.3.8s-.28.728-.446,1.171-.355.931-.561,1.462-.415,1.093-.628,1.677h3.866q-.312-.882-.6-1.682t-.553-1.466c-.175-.443-.326-.833-.46-1.171S-448.5-29.817-448.578-30.009Z" transform="translate(455.359 34.693)" fill="#32322f"/><path d="M-442.56-18.71a7.3,7.3,0,0,1-2.057-.273,3.037,3.037,0,0,1-1.249-.711,2.354,2.354,0,0,1-.625-1.113,6.035,6.035,0,0,1-.165-1.472v-11.3l2.906-.468v11.179a3.745,3.745,0,0,0,.058.7,1.191,1.191,0,0,0,.225.526,1.179,1.179,0,0,0,.478.351,2.57,2.57,0,0,0,.838.175Z" transform="translate(461.152 34.045)" fill="#32322f"/><path d="M-439.2-18.71a7.3,7.3,0,0,1-2.059-.273,3.04,3.04,0,0,1-1.247-.711,2.353,2.353,0,0,1-.625-1.113,5.948,5.948,0,0,1-.167-1.472v-11.3l2.906-.468v11.179a3.9,3.9,0,0,0,.058.7,1.211,1.211,0,0,0,.227.526,1.184,1.184,0,0,0,.476.351,2.582,2.582,0,0,0,.839.175Z" transform="translate(463.389 34.045)" fill="#32322f"/><path d="M-436.623-32.211a1.6,1.6,0,0,1-.516,1.259,1.782,1.782,0,0,1-1.219.458,1.789,1.789,0,0,1-1.221-.458,1.6,1.6,0,0,1-.516-1.259,1.592,1.592,0,0,1,.516-1.258,1.783,1.783,0,0,1,1.221-.46,1.775,1.775,0,0,1,1.219.46A1.6,1.6,0,0,1-436.623-32.211Zm-.273,13.228H-439.8V-29.246h2.906Z" transform="translate(465.518 34.123)" fill="#32322f"/><path d="M-432.911-31.28a6.741,6.741,0,0,1,2.145.291,3.334,3.334,0,0,1,1.376.839,3.1,3.1,0,0,1,.731,1.326,6.554,6.554,0,0,1,.215,1.737v6.048q-.625.137-1.737.321a16.512,16.512,0,0,1-2.692.187,8.465,8.465,0,0,1-1.805-.177,3.9,3.9,0,0,1-1.394-.575,2.636,2.636,0,0,1-.9-1.044,3.6,3.6,0,0,1-.311-1.579,3,3,0,0,1,.36-1.522,2.8,2.8,0,0,1,.966-1,4.356,4.356,0,0,1,1.386-.536,7.8,7.8,0,0,1,1.619-.165,9.436,9.436,0,0,1,1,.048,4.64,4.64,0,0,1,.713.127v-.273a1.609,1.609,0,0,0-.45-1.191,2.176,2.176,0,0,0-1.561-.448,9.912,9.912,0,0,0-1.462.108,6.306,6.306,0,0,0-1.249.3l-.371-2.342q.255-.077.635-.165c.255-.058.53-.112.829-.157s.615-.083.946-.117S-433.251-31.28-432.911-31.28Zm.233,8.506q.43,0,.82-.02a5.657,5.657,0,0,0,.625-.058v-2.205c-.117-.025-.293-.052-.528-.078a6.093,6.093,0,0,0-.643-.038,5.929,5.929,0,0,0-.771.048,2.038,2.038,0,0,0-.635.187,1.068,1.068,0,0,0-.428.37,1.029,1.029,0,0,0-.157.586,1,1,0,0,0,.46.946A2.536,2.536,0,0,0-432.678-22.774Z" transform="translate(467.391 35.885)" fill="#32322f"/><path d="M-430.72-30.671a16.36,16.36,0,0,1,1.91-.4,15.766,15.766,0,0,1,2.458-.185,5.967,5.967,0,0,1,2.175.341,3.267,3.267,0,0,1,1.376.966,3.762,3.762,0,0,1,.723,1.482,7.967,7.967,0,0,1,.215,1.912v5.795h-2.908V-26.2a3.907,3.907,0,0,0-.371-1.99,1.51,1.51,0,0,0-1.384-.585c-.208,0-.43.01-.663.028s-.443.043-.625.068v7.922h-2.906Z" transform="translate(471.758 35.901)" fill="#32322f"/><path d="M-424.47-25.877a6.025,6.025,0,0,1,.361-2.1,5.015,5.015,0,0,1,1.043-1.717,5.011,5.011,0,0,1,1.659-1.161,5.493,5.493,0,0,1,2.224-.428,7.126,7.126,0,0,1,1.5.147,7.309,7.309,0,0,1,1.328.418l-.6,2.322a7.538,7.538,0,0,0-.9-.273,4.678,4.678,0,0,0-1.093-.117,2.3,2.3,0,0,0-1.922.8,3.291,3.291,0,0,0-.635,2.107,3.415,3.415,0,0,0,.595,2.147,2.5,2.5,0,0,0,2.079.761,7.131,7.131,0,0,0,1.131-.1,4.8,4.8,0,0,0,1.113-.311l.41,2.38a6.727,6.727,0,0,1-1.267.37,8.312,8.312,0,0,1-1.677.157,6.312,6.312,0,0,1-2.42-.42,4.568,4.568,0,0,1-1.669-1.141,4.446,4.446,0,0,1-.954-1.707A7.194,7.194,0,0,1-424.47-25.877Z" transform="translate(475.918 35.885)" fill="#32322f"/><path d="M-419.07-25.8a6.278,6.278,0,0,1,.42-2.39,5.122,5.122,0,0,1,1.1-1.707,4.589,4.589,0,0,1,1.571-1.034,4.93,4.93,0,0,1,1.824-.35,4.534,4.534,0,0,1,3.453,1.336,5.511,5.511,0,0,1,1.268,3.931c0,.17-.007.355-.018.556s-.027.381-.04.536h-6.594a1.928,1.928,0,0,0,.839,1.424,3.371,3.371,0,0,0,1.99.528,8.493,8.493,0,0,0,1.571-.147,5.956,5.956,0,0,0,1.257-.361l.39,2.36a3.95,3.95,0,0,1-.623.235,8.1,8.1,0,0,1-.869.2q-.477.087-1.024.147a10.416,10.416,0,0,1-1.093.058,6.464,6.464,0,0,1-2.408-.41,4.675,4.675,0,0,1-1.7-1.123,4.442,4.442,0,0,1-.994-1.687A6.721,6.721,0,0,1-419.07-25.8Zm6.829-1.113a3.091,3.091,0,0,0-.127-.721,1.835,1.835,0,0,0-.333-.625,1.758,1.758,0,0,0-.565-.448,1.833,1.833,0,0,0-.849-.177,1.965,1.965,0,0,0-.839.167,1.764,1.764,0,0,0-.585.438,1.951,1.951,0,0,0-.36.635,4.087,4.087,0,0,0-.187.731Z" transform="translate(479.512 35.885)" fill="#32322f"/><path d="M-400.464-19.236q-.39.117-.9.225c-.336.072-.693.133-1.063.185s-.748.093-1.131.127-.751.048-1.1.048a6.465,6.465,0,0,1-2.263-.37,4.542,4.542,0,0,1-1.677-1.064,4.611,4.611,0,0,1-1.044-1.677,6.379,6.379,0,0,1-.36-2.215,7.572,7.572,0,0,1,.311-2.252,4.9,4.9,0,0,1,.9-1.707,3.851,3.851,0,0,1,1.436-1.074,4.812,4.812,0,0,1,1.94-.37,4.55,4.55,0,0,1,1.083.117,5.875,5.875,0,0,1,.966.331v-4.644l2.906-.468Zm-6.574-4.877a3.555,3.555,0,0,0,.6,2.164,2.088,2.088,0,0,0,1.794.821c.261,0,.5-.01.723-.03s.4-.042.546-.068v-5.287a2.511,2.511,0,0,0-.713-.293,3.407,3.407,0,0,0-.886-.117Q-407.038-26.923-407.038-24.113Z" transform="translate(485.547 34.045)" fill="#32322f"/><path d="M-403.273-25.8a6.245,6.245,0,0,1,.42-2.39,5.1,5.1,0,0,1,1.1-1.707,4.589,4.589,0,0,1,1.571-1.034,4.927,4.927,0,0,1,1.822-.35,4.535,4.535,0,0,1,3.454,1.336,5.511,5.511,0,0,1,1.267,3.931c0,.17-.007.355-.018.556s-.027.381-.04.536h-6.594a1.932,1.932,0,0,0,.838,1.424,3.371,3.371,0,0,0,1.99.528,8.466,8.466,0,0,0,1.571-.147,5.943,5.943,0,0,0,1.259-.361l.39,2.36a3.975,3.975,0,0,1-.625.235,8.058,8.058,0,0,1-.868.2c-.318.058-.661.107-1.024.147a10.438,10.438,0,0,1-1.093.058,6.458,6.458,0,0,1-2.408-.41,4.675,4.675,0,0,1-1.7-1.123,4.441,4.441,0,0,1-.994-1.687A6.672,6.672,0,0,1-403.273-25.8Zm6.827-1.113a2.925,2.925,0,0,0-.127-.721,1.8,1.8,0,0,0-.331-.625,1.757,1.757,0,0,0-.565-.448,1.833,1.833,0,0,0-.849-.177,1.965,1.965,0,0,0-.839.167,1.765,1.765,0,0,0-.585.438,1.985,1.985,0,0,0-.361.635,4.232,4.232,0,0,0-.185.731Z" transform="translate(490.026 35.885)" fill="#32322f"/><path d="M-387.73-28.455q-.39-.1-.916-.2a5.659,5.659,0,0,0-1.133-.108,5.119,5.119,0,0,0-.653.05,3.823,3.823,0,0,0-.576.107v7.843h-2.906v-9.717A17.682,17.682,0,0,1-392.07-31a10.69,10.69,0,0,1,2.37-.243c.157,0,.345.01.566.028s.441.047.663.078.441.072.663.117a3.183,3.183,0,0,1,.566.167Z" transform="translate(496.256 35.909)" fill="#32322f"/><path d="M-389.676-25.8a6.278,6.278,0,0,1,.42-2.39,5.143,5.143,0,0,1,1.1-1.707,4.62,4.62,0,0,1,1.571-1.034,4.945,4.945,0,0,1,1.826-.35,4.531,4.531,0,0,1,3.453,1.336,5.512,5.512,0,0,1,1.269,3.931c0,.17-.007.355-.02.556s-.027.381-.038.536h-6.6a1.929,1.929,0,0,0,.839,1.424,3.369,3.369,0,0,0,1.989.528,8.464,8.464,0,0,0,1.571-.147,5.945,5.945,0,0,0,1.259-.361l.39,2.36a4.015,4.015,0,0,1-.623.235,8.092,8.092,0,0,1-.869.2c-.32.058-.66.107-1.024.147a10.431,10.431,0,0,1-1.091.058,6.482,6.482,0,0,1-2.412-.41,4.675,4.675,0,0,1-1.7-1.123,4.424,4.424,0,0,1-1-1.687A6.674,6.674,0,0,1-389.676-25.8Zm6.829-1.113a3.009,3.009,0,0,0-.128-.721,1.8,1.8,0,0,0-.331-.625,1.776,1.776,0,0,0-.565-.448,1.833,1.833,0,0,0-.849-.177,1.965,1.965,0,0,0-.839.167,1.763,1.763,0,0,0-.585.438,2.02,2.02,0,0,0-.361.635,4.1,4.1,0,0,0-.185.731Z" transform="translate(499.076 35.885)" fill="#32322f"/><path d="M-383.194-25.877a6.063,6.063,0,0,1,.361-2.1,4.993,4.993,0,0,1,1.044-1.717,5,5,0,0,1,1.657-1.161,5.5,5.5,0,0,1,2.225-.428,7.138,7.138,0,0,1,1.5.147,7.293,7.293,0,0,1,1.326.418l-.6,2.322a7.542,7.542,0,0,0-.9-.273,4.678,4.678,0,0,0-1.093-.117,2.305,2.305,0,0,0-1.922.8,3.3,3.3,0,0,0-.635,2.107,3.415,3.415,0,0,0,.6,2.147,2.5,2.5,0,0,0,2.079.761,7.148,7.148,0,0,0,1.131-.1,4.828,4.828,0,0,0,1.113-.311L-374.9-21a6.689,6.689,0,0,1-1.267.37,8.288,8.288,0,0,1-1.677.157,6.311,6.311,0,0,1-2.42-.42,4.547,4.547,0,0,1-1.667-1.141,4.449,4.449,0,0,1-.956-1.707A7.25,7.25,0,0,1-383.194-25.877Z" transform="translate(503.391 35.885)" fill="#32322f"/><path d="M-377.386-18.9V-33.577l2.906-.468v4.917a6.033,6.033,0,0,1,.751-.185,4.729,4.729,0,0,1,.888-.088,5.48,5.48,0,0,1,2.079.341,3.235,3.235,0,0,1,1.326.966,3.732,3.732,0,0,1,.7,1.482,8.252,8.252,0,0,1,.2,1.912V-18.9h-2.906v-5.443a4.018,4.018,0,0,0-.361-1.99,1.445,1.445,0,0,0-1.337-.585,3.636,3.636,0,0,0-.731.068c-.228.045-.431.095-.615.147v7.8Z" transform="translate(507.256 34.045)" fill="#32322f"/><path d="M-371.136-25.8a6.278,6.278,0,0,1,.42-2.39,5.148,5.148,0,0,1,1.1-1.707,4.589,4.589,0,0,1,1.571-1.034,4.93,4.93,0,0,1,1.824-.35,4.538,4.538,0,0,1,3.454,1.336,5.511,5.511,0,0,1,1.266,3.931c0,.17-.007.355-.018.556s-.027.381-.04.536h-6.594a1.929,1.929,0,0,0,.839,1.424,3.372,3.372,0,0,0,1.99.528,8.479,8.479,0,0,0,1.571-.147,5.927,5.927,0,0,0,1.258-.361l.391,2.36a4.043,4.043,0,0,1-.625.235,8,8,0,0,1-.869.2q-.477.087-1.024.147a10.415,10.415,0,0,1-1.093.058,6.464,6.464,0,0,1-2.408-.41,4.667,4.667,0,0,1-1.7-1.123,4.424,4.424,0,0,1-1-1.687A6.719,6.719,0,0,1-371.136-25.8Zm6.829-1.113a3,3,0,0,0-.127-.721,1.83,1.83,0,0,0-.331-.625,1.783,1.783,0,0,0-.566-.448,1.828,1.828,0,0,0-.849-.177,1.952,1.952,0,0,0-.838.167,1.753,1.753,0,0,0-.586.438,1.951,1.951,0,0,0-.36.635,4.237,4.237,0,0,0-.187.731Z" transform="translate(511.416 35.885)" fill="#32322f"/><path d="M-358.144-28.455q-.39-.1-.916-.2a5.659,5.659,0,0,0-1.133-.108,5.119,5.119,0,0,0-.653.05,3.865,3.865,0,0,0-.576.107v7.843h-2.906v-9.717A17.92,17.92,0,0,1-362.484-31a10.69,10.69,0,0,1,2.37-.243c.157,0,.345.01.566.028s.441.047.663.078.443.072.663.117a3.183,3.183,0,0,1,.566.167Z" transform="translate(515.948 35.909)" fill="#32322f"/><path d="M-360.1-25.877a6.025,6.025,0,0,1,.361-2.1,4.994,4.994,0,0,1,1.044-1.717,5,5,0,0,1,1.657-1.161,5.5,5.5,0,0,1,2.225-.428,7.122,7.122,0,0,1,1.5.147,7.228,7.228,0,0,1,1.327.418l-.6,2.322a7.539,7.539,0,0,0-.9-.273,4.677,4.677,0,0,0-1.093-.117,2.3,2.3,0,0,0-1.92.8,3.281,3.281,0,0,0-.635,2.107,3.415,3.415,0,0,0,.595,2.147,2.5,2.5,0,0,0,2.079.761,7.148,7.148,0,0,0,1.131-.1,4.767,4.767,0,0,0,1.111-.311l.411,2.38a6.785,6.785,0,0,1-1.269.37,8.286,8.286,0,0,1-1.677.157,6.323,6.323,0,0,1-2.42-.42,4.547,4.547,0,0,1-1.667-1.141,4.449,4.449,0,0,1-.956-1.707A7.2,7.2,0,0,1-360.1-25.877Z" transform="translate(518.76 35.885)" fill="#32322f"/><path d="M-354.294-18.9V-33.577l2.906-.468v4.917a6.037,6.037,0,0,1,.751-.185,4.743,4.743,0,0,1,.888-.088,5.479,5.479,0,0,1,2.079.341,3.224,3.224,0,0,1,1.326.966,3.711,3.711,0,0,1,.7,1.482,8.248,8.248,0,0,1,.2,1.912V-18.9h-2.906v-5.443a4.019,4.019,0,0,0-.361-1.99,1.442,1.442,0,0,0-1.336-.585,3.652,3.652,0,0,0-.733.068c-.227.045-.433.095-.615.147v7.8Z" transform="translate(522.626 34.045)" fill="#32322f"/><path d="M-348.044-25.8a6.277,6.277,0,0,1,.42-2.39,5.121,5.121,0,0,1,1.1-1.707,4.605,4.605,0,0,1,1.571-1.034,4.93,4.93,0,0,1,1.824-.35,4.531,4.531,0,0,1,3.453,1.336,5.5,5.5,0,0,1,1.269,3.931c0,.17-.007.355-.02.556s-.027.381-.038.536h-6.594a1.927,1.927,0,0,0,.838,1.424,3.371,3.371,0,0,0,1.99.528,8.492,8.492,0,0,0,1.571-.147,5.954,5.954,0,0,0,1.257-.361l.391,2.36a4.041,4.041,0,0,1-.625.235,8.058,8.058,0,0,1-.868.2q-.48.087-1.024.147a10.462,10.462,0,0,1-1.093.058,6.467,6.467,0,0,1-2.41-.41,4.668,4.668,0,0,1-1.7-1.123,4.4,4.4,0,0,1-.994-1.687A6.672,6.672,0,0,1-348.044-25.8Zm6.829-1.113a3,3,0,0,0-.127-.721,1.8,1.8,0,0,0-.331-.625,1.765,1.765,0,0,0-.566-.448,1.826,1.826,0,0,0-.848-.177,1.954,1.954,0,0,0-.839.167,1.754,1.754,0,0,0-.586.438,1.983,1.983,0,0,0-.36.635,4.1,4.1,0,0,0-.185.731Z" transform="translate(526.786 35.885)" fill="#32322f"/><path d="M-454.609-18.406a16.173,16.173,0,0,1,1.912-.4,15.765,15.765,0,0,1,2.458-.185,6.018,6.018,0,0,1,2.175.34,3.278,3.278,0,0,1,1.376.966,3.772,3.772,0,0,1,.721,1.482,7.9,7.9,0,0,1,.215,1.914V-8.5h-2.906v-5.443a3.9,3.9,0,0,0-.371-1.989,1.509,1.509,0,0,0-1.384-.586c-.21,0-.43.01-.665.03s-.441.042-.625.068V-8.5h-2.906Z" transform="translate(455.858 44.065)" fill="#32322f"/><path d="M-439.277-8.939a16.03,16.03,0,0,1-1.912.4,15.735,15.735,0,0,1-2.458.185,5.82,5.82,0,0,1-2.175-.351A3.3,3.3,0,0,1-447.2-9.69a3.855,3.855,0,0,1-.721-1.512,8.121,8.121,0,0,1-.215-1.932v-5.716h2.906v5.365a4.167,4.167,0,0,0,.371,2.03,1.475,1.475,0,0,0,1.386.625c.206,0,.43-.01.663-.03s.441-.042.625-.068v-7.922h2.906Z" transform="translate(460.167 44.158)" fill="#32322f"/><path d="M-435.88-13.939a4.014,4.014,0,0,0-.36-1.989,1.339,1.339,0,0,0-1.239-.586,5.57,5.57,0,0,0-.566.03c-.195.018-.383.042-.565.068V-8.5h-2.908v-9.91q.37-.1.868-.2c.333-.072.683-.137,1.054-.195s.751-.1,1.141-.137.774-.048,1.151-.048a4.853,4.853,0,0,1,1.806.281,4.083,4.083,0,0,1,1.141.675,4.961,4.961,0,0,1,1.434-.7,5,5,0,0,1,1.492-.253,5.158,5.158,0,0,1,2.02.34,3.043,3.043,0,0,1,1.258.966,3.664,3.664,0,0,1,.645,1.482,9.623,9.623,0,0,1,.175,1.914V-8.5h-2.908v-5.443a4.015,4.015,0,0,0-.36-1.989,1.337,1.337,0,0,0-1.239-.586,2.615,2.615,0,0,0-.653.118,2.49,2.49,0,0,0-.693.291,4.444,4.444,0,0,1,.175.946c.027.333.04.686.04,1.063v5.6h-2.908Z" transform="translate(464.571 44.065)" fill="#32322f"/><path d="M-432.07-11.513a6.271,6.271,0,0,1,.42-2.39,5.13,5.13,0,0,1,1.1-1.707,4.565,4.565,0,0,1,1.571-1.034A4.9,4.9,0,0,1-427.151-17,4.54,4.54,0,0,1-423.7-15.66a5.513,5.513,0,0,1,1.268,3.932c0,.168-.007.355-.02.556s-.025.38-.038.536h-6.6a1.932,1.932,0,0,0,.839,1.424,3.371,3.371,0,0,0,1.99.526,8.351,8.351,0,0,0,1.571-.147,6.012,6.012,0,0,0,1.259-.36l.39,2.36a4.041,4.041,0,0,1-.625.235,8.495,8.495,0,0,1-.868.2q-.48.09-1.024.147a10.029,10.029,0,0,1-1.093.06,6.5,6.5,0,0,1-2.41-.41,4.725,4.725,0,0,1-1.7-1.123,4.445,4.445,0,0,1-.994-1.687A6.679,6.679,0,0,1-432.07-11.513Zm7.259-8.9-3.21,2.712-1.336-1.189,2.76-3.161Zm-.43,7.785a3,3,0,0,0-.127-.721,1.787,1.787,0,0,0-.331-.625,1.769,1.769,0,0,0-.566-.45,1.848,1.848,0,0,0-.848-.175,1.96,1.96,0,0,0-.839.165,1.752,1.752,0,0,0-.585.44,1.969,1.969,0,0,0-.361.635,4.2,4.2,0,0,0-.187.731Z" transform="translate(470.86 42.029)" fill="#32322f"/><path d="M-419.077-16.19q-.39-.1-.918-.2a5.77,5.77,0,0,0-1.131-.107,5.427,5.427,0,0,0-.655.048,3.8,3.8,0,0,0-.575.108V-8.5h-2.906v-9.715a17.728,17.728,0,0,1,1.842-.518,10.705,10.705,0,0,1,2.372-.243c.157,0,.343.01.565.03s.443.045.665.078.441.07.663.117a3.1,3.1,0,0,1,.566.165Z" transform="translate(475.392 44.072)" fill="#32322f"/><path d="M-417.319-19.945a1.592,1.592,0,0,1-.516,1.258,1.776,1.776,0,0,1-1.219.46,1.776,1.776,0,0,1-1.219-.46,1.593,1.593,0,0,1-.518-1.258,1.6,1.6,0,0,1,.518-1.259,1.782,1.782,0,0,1,1.219-.458,1.782,1.782,0,0,1,1.219.458A1.6,1.6,0,0,1-417.319-19.945Zm-.271,13.226H-420.5V-16.98h2.908Z" transform="translate(478.366 42.287)" fill="#32322f"/><path d="M-417.895-13.626a6.262,6.262,0,0,1,.361-2.175,4.807,4.807,0,0,1,1.043-1.7,4.629,4.629,0,0,1,1.679-1.1,6.166,6.166,0,0,1,2.264-.39c.351,0,.718.017,1.1.048s.76.075,1.131.127.724.113,1.063.185.638.147.9.225V-4.885h-2.906V-8.749a5.475,5.475,0,0,1-1.014.331,5.205,5.205,0,0,1-1.133.118,4.026,4.026,0,0,1-3.336-1.434A6.044,6.044,0,0,1-417.895-13.626Zm2.965.078q0,2.791,2.069,2.79a3.422,3.422,0,0,0,.888-.118,2.564,2.564,0,0,0,.713-.291v-5.248c-.143-.027-.326-.05-.546-.068s-.463-.03-.723-.03a2.1,2.1,0,0,0-1.794.809A3.521,3.521,0,0,0-414.93-13.548Z" transform="translate(480.294 44.065)" fill="#32322f"/><path d="M-402.06-8.939a16.17,16.17,0,0,1-1.912.4,15.766,15.766,0,0,1-2.458.185,5.819,5.819,0,0,1-2.175-.351,3.285,3.285,0,0,1-1.376-.984A3.833,3.833,0,0,1-410.7-11.2a8.034,8.034,0,0,1-.216-1.932v-5.716h2.908v5.365a4.149,4.149,0,0,0,.371,2.03,1.472,1.472,0,0,0,1.384.625c.208,0,.43-.01.663-.03s.443-.042.626-.068v-7.922h2.906Z" transform="translate(484.937 44.158)" fill="#32322f"/><path d="M-404.6-13.532a6.271,6.271,0,0,1,.42-2.39,5.1,5.1,0,0,1,1.1-1.707,4.565,4.565,0,0,1,1.571-1.034,4.9,4.9,0,0,1,1.824-.351,4.535,4.535,0,0,1,3.453,1.336,5.506,5.506,0,0,1,1.269,3.932c0,.168-.007.355-.02.556s-.027.38-.038.536h-6.6a1.932,1.932,0,0,0,.839,1.424,3.372,3.372,0,0,0,1.99.526,8.351,8.351,0,0,0,1.571-.147,6.013,6.013,0,0,0,1.259-.36l.39,2.36a4.041,4.041,0,0,1-.625.235,8.491,8.491,0,0,1-.868.2q-.48.09-1.024.147a10.029,10.029,0,0,1-1.093.06,6.5,6.5,0,0,1-2.41-.41,4.711,4.711,0,0,1-1.7-1.123,4.446,4.446,0,0,1-.994-1.687A6.681,6.681,0,0,1-404.6-13.532Zm6.829-1.113a3,3,0,0,0-.127-.721,1.787,1.787,0,0,0-.331-.625,1.769,1.769,0,0,0-.566-.45,1.852,1.852,0,0,0-.848-.175,1.955,1.955,0,0,0-.839.165,1.775,1.775,0,0,0-.586.44,2,2,0,0,0-.36.635,4.2,4.2,0,0,0-.187.731Z" transform="translate(489.145 44.049)" fill="#32322f"/><path d="M-386.931-6.952a11.446,11.446,0,0,1-1.444.37,11.555,11.555,0,0,1-2.224.177,5.4,5.4,0,0,1-2.02-.361,4.366,4.366,0,0,1-1.561-1.043,4.712,4.712,0,0,1-1.014-1.659,6.294,6.294,0,0,1-.361-2.205,7.015,7.015,0,0,1,.3-2.117,4.8,4.8,0,0,1,.888-1.667,4.025,4.025,0,0,1,1.434-1.093,4.6,4.6,0,0,1,1.94-.391,4.751,4.751,0,0,1,1.727.285,4.465,4.465,0,0,1,1.063.536v-5.425l1.269-.233Zm-1.269-7.941a4.624,4.624,0,0,0-.438-.291,4.159,4.159,0,0,0-.615-.293,5.308,5.308,0,0,0-.761-.225,4.109,4.109,0,0,0-.859-.087,3.361,3.361,0,0,0-1.571.331,2.831,2.831,0,0,0-1.023.888,3.682,3.682,0,0,0-.566,1.307,6.984,6.984,0,0,0-.175,1.589,4.3,4.3,0,0,0,.994,3.053,3.434,3.434,0,0,0,2.633,1.064,10.453,10.453,0,0,0,1.512-.088,5.61,5.61,0,0,0,.868-.185Z" transform="translate(495.163 42.209)" fill="#32322f"/><path d="M-381-9.009c-.378.1-.884.222-1.521.35a11.949,11.949,0,0,1-2.342.2,4.761,4.761,0,0,1-1.892-.331,3.073,3.073,0,0,1-1.231-.938,3.806,3.806,0,0,1-.673-1.462,8.248,8.248,0,0,1-.2-1.894v-5.658h1.269v5.25a8.9,8.9,0,0,0,.157,1.814,2.941,2.941,0,0,0,.506,1.2,1.978,1.978,0,0,0,.908.665,3.988,3.988,0,0,0,1.356.2,10.9,10.9,0,0,0,1.561-.1,4.286,4.286,0,0,0,.839-.175v-8.859H-381Z" transform="translate(499.615 44.228)" fill="#32322f"/><path d="M-374.163-6.877a6.254,6.254,0,0,1-2.428-.468,5.541,5.541,0,0,1-1.95-1.366,6.452,6.452,0,0,1-1.307-2.214,8.789,8.789,0,0,1-.478-3.015,8.2,8.2,0,0,1,.516-3.015,6.687,6.687,0,0,1,1.376-2.214,5.7,5.7,0,0,1,1.99-1.357,6.242,6.242,0,0,1,2.36-.458,9.019,9.019,0,0,1,1.386.1,7.81,7.81,0,0,1,1.093.243,7.767,7.767,0,0,1,.8.293,3.612,3.612,0,0,1,.508.263l-.43,1.151a7.911,7.911,0,0,0-1.239-.576,5.378,5.378,0,0,0-1.862-.281,5.342,5.342,0,0,0-2.215.428,4.388,4.388,0,0,0-1.591,1.211A5.26,5.26,0,0,0-378.6-16.3a8.322,8.322,0,0,0-.321,2.382,8.572,8.572,0,0,0,.321,2.428,5.2,5.2,0,0,0,.948,1.844,4.175,4.175,0,0,0,1.531,1.171,5,5,0,0,0,2.077.41,8.079,8.079,0,0,0,2.157-.245,6.236,6.236,0,0,0,1.318-.5l.371,1.131a2.3,2.3,0,0,1-.47.225c-.222.085-.5.172-.839.263a9.337,9.337,0,0,1-1.169.223A11.151,11.151,0,0,1-374.163-6.877Z" transform="translate(505.299 42.739)" fill="#32322f"/><path d="M-369.805-18.886a4.473,4.473,0,0,1,1.687.283,2.9,2.9,0,0,1,1.121.779,3.082,3.082,0,0,1,.625,1.181,5.383,5.383,0,0,1,.195,1.482V-8.8a5.747,5.747,0,0,1-.565.127q-.372.07-.859.147t-1.083.127q-.595.047-1.219.048a5.833,5.833,0,0,1-1.472-.175,3.247,3.247,0,0,1-1.171-.556,2.628,2.628,0,0,1-.781-.976,3.371,3.371,0,0,1-.283-1.452,2.954,2.954,0,0,1,.313-1.406,2.646,2.646,0,0,1,.878-.964,3.9,3.9,0,0,1,1.346-.556,7.663,7.663,0,0,1,1.7-.177c.182,0,.375.01.576.03s.4.045.585.078.351.065.488.1a1.619,1.619,0,0,1,.283.088v-.625a6.646,6.646,0,0,0-.078-1.024,2.249,2.249,0,0,0-.341-.9,1.884,1.884,0,0,0-.741-.643,2.777,2.777,0,0,0-1.259-.245,6.53,6.53,0,0,0-1.657.157c-.365.1-.631.188-.8.253l-.175-1.111a4.694,4.694,0,0,1,1.024-.293A8.716,8.716,0,0,1-369.805-18.886Zm.117,9.4q.74,0,1.3-.05a8.759,8.759,0,0,0,.946-.125V-13.21a4.113,4.113,0,0,0-.683-.2,6.034,6.034,0,0,0-1.288-.108,7.426,7.426,0,0,0-.976.068,2.835,2.835,0,0,0-.936.293,1.956,1.956,0,0,0-.7.615,1.773,1.773,0,0,0-.273,1.034,2.2,2.2,0,0,0,.187.956,1.514,1.514,0,0,0,.526.623,2.3,2.3,0,0,0,.819.341A4.952,4.952,0,0,0-369.689-9.482Z" transform="translate(509.769 44.135)" fill="#32322f"/><path d="M-367.617-18.317q.565-.155,1.522-.351a11.95,11.95,0,0,1,2.342-.195,4.874,4.874,0,0,1,1.922.333,2.936,2.936,0,0,1,1.228.946,3.839,3.839,0,0,1,.655,1.472,8.564,8.564,0,0,1,.195,1.892v5.638h-1.269V-13.81a9.65,9.65,0,0,0-.145-1.814,3.062,3.062,0,0,0-.488-1.211,1.886,1.886,0,0,0-.9-.671,4.033,4.033,0,0,0-1.4-.207,10.677,10.677,0,0,0-1.551.1,4.72,4.72,0,0,0-.848.177v8.856h-1.269Z" transform="translate(513.758 44.15)" fill="#32322f"/><path d="M-358.06-18.886a4.473,4.473,0,0,1,1.687.283,2.9,2.9,0,0,1,1.123.779,3.079,3.079,0,0,1,.623,1.181,5.379,5.379,0,0,1,.2,1.482V-8.8c-.132.038-.32.082-.566.127s-.533.095-.859.147-.685.093-1.083.127-.8.048-1.219.048a5.842,5.842,0,0,1-1.472-.175,3.261,3.261,0,0,1-1.171-.556,2.612,2.612,0,0,1-.781-.976,3.371,3.371,0,0,1-.281-1.452,2.954,2.954,0,0,1,.311-1.406,2.66,2.66,0,0,1,.878-.964,3.91,3.91,0,0,1,1.347-.556,7.63,7.63,0,0,1,1.7-.177q.272,0,.575.03c.2.018.4.045.586.078s.35.065.486.1a1.62,1.62,0,0,1,.283.088v-.625a6.646,6.646,0,0,0-.078-1.024,2.224,2.224,0,0,0-.341-.9,1.872,1.872,0,0,0-.741-.643,2.765,2.765,0,0,0-1.258-.245,6.536,6.536,0,0,0-1.659.157c-.363.1-.631.188-.8.253l-.177-1.111a4.687,4.687,0,0,1,1.026-.293A8.684,8.684,0,0,1-358.06-18.886Zm.117,9.4q.742,0,1.3-.05a8.823,8.823,0,0,0,.946-.125V-13.21a4.064,4.064,0,0,0-.683-.2,6.023,6.023,0,0,0-1.288-.108,7.426,7.426,0,0,0-.976.068,2.835,2.835,0,0,0-.936.293,1.938,1.938,0,0,0-.7.615,1.761,1.761,0,0,0-.275,1.034,2.2,2.2,0,0,0,.187.956,1.527,1.527,0,0,0,.526.623,2.3,2.3,0,0,0,.819.341A4.951,4.951,0,0,0-357.943-9.482Z" transform="translate(517.588 44.135)" fill="#32322f"/><path d="M-347.589-6.952a11.448,11.448,0,0,1-1.444.37,11.531,11.531,0,0,1-2.224.177,5.413,5.413,0,0,1-2.02-.361,4.366,4.366,0,0,1-1.561-1.043,4.736,4.736,0,0,1-1.014-1.659,6.333,6.333,0,0,1-.36-2.205,7.068,7.068,0,0,1,.3-2.117,4.832,4.832,0,0,1,.888-1.667,4.025,4.025,0,0,1,1.434-1.093,4.6,4.6,0,0,1,1.94-.391,4.744,4.744,0,0,1,1.727.285,4.482,4.482,0,0,1,1.064.536v-5.425l1.268-.233Zm-1.268-7.941a4.916,4.916,0,0,0-.44-.291,4.163,4.163,0,0,0-.615-.293,5.243,5.243,0,0,0-.761-.225,4.1,4.1,0,0,0-.858-.087,3.357,3.357,0,0,0-1.571.331,2.823,2.823,0,0,0-1.024.888,3.684,3.684,0,0,0-.566,1.307,6.986,6.986,0,0,0-.177,1.589,4.3,4.3,0,0,0,1,3.053,3.434,3.434,0,0,0,2.633,1.064,10.453,10.453,0,0,0,1.512-.088,5.6,5.6,0,0,0,.869-.185Z" transform="translate(521.349 42.209)" fill="#32322f"/><path d="M-346.119-18.886a4.473,4.473,0,0,1,1.687.283,2.9,2.9,0,0,1,1.121.779,3.083,3.083,0,0,1,.625,1.181,5.383,5.383,0,0,1,.195,1.482V-8.8a5.745,5.745,0,0,1-.565.127q-.372.07-.859.147T-345-8.4q-.595.047-1.219.048a5.842,5.842,0,0,1-1.472-.175,3.247,3.247,0,0,1-1.171-.556,2.612,2.612,0,0,1-.781-.976,3.37,3.37,0,0,1-.283-1.452,2.954,2.954,0,0,1,.313-1.406,2.646,2.646,0,0,1,.878-.964,3.9,3.9,0,0,1,1.346-.556,7.652,7.652,0,0,1,1.7-.177c.182,0,.373.01.576.03s.4.045.585.078.351.065.488.1a1.673,1.673,0,0,1,.283.088v-.625a6.646,6.646,0,0,0-.078-1.024,2.274,2.274,0,0,0-.341-.9,1.9,1.9,0,0,0-.741-.643,2.769,2.769,0,0,0-1.257-.245,6.526,6.526,0,0,0-1.659.157c-.365.1-.631.188-.8.253l-.175-1.111a4.694,4.694,0,0,1,1.024-.293A8.715,8.715,0,0,1-346.119-18.886Zm.117,9.4q.74,0,1.3-.05a8.819,8.819,0,0,0,.946-.125V-13.21a4.064,4.064,0,0,0-.683-.2,6.033,6.033,0,0,0-1.287-.108,7.4,7.4,0,0,0-.976.068,2.834,2.834,0,0,0-.936.293,1.942,1.942,0,0,0-.7.615,1.773,1.773,0,0,0-.273,1.034,2.225,2.225,0,0,0,.185.956,1.543,1.543,0,0,0,.528.623,2.3,2.3,0,0,0,.819.341A4.95,4.95,0,0,0-346-9.482Z" transform="translate(525.534 44.135)" fill="#32322f"/></g></g><path d="M-570.664-35.732H-622.65l8.316,4.832,27.7,15.973,15.953,27.662,4.832,8.318V-35.732Zm-.018,24.462-12.434-7.177L-590.3-30.9h19.622Zm-34-19.631h8.838l4.412,7.65Zm26.371,20.771,7.63,4.4V3.086Z" transform="translate(0 0)" fill="#d6ab00"/></g></svg>