<svg xmlns="http://www.w3.org/2000/svg" viewBox="0 0 404.1 195.6">
    <style type="text/css">

        .st0{fill:#FFFFFF;}
        .st1{fill:#502C1E;}
        .st2{fill:#F5A800;}
        .st3{fill:#00A0DF;}
        .st4{fill:#345D9D;}

    </style>
    <path class="st0" d="M106.6 103.9v-24l0 0V42.8c0-6.9-4-13.2-10.1-16.1L51.8 5.5c-1.1-0.5-6.2-3-9.9-5.5v13.2c0 2.4 0.1 4.9 1.5 6.8 -8-3.8-13.8-6.6-14.4-6.8 -1.8-0.9-7.8-4.1-10.9-6.9 0 3.8 0 22.9 0 22.9 0 3.1 0.7 7.2 2.9 9.1l-7.2-3.4C9.8 33 3.3 27.9 0 21.5v28l0 0v97.8l0 0v0.6c0 11 6.1 21.2 16 26.7l37.4 21 25-14.1 0 0 1.8-1 2-1.1 0 0 8.5-4.8c9.8-5.5 15.9-15.8 15.9-26.8V103.9z"/>
    <rect x="135" y="148.2" class="st1" width="22.4" height="3"/>
    <path class="st1" d="M148 135.4c0 4.5-3 7.4-7 7.4s-7-3-7-7.4c0-4.5 3-7.4 7-7.4C145 127.9 148 130.9 148 135.4zM138.4 135.4c0 4.8 0.8 6.6 2.6 6.6 1.8 0 2.6-1.8 2.6-6.6s-0.8-6.7-2.6-6.7C139.2 128.7 138.4 130.6 138.4 135.4z"/>
    <path class="st1" d="M160.4 124.5c0 0.8-0.5 1.3-1.4 1.6h-0.5c-0.7-2.5-1.2-3.1-2.2-3.1 -0.9 0-1.5 0.8-1.5 2.9v2.3h3v1h-3v10.5c0 1.9 0 1.9 2.5 2v0.8h-8.4v-0.8c1.7-0.1 1.7-0.1 1.7-2v-10.5h-1.7v-0.8l1.7-0.3v-0.4c0-2.6 1.7-5.4 6.1-5.4C159 122.2 160.4 123.1 160.4 124.5z"/>
    <path class="st1" d="M206.4 77.2v16.5c0 3.9 0 3.9 3.4 4.2v1.7h-14.6v-1.7c2.5-0.3 2.5-0.3 2.5-4.2V76.9c0-2-0.9-4.1-3.6-4.1 -4.2 0-5.7 5.8-5.7 9.5v11.4c0 3.9 0 3.9 3.4 4.2v1.7h-15.5v-1.7c3.4-0.3 3.4-0.3 3.4-4.2V74.8c0-2.7-0.2-2.7-3.4-3v-1.7c3.9-0.6 7.3-1.1 9.1-1.1 2.2 0 2.9 0.4 2.9 2.9v4c1.7-5.5 5.6-7 9.6-7C203 68.9 206.4 71.5 206.4 77.2z"/>
    <path class="st1" d="M223.8 71.9v21.8c0 3.9 0 3.9 3.4 4.2v1.7h-15.5v-1.7c3.4-0.3 3.4-0.3 3.4-4.2V74.8c0-2.7-0.3-2.7-3.4-3v-1.7c3.8-0.6 7.3-1.1 9.1-1.1C223.1 68.9 223.8 69.4 223.8 71.9zM224.3 61.4c0 2.5-1.9 4.7-5.1 4.7s-5.1-2.2-5.1-4.7 1.9-4.8 5.1-4.8S224.3 58.8 224.3 61.4z"/>
    <path class="st1" d="M310.3 73c0 2.1-1.3 3.2-2.1 3.9l-1 0.3c-1.1-1.1-2.5-1.8-4.1-1.8 -2.5 0-5 2.8-5 7.5v10.8c0 3.9-0.1 3.9 5.7 4.2v1.7H286v-1.7c3.4-0.3 3.4-0.3 3.4-4.2v-19c0-2.7-0.2-2.7-3.4-3V70c4-0.6 7.6-1.1 9.5-1.1 1.8 0 2.6 0.5 2.6 3.1v5.6c1.6-6.7 4.5-8.7 7.7-8.7C308.7 68.9 310.3 70.7 310.3 73z"/>
    <path class="st1" d="M331.7 70.3c1.1 0.5 1.4 1.9 1.4 2.5l0.7 5.8h-1.7c-1.9-6.1-4.2-8.1-7.2-8.1 -2.5 0-4.4 1.5-4.4 4.2 0 6.6 14.6 5.2 14.6 15.7 0 5.4-4.5 9.8-12.8 9.8 -2.8 0-5.6-0.4-8.4-1.5 -1.2-0.5-1.6-1.3-1.8-2.6l-0.8-5.1h1.6c2.4 5.9 5 7.5 8.9 7.5 2.8 0 4.9-1.7 4.9-4.8 0-7.2-14.5-5.6-14.5-15.8 0-4.7 3.4-9 11.4-9C326.2 68.9 328.8 69.1 331.7 70.3z"/>
    <path class="st1" d="M349.5 71.9v21.8c0 3.9 0 3.9 3.4 4.2v1.7h-15.5v-1.7c3.4-0.3 3.4-0.3 3.4-4.2V74.8c0-2.7-0.3-2.7-3.4-3v-1.7c3.8-0.6 7.3-1.1 9.1-1.1C348.8 68.9 349.5 69.4 349.5 71.9zM350 61.4c0 2.5-1.9 4.7-5.1 4.7s-5.1-2.2-5.1-4.7 1.9-4.8 5.1-4.8C348.1 56.5 350 58.8 350 61.4z"/>
    <path class="st1" d="M248.2 69.5v1.6c0.7 0 1.3 0.1 1.8 0.2 2 0.4 1.7 1.2 1.3 2.5l-5.2 16.5 -6.2-16.4c-0.7-1.8-0.2-2.5 3.3-2.8v-1.6h-16.3v1.6c2.3 0.3 2.8 0.5 3.5 2.3l10.4 26.4h4.7l8.6-26.1c0.7-2 1-2.4 4.5-2.7v-1.6h-10.4V69.5z"/>
    <path class="st1" d="M283.6 80.6c0-8.7-6.3-11.7-12-11.7 -7.9 0-14.9 6.3-14.9 15.7 0 9.6 6.1 15.7 14.6 15.7 5.8 0 10.1-3.6 12-6.6l-0.8-1.1c-1.7 1.8-4.4 3.1-7.6 3.1 -3.6 0-8.6-1.8-9-11.6h17.5C283.6 82.5 283.6 81.5 283.6 80.6zM275.2 81.9h-9.3c0.1-7.6 1.9-11.4 5.4-11.4 2.9 0 4.4 2.6 4.4 7.6C275.7 79.5 275.5 80.7 275.2 81.9z"/>
    <path class="st1" d="M393.4 69.5v1.6c3.9 0.3 3.6 1 3.1 2.7l-5.1 15.8 -6.2-15.7c-0.7-1.8-0.2-2.5 3.3-2.8v-1.6h-11.8 -4.6 -5.8v-7.2h-2.2l-6.5 7.2L354 70v1.6h3.6v21.8c0 5.2 2.7 6.7 6.9 6.7 3.3 0 6.1-0.3 8.4-0.6v-1.7c-4.9 0-6.6-1-6.6-5.5V71.6h7.3c0.7 0 1.4 0.4 1.6 1.1l12.3 29.3c-1.4 3.8-4.5 5-6.2 5 -2.2 0-4.7-0.8-6.3-2.2l-0.5 0.5c0 2.5 1.3 6.4 5.7 6.4 3.9 0 7.2-2 10.5-11.7l8.6-26.1c0.7-2 1-2.4 4.5-2.7v-1.6h-10.4V69.5z"/>
    <path class="st1" d="M210.1 111.9v-1.6h-13.8 -0.7l-9 31.9 -9.5-31.9h-14v1.6c3.4 0.3 3.6 0.3 3.6 4.3v29.1c0 3.9-0.1 3.9-3.6 4.2v1.7h10.7v-1.7c-4.6-0.3-4-0.3-4-4.2v-26.6l9.9 32.4h7.2l10-35.3v29.5c0 3.9-0.1 3.9-3.6 4.2v1.7h16.8v-1.7c-3.6-0.3-3.6-0.3-3.6-4.2v-29.1C206.5 112.2 206.6 112.2 210.1 111.9z"/>
    <path class="st1" d="M236.5 129.9v15.8c0 2.6 0.1 3.6 3.4 3.9v1.7c-2.6 0.5-4.1 0.5-5.6 0.5 -4.2 0-6.2-1.3-6.5-5.7 -1.9 4.1-5 5.7-8.6 5.7 -4.4 0-7.8-2.6-7.8-7.4 0-6.4 6.1-8.7 16.4-10.1V128c0-3.1-1.1-5.6-4.2-5.6 -2.6 0-4 1.4-4 3.6 0 1 0.2 2.3 0.5 3.4l-0.6 0.6c-0.9 0.4-1.9 0.7-2.7 0.7 -2.2 0-3.9-1.5-3.9-3.8 0-3.7 4.8-6.4 11.6-6.4C233 120.6 236.5 124.1 236.5 129.9zM227.8 136c-4.2 0.8-7.2 2.4-7.2 6.7 0 3.1 1.6 4.4 3.3 4.4 2.8 0 4-3.3 4-7L227.8 136 227.8 136z"/>
    <path class="st1" d="M271.3 128.9v16.4c0 3.9 0 3.9 3.4 4.2v1.7h-14.6v-1.7c2.5-0.3 2.5-0.3 2.5-4.2v-16.8c0-2-0.9-4.1-3.6-4.1 -4.2 0-5.7 5.8-5.7 9.5v11.4c0 3.9 0 3.9 3.4 4.2v1.7h-15.5v-1.7c3.4-0.3 3.4-0.3 3.4-4.2v-18.9c0-2.7-0.2-2.7-3.4-3v-1.7c3.9-0.6 7.3-1.1 9.1-1.1 2.2 0 2.9 0.4 2.9 2.9v4c1.7-5.5 5.6-7 9.6-7C267.9 120.6 271.3 123.2 271.3 128.9z"/>
    <path class="st1" d="M288.5 123.6v21.8c0 3.9 0 3.9 3.4 4.2v1.7h-15.5v-1.7c3.4-0.3 3.4-0.3 3.4-4.2v-18.9c0-2.7-0.3-2.7-3.4-3v-1.7c3.8-0.6 7.3-1.1 9.1-1.1C287.8 120.6 288.5 121 288.5 123.6zM289 113c0 2.5-1.9 4.7-5.1 4.7s-5.1-2.2-5.1-4.7 1.9-4.8 5.1-4.8S289 110.5 289 113z"/>
    <path class="st1" d="M311.8 121.2v2.2h-6.7v20.7c0 4.6 1.7 5.5 6.6 5.5v1.7c-2.3 0.3-5.2 0.6-8.4 0.6 -4.2 0-6.9-1.4-6.9-6.7v-21.8h-3.6v-1.7l3.6-0.5 6.5-7.2h2.2v7.2H311.8z"/>
    <path class="st1" d="M341 136.2c0 9.5-6.2 15.7-14.7 15.7 -8.4 0-14.6-6.2-14.6-15.7s6.2-15.7 14.6-15.7C334.8 120.6 341 126.8 341 136.2zM320.9 136.2c0 10.1 1.6 14 5.4 14s5.4-3.9 5.4-14c0-10.2-1.6-14-5.4-14C322.6 122.2 320.9 126 320.9 136.2z"/>
    <path class="st1" d="M353.6 111.5v15.7c1.4-4.7 4.8-6.6 8.8-6.6 6.6 0 11.1 4.6 11.1 15.7 0 9-4.9 15.7-12.9 15.7 -2.7 0-4.9-0.4-6.9-1.8l-7 1.8H345v-37.6c0-2.6-0.3-2.6-3.4-3v-1.7c3.8-0.6 7.3-1.1 9.1-1.1C352.9 108.5 353.6 108.9 353.6 111.5zM353.6 133.9V148c1.4 1.2 2.9 1.8 4.5 1.8 4.2 0 6.1-3.4 6.1-13.7 0-10.1-2.9-11.7-5.3-11.7C356.2 124.5 353.6 126.9 353.6 133.9z"/>
    <path class="st1" d="M400.7 129.9v15.8c0 2.6 0.1 3.6 3.4 3.9v1.7c-2.6 0.5-4.1 0.5-5.6 0.5 -4.2 0-6.2-1.3-6.5-5.7 -1.9 4.1-5 5.7-8.6 5.7 -4.4 0-7.8-2.6-7.8-7.4 0-6.4 6.1-8.7 16.4-10.1V128c0-3.1-1.1-5.6-4.2-5.6 -2.6 0-4 1.4-4 3.6 0 1 0.2 2.3 0.5 3.4l-0.6 0.6c-0.9 0.4-1.9 0.7-2.7 0.7 -2.2 0-3.9-1.5-3.9-3.8 0-3.7 4.8-6.4 11.6-6.4C397.2 120.6 400.7 124.1 400.7 129.9zM392 136c-4.2 0.8-7.2 2.4-7.2 6.7 0 3.1 1.6 4.4 3.3 4.4 2.8 0 4-3.3 4-7L392 136 392 136z"/>
    <path class="st1" d="M171.6 64.5l-0.1 19.3c0 10.6-5.3 16.3-14.7 16.3 -10.9 0-18.2-6.1-18.2-16.4V64.4l0 0c0-4-0.1-4-3.6-4.3v-1.6h16.8v1.6c-3.5 0.3-3.6 0.3-3.6 4.3l0 0V84c0 8 3.9 12.3 10.1 12.3 7.2 0 10.1-4.9 10.1-12.5V64.4l0 0c0-4-1.8-4-5.3-4.3v-1.6h13.8v1.6C173.8 60.6 171.6 60.6 171.6 64.5L171.6 64.5z"/>
    <path class="st2" d="M4.3 144.5v3.2c0 9.5 5.2 18.2 13.8 23l35.3 19.8L77.3 177C71.8 155.9 20.3 152.2 4.3 144.5z"/>
    <path class="st1" d="M102.3 105.8c-3.8 6.8-10.5 10.6-17.2 12.8 -5.4 1.8-12.7 3.6-22.8 5.8 -19.8 4.3-41 9.7-52.1 15.8 6 2.8 14.5 5.1 23.5 7.4 20.4 5.3 43.5 11.4 47.5 27.1l7.4-4.2c8.5-4.8 13.7-13.6 13.7-23V105.8z"/>
    <path class="st1" d="M43.9 120.1c0.7-1.5 1.5-2.6 1.8-3.5 0.4-1 0.2-1.3-1.1-1.4 -3.1-0.3-4.6-0.6-6.6-1.1 0.5 1.2 2 5.9 0.2 8.6 1.3 2.4 5.8 6.1 8 7.8 1.9-0.4 4.2-0.8 6.1-1.2 -2.3-1.2-6.6-4.1-7.5-4.9C43.2 123 43 122 43.9 120.1z"/>
    <path class="st1" d="M87.5 84.1c0.9-0.5 1.9-1.1 2.9-1.7 -2.4 0.5-4.4-1.2-7.7-2.1 -2.8-0.8-5 0.4-6.2 2.4 -0.3 0.4-0.9 0.5-1.2 0.1 -5.9-6.5-13.5-6.2-19.9-0.6C47 89.5 41.1 93.1 36.5 95.5c-5.2 2.7-6.7 5.1-7.7 7.4 -1.8-1.1-3.3-0.8-4.2-0.2 -1.5 1-2.1 2.8-2.7 4.4 -1.1 2.9-4.2 7.9-7.7 8 4.7 1.6 6.9 0.5 8.4-2 1-1.8 0.8-4 1.2-6 0.3-1.8 1.9-3.9 4.3-2.3 -0.8 2.4-1.3 6.2-1 8.9 0.4 3.3 0.6 9.2-0.6 10.7 0.1 3.5-0.2 5.4-1.4 7.8 -0.9 1.8-1.4 3.8-1 5 1.4 0.1 3.5-1.9 5.1-2.4 -0.4-2-0.7-4.4 0-6.7 1.8-6.1 4.9-6.6 6.7-12.8 0.8-2.7 1.7-2.3 3.9-1.9 6.6 1.1 9.5 0.7 14.2-1.6 -0.5 3.8-0.1 10.2 5.4 13.3 2.1 1.2 2.1 1.6 3 1.4 0.5-0.1 4.4 0.3 2.8-1.5 -2.3-2.5-2.8-5.4-2.7-7.3 0-2.8 1.7-5.1 3.1-5.7 1.5 2.1 3.3 3.3 4.5 3.6 1 0.3 2.2 0.3 2.8 0.4 0.6 0 0.8 0.3 0.6 0.8 -0.4 1-1.6 1.6-2.1 2.3 -1.4 1.8-1 4.4 1.1 5.8 0.3-1.9 3-5.2 3.9-6.3 1.6-1.9 2.7-2.7 2-4.5 -0.7-1.6-1.8-3.6-4-5.9 -1.3 0-3.5 0.7-3.7 0.8 4-3.4 8.4-3.5 10.4-3 2.2 0.5 3.6 2 3.4 4.1 1.5-1.6 2.4-4.6 2.6-7.5 1.1-0.5 2-1 2.3-1.4 0.3-0.3 0.5-0.9 0.5-1.7 0-2.6 1.6-6.1 1.6-8.4C91.4 87.7 89.6 85.4 87.5 84.1z"/>
    <path class="st0" d="M86.9 93.3c0 0 0-1.2-0.3-1.5s-0.8-0.3-1.1 0 -0.3 0.8 0 1.2C85.8 93.3 86.9 93.3 86.9 93.3z"/>
    <path class="st0" d="M81.7 83.1c0.3-0.2 0.6-0.4 0.9-0.6 0 0-0.2 0.2-0.4 0.6 -0.6 1.1-1.8 3.5 0 5.7 0.9 1-0.3 1.8-1.5 1.2C80 89.6 77.5 86.2 81.7 83.1z"/>
    <path class="st2" d="M91 141.6c-4.9-6.1-7.9-8-6.7-15.1 -2.9 2.9-5 5.6-4.9 10.8 0 4.9 5.4 9.6 7.5 14.3 1.1 2.3 1.2 4.7 0.3 7 0.2-2-1.4-3.9-2.9-5.3 -2.1-1.8-2.9-2-5-4.8 -1.1-1.5-1.9-3.6-1.6-6.5 -1.2 2.5-2.3 5.9-2.2 7.8 0 8.9 10.1 8 8.3 13.4 8.8-3.2 11-9.2 10.9-12.8S93.1 144.1 91 141.6z"/>
    <path class="st3" d="M102.3 51c-2.1-3.9-11-8.5-21.8-13.7 -10.8-5.1-27.2-12.9-27.2-12.9 -4.4-2.1-7.1-6.5-7.1-11.3V7.2c0.9 0.7 2.3 1.4 4.3 2.3s44.2 20.9 44.2 20.9c4.7 2.2 7.6 7.1 7.6 12.2V51z"/>
    <path class="st4" d="M22.4 14.2v12c0 5 2.9 9.6 7.4 11.8 0 0 34.6 16.4 45.4 21.5 10.4 4.9 23.2 12.7 27.1 20.5V63.1c0-7.5-4.3-12.4-11.1-15.6 0 0-62.1-29.4-64-30.4C25.2 16.1 23.5 15.2 22.4 14.2z"/>
    <path class="st4" d="M43.4 70.6c0 0-36.5-17.3-37.2-17.6s-1.4-0.9-1.9-1.4v49.2c3.6-7.3 9.1-11.2 19.7-13.9 7.8-2 15.3-3.9 18.7-4.8C48.8 79.9 48.5 73.1 43.4 70.6z"/>
    <path class="st3" d="M47.3 55.4C35.3 49.7 16 40.5 12 38.6s-6.4-3.9-7.6-6.5v9.6c0 3.2 1.9 6.2 4.8 7.6l35.1 16.6c2.2 1 5.9 3.6 5.9 8.5 0 2.5-1.2 4.6-2.4 6C57.6 75.5 59.3 61.1 47.3 55.4z"/>
</svg>