<svg xmlns="http://www.w3.org/2000/svg" id="ae-d-route-3" width="24" height="24" viewBox="0 0 24 24"><g><path d="M0,0 H24 V24 H0 Z" fill="none"/><path d="M19.505,6.809a.053.053,0,0,1,.011-.105h2.906A.575.575,0,0,0,23,6.132V1.575A.576.576,0,0,0,22.422,1H19.578A.576.576,0,0,0,19,1.575V3.287a.575.575,0,0,1-.578.572h-.844A.575.575,0,0,1,17,3.287V1.575A.576.576,0,0,0,16.422,1H13.578A.576.576,0,0,0,13,1.575V3.287a.575.575,0,0,1-.578.572h-.844A.575.575,0,0,1,11,3.287V1.575A.576.576,0,0,0,10.422,1H7.578A.576.576,0,0,0,7,1.575V3.287a.575.575,0,0,1-.578.572H5.578A.575.575,0,0,1,5,3.287V1.575A.576.576,0,0,0,4.422,1H1.578A.576.576,0,0,0,1,1.575V6.132a.575.575,0,0,0,.578.572H4.435a.053.053,0,0,1,.011.105A5.064,5.064,0,0,0,1,11.5v5.928A.575.575,0,0,0,1.578,18H22.372a.575.575,0,0,0,.579-.572S23,14,23,11.5A4.868,4.868,0,0,0,19.505,6.809Z" fill="none" stroke="hsl(50, 100%, 70%)" stroke-linejoin="round" stroke-miterlimit="4px" stroke-width="2"/><path d="M19.505,6.809a.053.053,0,0,1,.011-.105h2.906A.575.575,0,0,0,23,6.132V1.575A.576.576,0,0,0,22.422,1H19.578A.576.576,0,0,0,19,1.575V3.287a.575.575,0,0,1-.578.572h-.844A.575.575,0,0,1,17,3.287V1.575A.576.576,0,0,0,16.422,1H13.578A.576.576,0,0,0,13,1.575V3.287a.575.575,0,0,1-.578.572h-.844A.575.575,0,0,1,11,3.287V1.575A.576.576,0,0,0,10.422,1H7.578A.576.576,0,0,0,7,1.575V3.287a.575.575,0,0,1-.578.572H5.578A.575.575,0,0,1,5,3.287V1.575A.576.576,0,0,0,4.422,1H1.578A.576.576,0,0,0,1,1.575V6.132a.575.575,0,0,0,.578.572H4.435a.053.053,0,0,1,.011.105A5.064,5.064,0,0,0,1,11.5v5.928A.575.575,0,0,0,1.578,18H22.372a.575.575,0,0,0,.579-.572S23,14,23,11.5A4.868,4.868,0,0,0,19.505,6.809Z" fill="hsl(140, 74%, 37%)"/><path d="M0,9 H24 V15 H0 Z" fill="none" id="mapbox-text-placeholder"/></g></svg>