<svg xmlns="http://www.w3.org/2000/svg" id="ae-d-route-4" width="30" height="24" viewBox="0 0 30 24"><g><path d="M0,0 H30 V24 H0 Z" fill="none"/><path d="M25.488,6.771c-.067-.024-.059-.113.012-.113h2.912A.578.578,0,0,0,29,6.09V1.569A.578.578,0,0,0,28.412,1H25.588A.578.578,0,0,0,25,1.569v1.7a.578.578,0,0,1-.588.568h-.824A.578.578,0,0,1,23,3.268v-1.7A.578.578,0,0,0,22.412,1H19.588A.578.578,0,0,0,19,1.569v1.7a.578.578,0,0,1-.588.568h-.824A.578.578,0,0,1,17,3.268v-1.7A.578.578,0,0,0,16.412,1H13.588A.578.578,0,0,0,13,1.569v1.7a.578.578,0,0,1-.588.568h-.825A.578.578,0,0,1,11,3.269V1.57A.578.578,0,0,0,10.411,1H7.6a.578.578,0,0,0-.588.568v1.7a.579.579,0,0,1-.589.568H5.588A.578.578,0,0,1,5,3.268v-1.7A.578.578,0,0,0,4.412,1H1.6a.578.578,0,0,0-.588.568V6.09a.578.578,0,0,0,.588.568H4.5c.071,0,.079.089.012.113a4.75,4.75,0,0,0-3.5,4.659v5.5A.578.578,0,0,0,1.6,17.5H28.412A.578.578,0,0,0,29,16.932v-5.5A4.764,4.764,0,0,0,25.488,6.771Z" fill="none" stroke="hsl(50, 100%, 70%)" stroke-linejoin="round" stroke-miterlimit="4px" stroke-width="2"/><path d="M25.488,6.771c-.067-.024-.059-.113.012-.113h2.912A.578.578,0,0,0,29,6.09V1.569A.578.578,0,0,0,28.412,1H25.588A.578.578,0,0,0,25,1.569v1.7a.578.578,0,0,1-.588.568h-.824A.578.578,0,0,1,23,3.268v-1.7A.578.578,0,0,0,22.412,1H19.588A.578.578,0,0,0,19,1.569v1.7a.578.578,0,0,1-.588.568h-.824A.578.578,0,0,1,17,3.268v-1.7A.578.578,0,0,0,16.412,1H13.588A.578.578,0,0,0,13,1.569v1.7a.578.578,0,0,1-.588.568h-.825A.578.578,0,0,1,11,3.269V1.57A.578.578,0,0,0,10.411,1H7.6a.578.578,0,0,0-.588.568v1.7a.579.579,0,0,1-.589.568H5.588A.578.578,0,0,1,5,3.268v-1.7A.578.578,0,0,0,4.412,1H1.6a.578.578,0,0,0-.588.568V6.09a.578.578,0,0,0,.588.568H4.5c.071,0,.079.089.012.113a4.75,4.75,0,0,0-3.5,4.659v5.5A.578.578,0,0,0,1.6,17.5H28.412A.578.578,0,0,0,29,16.932v-5.5A4.764,4.764,0,0,0,25.488,6.771Z" fill="hsl(140, 74%, 37%)"/><path d="M0,9 H30 V15 H0 Z" fill="none" id="mapbox-text-placeholder"/></g></svg>