<svg xmlns="http://www.w3.org/2000/svg" id="ae-f-route-3" width="24" height="27" viewBox="0 0 24 27"><g><path d="M0,0.002 H24 V26.997 H0 Z" fill="none"/><path d="M22.39,1a.606.606,0,0,1,.61.6V17.883a.606.606,0,0,1-.61.6H1.61a.606.606,0,0,1-.61-.6V5.4a.606.606,0,0,1,.61-.6H4.042a.606.606,0,0,1,.61.6V7.2a.605.605,0,0,0,.61.6H6.477a.605.605,0,0,0,.61-.6V5.4a.606.606,0,0,1,.61-.6h2.432a.606.606,0,0,1,.61.6V7.2a.605.605,0,0,0,.61.6h1.3a.605.605,0,0,0,.61-.6V1.6a.606.606,0,0,1,.61-.6H16.3a.606.606,0,0,1,.61.6V3.4a.605.605,0,0,0,.61.6h1.215a.605.605,0,0,0,.61-.6V1.6a.606.606,0,0,1,.61-.6H22.39m0-1H19.958a1.608,1.608,0,0,0-1.61,1.6V3h-.435V1.6A1.608,1.608,0,0,0,16.3,0H13.871a1.608,1.608,0,0,0-1.61,1.6V6.8h-.522V5.4a1.608,1.608,0,0,0-1.61-1.6H7.7a1.608,1.608,0,0,0-1.61,1.6V6.8H5.652V5.4a1.608,1.608,0,0,0-1.61-1.6H1.61A1.608,1.608,0,0,0,0,5.4V17.883a1.608,1.608,0,0,0,1.61,1.6H22.39a1.608,1.608,0,0,0,1.61-1.6V1.6A1.608,1.608,0,0,0,22.39,0Z" fill="hsl(50, 100%, 70%)"/><path d="M19.348,1.6V3.4a.605.605,0,0,1-.61.6H17.523a.605.605,0,0,1-.61-.6V1.6A.606.606,0,0,0,16.3,1H13.871a.606.606,0,0,0-.61.6V7.2a.605.605,0,0,1-.61.6h-1.3a.605.605,0,0,1-.61-.6V5.4a.606.606,0,0,0-.61-.6H7.7a.606.606,0,0,0-.61.6V7.2a.605.605,0,0,1-.61.6H5.262a.605.605,0,0,1-.61-.6V5.4a.606.606,0,0,0-.61-.6H1.61A.606.606,0,0,0,1,5.4V17.883a.606.606,0,0,0,.61.6H22.39a.606.606,0,0,0,.61-.6V1.6a.606.606,0,0,0-.61-.6H19.958A.606.606,0,0,0,19.348,1.6Z" fill="hsl(140, 74%, 37%)"/><path d="M0,10.5 H24 V16.5 H0 Z" fill="none" id="mapbox-text-placeholder"/></g></svg>