<svg xmlns="http://www.w3.org/2000/svg" id="ae-national-3" width="26" height="25" viewBox="0 0 26 25"><g><path d="M0.001,-0.002 H25.999000000000002 V25 H0.001 Z" fill="none"/><path d="M13.049,1a2.247,2.247,0,0,1,1.452.5,3.4,3.4,0,0,1,.883,2.355c0,1.212.937,1.819,2.152,1.819.113,0,.23-.006.348-.016,0,0,1.986-.143,2.247-.153.365-.014.976-.052,1.617-.052a4.116,4.116,0,0,1,2.307.43A2.848,2.848,0,0,1,25,7.977v2.077a.064.064,0,0,1-.065.063h-.253a.5.5,0,0,0-.507.646l.795,2.19a.063.063,0,0,1-.061.083h-.227a.5.5,0,0,0-.507.646l.795,2.191a.063.063,0,0,1-.061.083h-.456a.621.621,0,0,0-.507.646l-.005,2.267-8.122,1.338a9.135,9.135,0,0,1-4.636,0L2.06,18.869V16.6c0-.365-.17-.646-.535-.646H1.091a.062.062,0,0,1-.06-.083l.8-2.191a.5.5,0,0,0-.507-.646H1.091a.062.062,0,0,1-.06-.082l.8-2.191a.5.5,0,0,0-.507-.646H1.065A.063.063,0,0,1,1,10.055V7.977a2.848,2.848,0,0,1,.945-2.1c.381-.35,1.729-.43,2.95-.43.839,0,1.617.038,1.981.052.262.01,2.241.153,2.241.153.1.007.21.011.317.011a2.1,2.1,0,0,0,2.033-.978c.151-.322.014-1.125-.425-1.186L9.259,3.222C9.148,3.2,9.16,3.1,9.21,3c.381-.772,1.994-1.484,2.613-1.771A3.7,3.7,0,0,1,13.049,1m0-1h0a4.7,4.7,0,0,0-1.561.29A.911.911,0,0,0,11.4.325l-.1.045C10.021.961,8.77,1.636,8.313,2.56A1.16,1.16,0,0,0,8.3,3.634,1.092,1.092,0,0,0,9.1,4.21l1.337.21a1.809,1.809,0,0,1-1,.247q-.124,0-.246-.009c-.2-.014-2-.144-2.273-.154L6.736,4.5c-.412-.017-1.1-.046-1.84-.046-2.524,0-3.235.334-3.627.694A3.866,3.866,0,0,0,0,7.977v2.078a1.065,1.065,0,0,0,.661.983L.091,12.613a1.059,1.059,0,0,0,.575,1.334L.091,15.532a1.061,1.061,0,0,0,.968,1.423V18.87a1,1,0,0,0,.855.989l9.069,1.33a10.156,10.156,0,0,0,5.043,0L24.1,19.856a1,1,0,0,0,.838-.984l0-1.917a1.063,1.063,0,0,0,.965-1.423l-.575-1.585a1.061,1.061,0,0,0,.575-1.335l-.571-1.575A1.063,1.063,0,0,0,26,10.054V7.977a3.866,3.866,0,0,0-1.268-2.832c-.529-.486-1.422-.694-2.984-.694-.505,0-.992.023-1.362.04l-.293.013c-.27.01-2.076.14-2.281.154-.106.01-.192.014-.276.014-.756,0-1.144-.27-1.152-.8A4.337,4.337,0,0,0,15.208.791a1.027,1.027,0,0,0-.078-.07A3.225,3.225,0,0,0,13.049,0Z" fill="hsl(0, 0%, 100%)"/><path d="M24.682,10.11h.253A.063.063,0,0,0,25,10.048V7.971a2.848,2.848,0,0,0-.945-2.1c-.642-.59-3.028-.412-3.924-.378-.261.01-2.247.153-2.247.153-1.379.124-2.5-.477-2.5-1.8A3.4,3.4,0,0,0,14.5,1.492a2.668,2.668,0,0,0-2.678-.266C11.2,1.513,9.591,2.225,9.21,3c-.05.1-.062.2.049.219l1.784.281c.439.061.576.864.425,1.186a2.282,2.282,0,0,1-2.35.967S7.139,5.507,6.877,5.5c-.895-.034-4.289-.212-4.931.378A2.848,2.848,0,0,0,1,7.971v2.078a.063.063,0,0,0,.064.061h.254a.5.5,0,0,1,.507.647l-.8,2.191a.062.062,0,0,0,.06.082h.228a.5.5,0,0,1,.507.646l-.8,2.191a.062.062,0,0,0,.06.083h.433c.365,0,.535.28.535.646v2.267L11.183,20.2a9.127,9.127,0,0,0,4.636,0l8.122-1.338.005-2.267a.621.621,0,0,1,.507-.646h.456a.063.063,0,0,0,.061-.083l-.795-2.191a.5.5,0,0,1,.507-.646h.227a.063.063,0,0,0,.061-.083l-.795-2.19A.5.5,0,0,1,24.682,10.11Z" fill="hsl(230, 57%, 54%)"/><path d="M0,9.5 H26 V15.5 H0 Z" fill="none" id="mapbox-text-placeholder"/></g></svg>