<svg xmlns="http://www.w3.org/2000/svg" id="ae-national-4" width="32" height="25" viewBox="0 0 32 25"><g><path d="M0,0 H32 V25.003 H0 Z" fill="none"/><path d="M16.049,1a2.242,2.242,0,0,1,1.452.5,3.39,3.39,0,0,1,.883,2.354c0,1.213.937,1.819,2.152,1.819.113,0,.23,0,.348-.016,0,0,1.986-.142,2.247-.152.365-.014,1.473-.052,2.7-.052,1.792,0,3.84.08,4.221.43A2.844,2.844,0,0,1,31,7.978v2.078a.063.063,0,0,1-.064.062h-.254a.5.5,0,0,0-.507.646l.795,2.191a.063.063,0,0,1-.061.083h-.227a.5.5,0,0,0-.507.646l.795,2.19a.062.062,0,0,1-.061.083l-.461,0c-.365,0-.507.283-.507.646v2.27L18.819,20.209a9.135,9.135,0,0,1-4.636,0L2.059,18.871,2.054,16.6c0-.444-.128-.608-.507-.647H1.09a.062.062,0,0,1-.06-.082l.8-2.191a.5.5,0,0,0-.507-.646H1.09a.062.062,0,0,1-.06-.083l.8-2.191a.5.5,0,0,0-.507-.646H1.064A.063.063,0,0,1,1,10.056V7.978a2.844,2.844,0,0,1,.945-2.095c.381-.35,2.784-.43,4.864-.43,1.428,0,2.7.038,3.069.052.261.01,2.24.152,2.24.152.1.008.21.012.317.012a2.1,2.1,0,0,0,2.033-.979c.151-.321.014-1.124-.425-1.185l-1.784-.281c-.111-.018-.1-.119-.049-.219.382-.773,1.994-1.485,2.613-1.771A3.7,3.7,0,0,1,16.049,1m0-1h0a4.7,4.7,0,0,0-1.561.289c-.029.011-.057.022-.086.035l-.1.045c-1.284.592-2.535,1.267-2.992,2.191A1.161,1.161,0,0,0,11.3,3.636a1.089,1.089,0,0,0,.807.575l1.337.211a1.817,1.817,0,0,1-1,.247c-.083,0-.165,0-.245-.009-.2-.015-2-.144-2.274-.155-.38-.014-1.68-.052-3.107-.052-4.786,0-5.222.4-5.541.693A3.87,3.87,0,0,0,0,7.978v2.078a1.064,1.064,0,0,0,.661.983L.09,12.614a1.061,1.061,0,0,0,.575,1.335L.09,15.534a1.062,1.062,0,0,0,.965,1.423l0,1.916a1,1,0,0,0,.891.992L14,21.2a10.137,10.137,0,0,0,5,0l11.055-1.33a1,1,0,0,0,.881-.993V16.957a1.063,1.063,0,0,0,.969-1.424l-.575-1.584a1.064,1.064,0,0,0,.575-1.336l-.571-1.574A1.065,1.065,0,0,0,32,10.056V7.978a3.87,3.87,0,0,0-1.268-2.832c-.382-.351-1.075-.693-4.9-.693-1.274,0-2.42.04-2.741.052-.27.011-2.076.14-2.281.155-.106.009-.192.013-.276.013-.756,0-1.144-.27-1.151-.8A4.345,4.345,0,0,0,18.208.792a.881.881,0,0,0-.078-.07A3.222,3.222,0,0,0,16.049,0Z" fill="hsl(0, 0%, 100%)"/><path d="M30.682,10.113h.254A.063.063,0,0,0,31,10.051V7.974a2.848,2.848,0,0,0-.945-2.1c-.642-.59-6.028-.412-6.924-.378-.261.01-2.247.153-2.247.153-1.379.124-2.5-.477-2.5-1.8A3.393,3.393,0,0,0,17.5,1.5a2.668,2.668,0,0,0-2.678-.266c-.619.287-2.231,1-2.613,1.771-.05.1-.062.2.049.219l1.784.281c.439.061.576.864.425,1.186a2.282,2.282,0,0,1-2.35.967S10.139,5.51,9.878,5.5c-.9-.034-7.291-.212-7.933.378A2.848,2.848,0,0,0,1,7.974v2.078a.063.063,0,0,0,.064.061h.254a.5.5,0,0,1,.507.647L1.03,12.951a.062.062,0,0,0,.06.082h.228a.5.5,0,0,1,.507.646L1.03,15.87a.062.062,0,0,0,.06.083h.457c.379.038.507.2.507.646l.005,2.267L14.183,20.2a9.127,9.127,0,0,0,4.636,0l11.122-1.338V16.6c0-.364.142-.647.507-.647l.461,0a.063.063,0,0,0,.061-.083l-.795-2.191a.5.5,0,0,1,.507-.646h.227a.062.062,0,0,0,.061-.083l-.795-2.19A.5.5,0,0,1,30.682,10.113Z" fill="hsl(230, 57%, 54%)"/><path d="M0,9.5 H32 V15.5 H0 Z" fill="none" id="mapbox-text-placeholder"/></g></svg>