<svg xmlns="http://www.w3.org/2000/svg" id="ae-s-route-4" width="38" height="26" viewBox="0 0 38 26"><g><path d="M0,0 H38 V26 H0 Z" fill="none"/><path d="M32.665,16.577l4.152-3.207a.466.466,0,0,0,0-.74L32.665,9.423a.466.466,0,0,1-.184-.37V5.981A.477.477,0,0,0,32,5.509H25.8a.492.492,0,0,1-.3-.1L19.3,1.6a.492.492,0,0,0-.6,0L12.5,5.408a.492.492,0,0,1-.3.1H6a.477.477,0,0,0-.482.472V9.053a.466.466,0,0,1-.184.37L1.183,12.63a.466.466,0,0,0,0,.74l4.152,3.207a.466.466,0,0,1,.184.37v3.072A.477.477,0,0,0,6,20.491h6.2a.492.492,0,0,1,.3.1L18.7,24.4a.492.492,0,0,0,.6,0l6.2-3.807a.492.492,0,0,1,.3-.1H32a.477.477,0,0,0,.482-.472V16.947A.466.466,0,0,1,32.665,16.577Z" fill="none" stroke="hsl(0, 0%, 100%)" stroke-linejoin="round" stroke-miterlimit="4px" stroke-width="2"/><path d="M32.665,16.577l4.152-3.207a.466.466,0,0,0,0-.74L32.665,9.423a.466.466,0,0,1-.184-.37V5.981A.477.477,0,0,0,32,5.509H25.8a.492.492,0,0,1-.3-.1L19.3,1.6a.492.492,0,0,0-.6,0L12.5,5.408a.492.492,0,0,1-.3.1H6a.477.477,0,0,0-.482.472V9.053a.466.466,0,0,1-.184.37L1.183,12.63a.466.466,0,0,0,0,.74l4.152,3.207a.466.466,0,0,1,.184.37v3.072A.477.477,0,0,0,6,20.491h6.2a.492.492,0,0,1,.3.1L18.7,24.4a.492.492,0,0,0,.6,0l6.2-3.807a.492.492,0,0,1,.3-.1H32a.477.477,0,0,0,.482-.472V16.947A.466.466,0,0,1,32.665,16.577Z" fill="hsl(140, 74%, 37%)"/><path d="M0,10 H38 V16 H0 Z" fill="none" id="mapbox-text-placeholder"/></g></svg>