<svg xmlns="http://www.w3.org/2000/svg" id="ar-national-2" width="20" height="20" viewBox="0 0 20 20"><g><path d="M0,0 H20 V20 H0 Z" fill="none"/><path d="M1,3V13a2.951,2.951,0,0,0,2,3c1.632.744,7,3,7,3s5.368-2.256,7-3a2.951,2.951,0,0,0,2-3V3Z" fill="none" stroke="hsl(230, 18%, 13%)" stroke-linejoin="round" stroke-miterlimit="4px" stroke-width="2"/><path d="M1,3V13a2.951,2.951,0,0,0,2,3c1.632.744,7,3,7,3s5.368-2.256,7-3a2.951,2.951,0,0,0,2-3V3Z" fill="hsl(0, 0%, 100%)"/><path d="M0,7 H20 V13 H0 Z" fill="none" id="mapbox-text-placeholder"/></g></svg>