<svg xmlns="http://www.w3.org/2000/svg" id="au-national-route-6" width="43" height="20" viewBox="0 0 43 20"><g><path d="M0,0 H43 V20 H0 Z" fill="none"/><path d="M1.132,3V13A3,3,0,0,0,3.4,16c1.847.744,18.105,3,18.105,3s16.258-2.256,18.1-3a3,3,0,0,0,2.263-3V3Z" fill="none" stroke="hsl(230, 18%, 13%)" stroke-linejoin="round" stroke-miterlimit="4px" stroke-width="2"/><path d="M1.132,3V13A3,3,0,0,0,3.4,16c1.847.744,18.105,3,18.105,3s16.258-2.256,18.1-3a3,3,0,0,0,2.263-3V3Z" fill="hsl(0, 0%, 100%)"/><path d="M0,7 H43 V13 H0 Z" fill="none" id="mapbox-text-placeholder"/></g></svg>