<svg xmlns="http://www.w3.org/2000/svg" id="au-state-5" width="34" height="20" viewBox="0 0 34 20"><g><path d="M0,0 H34 V20 H0 Z" fill="none"/><path d="M4.048,3C2.619,4,1,6.062,1,10c0,6.042,13.714,8.542,16.762,9C20.81,18.5,33,16,33,10c0-3.938-1.524-6-3.048-7Z" fill="none" stroke="hsl(0, 0%, 100%)" stroke-linejoin="round" stroke-miterlimit="4px" stroke-width="2"/><path d="M4.048,3C2.619,4,1,6.062,1,10c0,6.042,13.714,8.542,16.762,9C20.81,18.5,33,16,33,10c0-3.938-1.524-6-3.048-7Z" fill="hsl(230, 57%, 54%)"/><path d="M0,7 H34 V13 H0 Z" fill="none" id="mapbox-text-placeholder"/></g></svg>