<svg xmlns="http://www.w3.org/2000/svg" id="au-state-3" width="23" height="20" viewBox="0 0 23 20"><g><path d="M0,0 H23 V20 H0 Z" fill="none"/><path d="M3,3c-.938,1-2,3.062-2,7,0,6.042,9,8.542,11,9,2-.5,10-3,10-9,0-3.938-1-6-2-7Z" fill="none" stroke="hsl(0, 0%, 100%)" stroke-linejoin="round" stroke-miterlimit="4px" stroke-width="2"/><path d="M3,3c-.938,1-2,3.062-2,7,0,6.042,9,8.542,11,9,2-.5,10-3,10-9,0-3.938-1-6-2-7Z" fill="hsl(230, 57%, 54%)"/><path d="M0,7 H23 V13 H0 Z" fill="none" id="mapbox-text-placeholder"/></g></svg>