<svg xmlns="http://www.w3.org/2000/svg" id="au-state-6" width="39" height="20" viewBox="0 0 39 20"><g><path d="M0,0 H39 V20 H0 Z" fill="none"/><path d="M4.524,3C2.872,4,1,6.062,1,10c0,6.042,15.857,8.542,19.381,9C23.905,18.5,38,16,38,10c0-3.938-1.762-6-3.524-7Z" fill="none" stroke="hsl(0, 0%, 100%)" stroke-linejoin="round" stroke-miterlimit="4px" stroke-width="2"/><path d="M4.524,3C2.872,4,1,6.062,1,10c0,6.042,15.857,8.542,19.381,9C23.905,18.5,38,16,38,10c0-3.938-1.762-6-3.524-7Z" fill="hsl(230, 57%, 54%)"/><path d="M0,7 H39 V13 H0 Z" fill="none" id="mapbox-text-placeholder"/></g></svg>