<svg xmlns="http://www.w3.org/2000/svg" id="au-state-4" width="29" height="20" viewBox="0 0 29 20"><g><path d="M0,0 H29 V20 H0 Z" fill="none"/><path d="M3.571,3C2.366,4,1,6.062,1,10c0,6.042,11.571,8.542,14.143,9C17.714,18.5,28,16,28,10c0-3.938-1.286-6-2.571-7Z" fill="none" stroke="hsl(0, 0%, 100%)" stroke-linejoin="round" stroke-miterlimit="4px" stroke-width="2"/><path d="M3.571,3C2.366,4,1,6.062,1,10c0,6.042,11.571,8.542,14.143,9C17.714,18.5,28,16,28,10c0-3.938-1.286-6-2.571-7Z" fill="hsl(230, 57%, 54%)"/><path d="M0,7 H29 V13 H0 Z" fill="none" id="mapbox-text-placeholder"/></g></svg>