<svg xmlns="http://www.w3.org/2000/svg" id="au-tourist-3" width="28" height="21" viewBox="0 0 28 21"><g><path d="M0,0 H28 V21 H0 Z" fill="none"/><path d="M5.753,18.358,1.359,6.934a1,1,0,0,1,.575-1.293l11.707-4.5a1,1,0,0,1,.718,0l11.707,4.5a1,1,0,0,1,.575,1.293L22.247,18.358a1,1,0,0,1-.935.642H6.688A1,1,0,0,1,5.753,18.358Z" fill="none" stroke="hsl(0, 0%, 100%)" stroke-linejoin="round" stroke-miterlimit="4px" stroke-width="2"/><path d="M5.753,18.358,1.359,6.934a1,1,0,0,1,.575-1.293l11.707-4.5a1,1,0,0,1,.718,0l11.707,4.5a1,1,0,0,1,.575,1.293L22.247,18.358a1,1,0,0,1-.935.642H6.688A1,1,0,0,1,5.753,18.358Z" fill="hsl(25, 34%, 34%)"/><path d="M0,7.5 H28 V13.5 H0 Z" fill="none" id="mapbox-text-placeholder"/></g></svg>