<svg xmlns="http://www.w3.org/2000/svg" id="au-tourist-2" width="20" height="21" viewBox="0 0 20 21"><g><path d="M0,0 H20 V21 H0 Z" fill="none"/><path d="M4.977,18.293,1.433,6.776A1,1,0,0,1,1.9,5.606l7.8-4.336a1,1,0,0,1,.972,0l7.805,4.336a1,1,0,0,1,.471,1.17L15.412,18.293a1,1,0,0,1-.957.707H5.934A1,1,0,0,1,4.977,18.293Z" fill="none" stroke="hsl(0, 0%, 100%)" stroke-linejoin="round" stroke-miterlimit="4px" stroke-width="2"/><path d="M4.977,18.293,1.433,6.776A1,1,0,0,1,1.9,5.606l7.8-4.336a1,1,0,0,1,.972,0l7.805,4.336a1,1,0,0,1,.471,1.17L15.412,18.293a1,1,0,0,1-.957.707H5.934A1,1,0,0,1,4.977,18.293Z" fill="hsl(25, 34%, 34%)"/><path d="M0,7.5 H20 V13.5 H0 Z" fill="none" id="mapbox-text-placeholder"/></g></svg>