<svg xmlns="http://www.w3.org/2000/svg" id="bakery" width="21" height="21" viewBox="0 0 21 21"><g><path d="M0,0 H21 V21 H0 Z" fill="none"/><path d="M8.294 7.382L9 12.5a0.979 0.979 0 0 0 1 1h1a0.979 0.979 0 0 0 1-1l0.706-5.118C12.706 6 10.5 6 10.5 6S8.291 6 8.294 7.382zM6.5 8C5 8 5 9 5 9l1 4h1.5a0.793 0.793 0 0 0 0.794-0.765L7.5 8z m-2 2.5a1.533 1.533 0 0 0-1.059 0.412A1.366 1.366 0 0 0 3 11.794V14h0.882A1.02 1.02 0 0 0 5 13z m10-2.5C16 8 16 9 16 9l-1 4h-1.5a0.793 0.793 0 0 1-0.794-0.765L13.5 8z m2 2.5a1.533 1.533 0 0 1 1.059 0.412 1.366 1.366 0 0 1 0.441 0.882V14h-0.882A1.02 1.02 0 0 1 16 13z" fill="hsl(20, 2%, 55%)" stroke="hsl(175, 5%, 100%)" stroke-linejoin="round" stroke-miterlimit="4px" stroke-width="2"/><path d="M8.294 7.382L9 12.5a0.979 0.979 0 0 0 1 1h1a0.979 0.979 0 0 0 1-1l0.706-5.118C12.706 6 10.5 6 10.5 6S8.291 6 8.294 7.382zM6.5 8C5 8 5 9 5 9l1 4h1.5a0.793 0.793 0 0 0 0.794-0.765L7.5 8z m-2 2.5a1.533 1.533 0 0 0-1.059 0.412A1.366 1.366 0 0 0 3 11.794V14h0.882A1.02 1.02 0 0 0 5 13z m10-2.5C16 8 16 9 16 9l-1 4h-1.5a0.793 0.793 0 0 1-0.794-0.765L13.5 8z m2 2.5a1.533 1.533 0 0 1 1.059 0.412 1.366 1.366 0 0 1 0.441 0.882V14h-0.882A1.02 1.02 0 0 1 16 13z" fill="hsl(20, 2%, 55%)"/></g></svg>