<svg xmlns="http://www.w3.org/2000/svg" id="bicycle-share" width="21" height="21" viewBox="0 0 21 21"><g><path d="M2,1 H15 C15,1 16,1 16,2 V15 C16,15 16,16 15,16 H2 C2,16 1,16 1,15 V2 C1,2 1,1 2,1" fill="hsl(40, 3%, 70%)" stroke="hsl(175, 5%, 100%)" stroke-linejoin="round" stroke-miterlimit="4px" stroke-width="2"/><path d="M2,1 H15 C15,1 16,1 16,2 V15 C16,15 16,16 15,16 H2 C2,16 1,16 1,15 V2 C1,2 1,1 2,1" fill="hsl(40, 3%, 70%)"/><path d="M10.4 3.2a0.8 0.8 0 1 0 0 1.6 0.8 0.8 0 0 0 0-1.6zM8.916 4.795200000000001a0.4 0.4 0 0 0-0.2784 0.1144l-2.112 2a0.4 0.4 0 0 0 0.033600000000000005 0.6104L8 8.600000000000001v2.2c-0.008 0.5408000000000001 0.808 0.5408000000000001 0.8 0v-2.4000000000000004a0.4 0.4 0 0 0-0.16000000000000003-0.32000000000000006l-0.6136-0.4616 1.4544000000000001-1.3760000000000001 0.5992000000000001 0.7984A0.4 0.4 0 0 0 10.4 7.200000000000001h1.2000000000000002c0.5408000000000001 0.008 0.5408000000000001-0.808 0-0.8h-1L10 5.6000000000000005l-0.48-0.6400000000000001a0.4 0.4 0 0 0-0.30720000000000003-0.1648h-0.2968zM4.800000000000001 8a2.4000000000000004 2.4000000000000004 0 1 0 0 4.800000000000001 2.4000000000000004 2.4000000000000004 0 0 0 0-4.800000000000001z m7.2 0a2.4000000000000004 2.4000000000000004 0 1 0 0 4.800000000000001 2.4000000000000004 2.4000000000000004 0 0 0 0-4.800000000000001zM4.800000000000001 8.8a1.6 1.6 0 1 1 0 3.2 1.6 1.6 0 0 1 0-3.2z m7.2 0a1.6 1.6 0 1 1 0 3.2 1.6 1.6 0 0 1 0-3.2z" fill="hsl(175, 5%, 100%)"/></g></svg>