<svg xmlns="http://www.w3.org/2000/svg" id="bus" width="21" height="21" viewBox="0 0 21 21"><g><path d="M2,1 H15 C15,1 16,1 16,2 V15 C16,15 16,16 15,16 H2 C2,16 1,16 1,15 V2 C1,2 1,1 2,1" fill="hsl(40, 3%, 70%)" stroke="hsl(175, 5%, 100%)" stroke-linejoin="round" stroke-miterlimit="4px" stroke-width="2"/><path d="M2,1 H15 C15,1 16,1 16,2 V15 C16,15 16,16 15,16 H2 C2,16 1,16 1,15 V2 C1,2 1,1 2,1" fill="hsl(40, 3%, 70%)"/><path d="M5.6000000000000005 2.4000000000000004C4.508800000000001 2.4000000000000004 3.2 2.9944000000000006 3.2 4.5968V12.000000000000002s0 0.8 0.8 0.8v0.8s0 0.8 0.8 0.8 0.8-0.8 0.8-0.8v-0.8h5.6000000000000005v0.8s0 0.8 0.8 0.8 0.8-0.8 0.8-0.8v-0.8s0.8 0 0.8-0.8V4.5968C13.600000000000001 2.9608000000000003 12.6112 2.4000000000000004 11.520000000000001 2.4000000000000004H5.6000000000000005z m0.2 1.2000000000000002h5.2a0.2 0.2 0 1 1 0 0.4h-5.2a0.2 0.2 0 1 1 0-0.4zM4.800000000000001 4.800000000000001h7.2c0.8 0 0.8 0.7736000000000001 0.8 0.7736000000000001V8s0 0.8-0.8 0.8H4.800000000000001C4 8.8 4 8 4 8V5.6000000000000005s0-0.8 0.8-0.8z m0 5.6000000000000005a0.8 0.8 0 1 1 0 1.6 0.8 0.8 0 0 1 0-1.6z m7.2 0a0.8 0.8 0 1 1 0 1.6 0.8 0.8 0 0 1 0-1.6z" fill="hsl(175, 5%, 100%)"/></g></svg>