<svg xmlns="http://www.w3.org/2000/svg" id="ca-trans-canada-2" width="20" height="20" viewBox="0 0 20 20"><g><path d="M1,1 H19 V19 H1 Z" fill="none"/><path d="M3,1 H17 C17,1 19,1 19,3 V17 C19,17 19,19 17,19 H3 C3,19 1,19 1,17 V3 C1,3 1,1 3,1" fill="none" stroke="hsl(0, 0%, 100%)" stroke-linejoin="round" stroke-miterlimit="4px" stroke-width="2"/><path d="M3,1 H17 C17,1 19,1 19,3 V17 C19,17 19,19 17,19 H3 C3,19 1,19 1,17 V3 C1,3 1,1 3,1" fill="hsl(140, 74%, 37%)"/><path d="M16.734,7.259,16.535,5.427,14.034,5.733,13.199,3.806,11.773,4.28,10,2,8.227,4.28,6.801,3.806,5.983,5.689,3.502,5.252,3.241,7.242,1.5,7.602,2.827,10.249,2,11,4,13.5,4,15,7,14.5,6.5,16,9.671,14.5,9.342,18,10.658,18,10.329,14.5,13.5,16,13,14.5,16,15,16,13.5,18,11,17.173,10.249,18.5,7.602,16.734,7.259 Z" fill="hsl(0, 0%, 100%)"/><path d="M0,7 H20 V13 H0 Z" fill="none" id="mapbox-text-placeholder"/></g></svg>