<svg xmlns="http://www.w3.org/2000/svg" id="ca-trans-canada-3" width="32" height="20" viewBox="0 0 32 20"><g><path d="M1,1 H31 V19 H1 Z" fill="none"/><path d="M3,1 H29 C29,1 31,1 31,3 V17 C31,17 31,19 29,19 H3 C3,19 1,19 1,17 V3 C1,3 1,1 3,1" fill="none" stroke="hsl(0, 0%, 100%)" stroke-linejoin="round" stroke-miterlimit="4px" stroke-width="2"/><path d="M3,1 H29 C29,1 31,1 31,3 V17 C31,17 31,19 29,19 H3 C3,19 1,19 1,17 V3 C1,3 1,1 3,1" fill="hsl(140, 74%, 37%)"/><path d="M27.091,7.259,26.764,5.427,22.644,5.733,21.269,3.806,18.921,4.28,16,2,13.079,4.28,10.731,3.806,9.384,5.689,5.297,5.252,4.867,7.242,2,7.602,4.186,10.249,2.824,11,6.118,13.5,6.118,15,11.059,14.5,10.235,16,15.458,14.5,14.916,18,17.084,18,16.542,14.5,21.765,16,20.941,14.5,25.882,15,25.882,13.5,29.176,11,27.814,10.249,30,7.602,27.091,7.259 Z" fill="hsl(0, 0%, 100%)"/><path d="M0,7 H32 V13 H0 Z" fill="none" id="mapbox-text-placeholder"/></g></svg>