<svg xmlns="http://www.w3.org/2000/svg" id="car-rental" width="21" height="21" viewBox="0 0 21 21"><g><path d="M0,0 H21 V21 H0 Z" fill="none"/><path d="M15.6 11.7l-1.1-2.2a1.05 1.05 0 0 0-0.9-0.5H7.4a1.05 1.05 0 0 0-0.9 0.5L5.4 11.7 4.16 12.852a0.5 0.5 0 0 0-0.16 0.367V17.5a0.5 0.5 0 0 0 0.5 0.5h2c0.2 0 0.5-0.2 0.5-0.4V17h7v0.5c0 0.2 0.2 0.5 0.4 0.5h2.1a0.5 0.5 0 0 0 0.5-0.5v-4.281a0.5 0.5 0 0 0-0.16-0.367zM7.5 10h6l1 2h-8z m0.5 4.6c0 0.2-0.3 0.4-0.5 0.4H5.4c-0.2 0-0.4-0.3-0.4-0.5v-1.1c0.1-0.3 0.3-0.5 0.6-0.4l2 0.4c0.2 0 0.4 0.3 0.4 0.5z m8-0.1c0 0.2-0.2 0.5-0.4 0.5h-2.1c-0.2 0-0.5-0.2-0.5-0.4v-0.7c0-0.2 0.2-0.5 0.4-0.5l2-0.4c0.3-0.1 0.5 0.1 0.6 0.4zM16.5 3H14a1 1 0 0 0-1 1H5L4 5v1l1 1 1.5-1.5L8 7l1.5-1.5L11 7h2a1 1 0 0 0 1 1h2.5a0.5 0.5 0 0 0 0.5-0.5v-4a0.5 0.5 0 0 0-0.5-0.5zM16 6.5a0.5 0.5 0 0 1-1 0v-2a0.5 0.5 0 0 1 1 0z" fill="hsl(20, 2%, 55%)" stroke="hsl(175, 5%, 100%)" stroke-linejoin="round" stroke-miterlimit="4px" stroke-width="2"/><path d="M15.6 11.7l-1.1-2.2a1.05 1.05 0 0 0-0.9-0.5H7.4a1.05 1.05 0 0 0-0.9 0.5L5.4 11.7 4.16 12.852a0.5 0.5 0 0 0-0.16 0.367V17.5a0.5 0.5 0 0 0 0.5 0.5h2c0.2 0 0.5-0.2 0.5-0.4V17h7v0.5c0 0.2 0.2 0.5 0.4 0.5h2.1a0.5 0.5 0 0 0 0.5-0.5v-4.281a0.5 0.5 0 0 0-0.16-0.367zM7.5 10h6l1 2h-8z m0.5 4.6c0 0.2-0.3 0.4-0.5 0.4H5.4c-0.2 0-0.4-0.3-0.4-0.5v-1.1c0.1-0.3 0.3-0.5 0.6-0.4l2 0.4c0.2 0 0.4 0.3 0.4 0.5z m8-0.1c0 0.2-0.2 0.5-0.4 0.5h-2.1c-0.2 0-0.5-0.2-0.5-0.4v-0.7c0-0.2 0.2-0.5 0.4-0.5l2-0.4c0.3-0.1 0.5 0.1 0.6 0.4zM16.5 3H14a1 1 0 0 0-1 1H5L4 5v1l1 1 1.5-1.5L8 7l1.5-1.5L11 7h2a1 1 0 0 0 1 1h2.5a0.5 0.5 0 0 0 0.5-0.5v-4a0.5 0.5 0 0 0-0.5-0.5zM16 6.5a0.5 0.5 0 0 1-1 0v-2a0.5 0.5 0 0 1 1 0z" fill="hsl(20, 2%, 55%)"/></g></svg>