<svg xmlns="http://www.w3.org/2000/svg" id="car-repair" width="21" height="21" viewBox="0 0 21 21"><g><path d="M0,0 H21 V21 H0 Z" fill="none"/><path d="M15.6 11.7l-1.1-2.2a1.05 1.05 0 0 0-0.9-0.5H7.4a1.05 1.05 0 0 0-0.9 0.5L5.4 11.7 4.16 12.852a0.5 0.5 0 0 0-0.16 0.367V17.5a0.5 0.5 0 0 0 0.5 0.5h2c0.2 0 0.5-0.2 0.5-0.4V17h7v0.5c0 0.2 0.2 0.5 0.4 0.5h2.1a0.5 0.5 0 0 0 0.5-0.5v-4.281a0.5 0.5 0 0 0-0.16-0.367zM7.5 10h6l1 2h-8z m0.5 4.6c0 0.2-0.3 0.4-0.5 0.4H5.4c-0.2 0-0.4-0.3-0.4-0.5v-1.1c0.1-0.3 0.3-0.5 0.6-0.4l2 0.4c0.2 0 0.4 0.3 0.4 0.5z m8-0.1c0 0.2-0.2 0.5-0.4 0.5h-2.1c-0.2 0-0.5-0.2-0.5-0.4v-0.7c0-0.2 0.2-0.5 0.4-0.5l2-0.4c0.3-0.1 0.5 0.1 0.6 0.4zM17 5v1a1.009 1.009 0 0 1-1.017 1H8.347999999999999A2.549 2.549 0 0 1 4 6.5h2.5v-2H4A2.549 2.549 0 0 1 8.347999999999999 4h7.635A1.009 1.009 0 0 1 17 5z" fill="hsl(20, 2%, 55%)" stroke="hsl(175, 5%, 100%)" stroke-linejoin="round" stroke-miterlimit="4px" stroke-width="2"/><path d="M15.6 11.7l-1.1-2.2a1.05 1.05 0 0 0-0.9-0.5H7.4a1.05 1.05 0 0 0-0.9 0.5L5.4 11.7 4.16 12.852a0.5 0.5 0 0 0-0.16 0.367V17.5a0.5 0.5 0 0 0 0.5 0.5h2c0.2 0 0.5-0.2 0.5-0.4V17h7v0.5c0 0.2 0.2 0.5 0.4 0.5h2.1a0.5 0.5 0 0 0 0.5-0.5v-4.281a0.5 0.5 0 0 0-0.16-0.367zM7.5 10h6l1 2h-8z m0.5 4.6c0 0.2-0.3 0.4-0.5 0.4H5.4c-0.2 0-0.4-0.3-0.4-0.5v-1.1c0.1-0.3 0.3-0.5 0.6-0.4l2 0.4c0.2 0 0.4 0.3 0.4 0.5z m8-0.1c0 0.2-0.2 0.5-0.4 0.5h-2.1c-0.2 0-0.5-0.2-0.5-0.4v-0.7c0-0.2 0.2-0.5 0.4-0.5l2-0.4c0.3-0.1 0.5 0.1 0.6 0.4zM17 5v1a1.009 1.009 0 0 1-1.017 1H8.347999999999999A2.549 2.549 0 0 1 4 6.5h2.5v-2H4A2.549 2.549 0 0 1 8.347999999999999 4h7.635A1.009 1.009 0 0 1 17 5z" fill="hsl(20, 2%, 55%)"/></g></svg>