<svg xmlns="http://www.w3.org/2000/svg" id="car" width="21" height="21" viewBox="0 0 21 21"><g><path d="M0,0 H21 V21 H0 Z" fill="none"/><path d="M16.84 9.852L15.6 8.7l-1.1-2.2a1.05 1.05 0 0 0-0.9-0.5H7.4a1.05 1.05 0 0 0-0.9 0.5L5.4 8.7 4.16 9.852a0.5 0.5 0 0 0-0.16 0.367V14.5a0.5 0.5 0 0 0 0.5 0.5h2c0.2 0 0.5-0.2 0.5-0.4V14h7v0.5c0 0.2 0.2 0.5 0.4 0.5h2.1a0.5 0.5 0 0 0 0.5-0.5V10.219000000000001a0.5 0.5 0 0 0-0.16-0.367zM7.5 7h6l1 2h-8zM8 11.6c0 0.2-0.3 0.4-0.5 0.4H5.4c-0.2 0-0.4-0.3-0.4-0.5V10.4c0.1-0.3 0.3-0.5 0.6-0.4l2 0.4c0.2 0 0.4 0.3 0.4 0.5z m8-0.1c0 0.2-0.2 0.5-0.4 0.5h-2.1c-0.2 0-0.5-0.2-0.5-0.4v-0.7c0-0.2 0.2-0.5 0.4-0.5l2-0.4c0.3-0.1 0.5 0.1 0.6 0.4z" fill="hsl(20, 2%, 55%)" stroke="hsl(175, 5%, 100%)" stroke-linejoin="round" stroke-miterlimit="4px" stroke-width="2"/><path d="M16.84 9.852L15.6 8.7l-1.1-2.2a1.05 1.05 0 0 0-0.9-0.5H7.4a1.05 1.05 0 0 0-0.9 0.5L5.4 8.7 4.16 9.852a0.5 0.5 0 0 0-0.16 0.367V14.5a0.5 0.5 0 0 0 0.5 0.5h2c0.2 0 0.5-0.2 0.5-0.4V14h7v0.5c0 0.2 0.2 0.5 0.4 0.5h2.1a0.5 0.5 0 0 0 0.5-0.5V10.219000000000001a0.5 0.5 0 0 0-0.16-0.367zM7.5 7h6l1 2h-8zM8 11.6c0 0.2-0.3 0.4-0.5 0.4H5.4c-0.2 0-0.4-0.3-0.4-0.5V10.4c0.1-0.3 0.3-0.5 0.6-0.4l2 0.4c0.2 0 0.4 0.3 0.4 0.5z m8-0.1c0 0.2-0.2 0.5-0.4 0.5h-2.1c-0.2 0-0.5-0.2-0.5-0.4v-0.7c0-0.2 0.2-0.5 0.4-0.5l2-0.4c0.3-0.1 0.5 0.1 0.6 0.4z" fill="hsl(20, 2%, 55%)"/></g></svg>