<svg xmlns="http://www.w3.org/2000/svg" id="ch-motorway-2" width="22" height="16" viewBox="0 0 22 16"><g><path d="M0,0 H22 V16 H0 Z" fill="none"/><path d="M10.991,1,19,3a2.151,2.151,0,0,1,2,2v6a2.151,2.151,0,0,1-2,2l-8.009,2L3,13a2.151,2.151,0,0,1-2-2V5A2.151,2.151,0,0,1,3,3Z" fill="none" stroke="hsl(0, 0%, 100%)" stroke-linejoin="round" stroke-miterlimit="4px" stroke-width="2"/><path d="M10.991,1,19,3a2.151,2.151,0,0,1,2,2v6a2.151,2.151,0,0,1-2,2l-8.009,2L3,13a2.151,2.151,0,0,1-2-2V5A2.151,2.151,0,0,1,3,3Z" fill="hsl(0, 87%, 59%)"/><path d="M0,5 H22 V11 H0 Z" fill="none" id="mapbox-text-placeholder"/></g></svg>