<svg xmlns="http://www.w3.org/2000/svg" id="cl-highway-2" width="20" height="20" viewBox="0 0 20 20"><g><path d="M0,0 H20 V20 H0 Z" fill="none"/><path d="M7,17a3.991,3.991,0,0,1,3,1,3.993,3.993,0,0,1,3-1,5.872,5.872,0,0,0,4.5-1.666C19.687,13.006,19.2,10.45,18,8a3.446,3.446,0,0,1,1-4.5L16,1a4,4,0,0,1-3.025,1.5A4.038,4.038,0,0,1,10,1,4.127,4.127,0,0,1,6.988,2.5,3.862,3.862,0,0,1,3.994,1L1,3.5C1.78,4.251,3.2,5.567,2.008,8c-1.2,2.45-1.7,5.006.491,7.334A5.874,5.874,0,0,0,7,17Z" fill="none" stroke="hsl(0, 0%, 100%)" stroke-linejoin="round" stroke-miterlimit="4px" stroke-width="2"/><path d="M7,17a3.991,3.991,0,0,1,3,1,3.993,3.993,0,0,1,3-1,5.872,5.872,0,0,0,4.5-1.666C19.687,13.006,19.2,10.45,18,8a3.446,3.446,0,0,1,1-4.5L16,1a4,4,0,0,1-3.025,1.5A4.038,4.038,0,0,1,10,1,4.127,4.127,0,0,1,6.988,2.5,3.862,3.862,0,0,1,3.994,1L1,3.5C1.78,4.251,3.2,5.567,2.008,8c-1.2,2.45-1.7,5.006.491,7.334A5.874,5.874,0,0,0,7,17Z" fill="hsl(230, 57%, 54%)"/><path d="M0,7 H20 V13 H0 Z" fill="none" id="mapbox-text-placeholder"/></g></svg>