<svg xmlns="http://www.w3.org/2000/svg" id="co-national-2" width="20" height="20" viewBox="0 0 20 20"><g><path d="M0,0 H20 V20 H0 Z" fill="none"/><path d="M10,19S.077,14.94,1.07,1a13.179,13.179,0,0,0,4.466.947A13.461,13.461,0,0,0,10,1h0a13.461,13.461,0,0,0,4.466.947A13.179,13.179,0,0,0,18.93,1C19.923,15,10,19,10,19Z" fill="none" stroke="hsl(230, 18%, 13%)" stroke-linejoin="round" stroke-miterlimit="4px" stroke-width="2"/><path d="M10,19S.077,14.94,1.07,1a13.179,13.179,0,0,0,4.466.947A13.461,13.461,0,0,0,10,1h0a13.461,13.461,0,0,0,4.466.947A13.179,13.179,0,0,0,18.93,1C19.923,15,10,19,10,19Z" fill="hsl(0, 0%, 100%)"/><path d="M0,7 H20 V13 H0 Z" fill="none" id="mapbox-text-placeholder"/></g></svg>