<svg xmlns="http://www.w3.org/2000/svg" id="co-national-3" width="24" height="20" viewBox="0 0 24 20"><g><path d="M0,0 H24 V20 H0 Z" fill="none"/><path d="M12,19S.093,14.94,1.284,1a18.482,18.482,0,0,0,5.359.947A18.887,18.887,0,0,0,12,1h0a18.887,18.887,0,0,0,5.359.947A18.482,18.482,0,0,0,22.716,1C23.907,15,12,19,12,19Z" fill="none" stroke="hsl(230, 18%, 13%)" stroke-linejoin="round" stroke-miterlimit="4px" stroke-width="2"/><path d="M12,19S.093,14.94,1.284,1a18.482,18.482,0,0,0,5.359.947A18.887,18.887,0,0,0,12,1h0a18.887,18.887,0,0,0,5.359.947A18.482,18.482,0,0,0,22.716,1C23.907,15,12,19,12,19Z" fill="hsl(0, 0%, 100%)"/><path d="M0,7 H24 V13 H0 Z" fill="none" id="mapbox-text-placeholder"/></g></svg>