<svg xmlns="http://www.w3.org/2000/svg" id="default-5" width="38" height="14" viewBox="0 0 38 14"><g><path d="M0,0 H38 V14 H0 Z" fill="none"/><path d="M3,1 H35 C35,1 37,1 37,3 V11 C37,11 37,13 35,13 H3 C3,13 1,13 1,11 V3 C1,3 1,1 3,1" fill="none" stroke="hsl(230, 18%, 13%)" stroke-linejoin="round" stroke-miterlimit="4px" stroke-width="2"/><path d="M3,1 H35 C35,1 37,1 37,3 V11 C37,11 37,13 35,13 H3 C3,13 1,13 1,11 V3 C1,3 1,1 3,1" fill="hsl(0, 0%, 100%)"/><path d="M0,4 H38 V10 H0 Z" fill="none" id="mapbox-text-placeholder"/></g></svg>