<svg xmlns="http://www.w3.org/2000/svg" id="entrance" width="21" height="21" viewBox="0 0 21 21"><g><path d="M2,1 H15 C15,1 16,1 16,2 V15 C16,15 16,16 15,16 H2 C2,16 1,16 1,15 V2 C1,2 1,1 2,1" fill="hsl(40, 3%, 70%)" stroke="hsl(175, 5%, 100%)" stroke-linejoin="round" stroke-miterlimit="4px" stroke-width="2"/><path d="M2,1 H15 C15,1 16,1 16,2 V15 C16,15 16,16 15,16 H2 C2,16 1,16 1,15 V2 C1,2 1,1 2,1" fill="hsl(40, 3%, 70%)"/><path d="M7.643200000000001 10.1112a0.4 0.4 0 0 0 0.5656 0.5656l2.1336-2.1416a0.2 0.2 0 0 0 0-0.2832L8.2088 6.1112a0.4 0.4 0 0 0-0.5656 0.5656L8.96 8H3.6000000000000005a0.4 0.4 0 0 0 0 0.8h5.36zM12.000000000000002 3.2H6.800000000000001a0.4 0.4 0 0 0 0 0.8h4.800000000000001a0.4 0.4 0 0 1 0.4 0.4v8a0.4 0.4 0 0 1-0.4 0.4H6.6000000000000005a0.4 0.4 0 0 0 0 0.8H12.000000000000002a0.8 0.8 0 0 0 0.8-0.8V4a0.8 0.8 0 0 0-0.8-0.8z" fill="hsl(175, 5%, 100%)"/></g></svg>