<svg xmlns="http://www.w3.org/2000/svg" id="ferry" width="21" height="21" viewBox="0 0 21 21"><g><path d="M2,1 H15 C15,1 16,1 16,2 V15 C16,15 16,16 15,16 H2 C2,16 1,16 1,15 V2 C1,2 1,1 2,1" fill="hsl(40, 3%, 70%)" stroke="hsl(175, 5%, 100%)" stroke-linejoin="round" stroke-miterlimit="4px" stroke-width="2"/><path d="M2,1 H15 C15,1 16,1 16,2 V15 C16,15 16,16 15,16 H2 C2,16 1,16 1,15 V2 C1,2 1,1 2,1" fill="hsl(40, 3%, 70%)"/><path d="M6.664000000000001 11.200000000000001a2.4000000000000004 2.4000000000000004 0 0 1 1.4800000000000002 0.536l0.20800000000000002 0.18400000000000002h0.04000000000000001l0.248-0.22400000000000003a2.3120000000000003 2.3120000000000003 0 0 1 2.7520000000000002-0.144L13.200000000000001 8 12.000000000000002 7.200000000000001V4.36A1.2320000000000002 1.2320000000000002 0 0 0 10.8 3.2H10.4a0.752 0.752 0 0 0-0.8-0.8H7.200000000000001a0.752 0.752 0 0 0-0.8 0.8h-0.4A1.2320000000000002 1.2320000000000002 0 0 0 4.800000000000001 4.36V7.200000000000001L3.6000000000000005 8l1.8 3.6240000000000006A2.3440000000000003 2.3440000000000003 0 0 1 6.664000000000001 11.200000000000001zM5.6000000000000005 4.36A0.376 0.376 0 0 1 6 4h4.800000000000001a0.376 0.376 0 0 1 0.4 0.4v2.4000000000000004l-2.8000000000000003-1.6L5.6000000000000005 6.760000000000001v-2.4000000000000004zM13.600000000000001 12.8v0.8a0.8 0.8 0 0 0-0.544 0.272 1.72 1.72 0 0 1-0.8 0.48 1.528 1.528 0 0 1-1.4160000000000001-0.296l-0.31200000000000006-0.27999999999999997a0.6240000000000001 0.6240000000000001 0 0 0-0.8800000000000001 0c-0.11200000000000002 0.096-0.21600000000000003 0.2-0.336 0.296a1.536 1.536 0 0 1-1.984-0.05600000000000001l-0.31200000000000006-0.27999999999999997a0.6080000000000001 0.6080000000000001 0 0 0-0.8 0c-0.15200000000000002 0.12-0.288 0.256-0.44000000000000006 0.376a1.528 1.528 0 0 1-1.8800000000000001-0.048l-0.248-0.21600000000000003A0.752 0.752 0 0 0 3.2 13.600000000000001v-0.8c0.20720000000000002-0.0256 0.41600000000000004 0.013600000000000001 0.6000000000000001 0.11200000000000002a4.960000000000001 4.960000000000001 0 0 1 0.6320000000000001 0.46399999999999997 0.672 0.672 0 0 0 0.6480000000000001 0.2 0.7440000000000001 0.7440000000000001 0 0 0 0.248-0.128c0.128-0.096 0.23199999999999998-0.20800000000000002 0.36000000000000004-0.31200000000000006a1.536 1.536 0 0 1 1.9600000000000002 0c0.128 0.10400000000000001 0.248 0.22400000000000003 0.376 0.328a0.6080000000000001 0.6080000000000001 0 0 0 0.8 0c0.128-0.10400000000000001 0.248-0.22400000000000003 0.376-0.328a1.536 1.536 0 0 1 1.968 0c0.12 0.10400000000000001 0.23199999999999998 0.21600000000000003 0.35200000000000004 0.31200000000000006a0.6080000000000001 0.6080000000000001 0 0 0 0.8 0l0.376-0.328c0.256-0.20800000000000002 0.5752-0.32000000000000006 0.9039999999999999-0.32000000000000006z" fill="hsl(175, 5%, 100%)"/></g></svg>