<svg xmlns="http://www.w3.org/2000/svg" id="furniture" width="21" height="21" viewBox="0 0 21 21"><g><path d="M0,0 H21 V21 H0 Z" fill="none"/><path d="M12 13.142V11.5a0.5 0.5 0 0 0-0.5-0.5h-1a0.5 0.5 0 0 0-0.5 0.5v1.641a3.991 3.991 0 0 0-2.957 3.272 0.507 0.507 0 0 0 0.5 0.586h6.922a0.507 0.507 0 0 0 0.5-0.586A3.991 3.991 0 0 0 12 13.142z m4.639-3.863l-2.5-5A0.5 0.5 0 0 0 13.692 4H8.308a0.5 0.5 0 0 0-0.446 0.276l-2.5 5A0.5 0.5 0 0 0 5.806 10H14v1.5a0.5 0.5 0 0 0 1 0V10h1.194a0.5 0.5 0 0 0 0.445-0.721z" fill="hsl(20, 2%, 55%)" stroke="hsl(175, 5%, 100%)" stroke-linejoin="round" stroke-miterlimit="4px" stroke-width="2"/><path d="M12 13.142V11.5a0.5 0.5 0 0 0-0.5-0.5h-1a0.5 0.5 0 0 0-0.5 0.5v1.641a3.991 3.991 0 0 0-2.957 3.272 0.507 0.507 0 0 0 0.5 0.586h6.922a0.507 0.507 0 0 0 0.5-0.586A3.991 3.991 0 0 0 12 13.142z m4.639-3.863l-2.5-5A0.5 0.5 0 0 0 13.692 4H8.308a0.5 0.5 0 0 0-0.446 0.276l-2.5 5A0.5 0.5 0 0 0 5.806 10H14v1.5a0.5 0.5 0 0 0 1 0V10h1.194a0.5 0.5 0 0 0 0.445-0.721z" fill="hsl(20, 2%, 55%)"/></g></svg>