<svg xmlns="http://www.w3.org/2000/svg" id="globe" width="21" height="21" viewBox="0 0 21 21"><g><path d="M0,0 H21 V21 H0 Z" fill="none"/><path d="M14.981 12.481l-0.721-0.721a4.979 4.979 0 1 1-7.02-7.02l-0.721-0.721A5.991 5.991 0 0 0 10 14.475V16h-0.5a0.5 0.5 0 0 0 0 1h2a0.5 0.5 0 0 0 0-1H11v-1.527a5.983 5.983 0 0 0 3.981-1.992zM10.5 12A3.5 3.5 0 1 0 7 8.5 3.5 3.5 0 0 0 10.5 12z m1-5l0.364-0.592a2.5 2.5 0 0 1 0.823 0.9L12.5 8h-1z m-1.844-0.844L10.5 7v1L11 9h1.94a2.494 2.494 0 0 1-1.5 1.814L11 10H9.5L8.05 8a2.5 2.5 0 0 1 1.606-1.844z" fill="hsl(20, 2%, 55%)" stroke="hsl(175, 5%, 100%)" stroke-linejoin="round" stroke-miterlimit="4px" stroke-width="2"/><path d="M14.981 12.481l-0.721-0.721a4.979 4.979 0 1 1-7.02-7.02l-0.721-0.721A5.991 5.991 0 0 0 10 14.475V16h-0.5a0.5 0.5 0 0 0 0 1h2a0.5 0.5 0 0 0 0-1H11v-1.527a5.983 5.983 0 0 0 3.981-1.992zM10.5 12A3.5 3.5 0 1 0 7 8.5 3.5 3.5 0 0 0 10.5 12z m1-5l0.364-0.592a2.5 2.5 0 0 1 0.823 0.9L12.5 8h-1z m-1.844-0.844L10.5 7v1L11 9h1.94a2.494 2.494 0 0 1-1.5 1.814L11 10H9.5L8.05 8a2.5 2.5 0 0 1 1.606-1.844z" fill="hsl(20, 2%, 55%)"/></g></svg>