<svg xmlns="http://www.w3.org/2000/svg" id="highway-rest-area" width="21" height="21" viewBox="0 0 21 21"><g><path d="M0,0 H21 V21 H0 Z" fill="none"/><path d="M16.5 16h-3V12h3a0.5 0.5 0 0 0 0.41-0.787L14.66 8h0.84a0.5 0.5 0 0 0 0.384-0.82l-2.5-3a0.515 0.515 0 0 0-0.768 0l-2.5 3A0.5 0.5 0 0 0 10.5 8h0.84L9.09 11.213A0.5 0.5 0 0 0 9.5 12h3v4H7v-2h1.5a0.5 0.5 0 0 0 0-1h-4a0.5 0.5 0 0 0 0 1H6v2H4.5a0.5 0.5 0 0 0 0 1h12a0.5 0.5 0 0 0 0-1z" fill="hsl(20, 2%, 55%)" stroke="hsl(175, 5%, 100%)" stroke-linejoin="round" stroke-miterlimit="4px" stroke-width="2"/><path d="M16.5 16h-3V12h3a0.5 0.5 0 0 0 0.41-0.787L14.66 8h0.84a0.5 0.5 0 0 0 0.384-0.82l-2.5-3a0.515 0.515 0 0 0-0.768 0l-2.5 3A0.5 0.5 0 0 0 10.5 8h0.84L9.09 11.213A0.5 0.5 0 0 0 9.5 12h3v4H7v-2h1.5a0.5 0.5 0 0 0 0-1h-4a0.5 0.5 0 0 0 0 1H6v2H4.5a0.5 0.5 0 0 0 0 1h12a0.5 0.5 0 0 0 0-1z" fill="hsl(20, 2%, 55%)"/></g></svg>