<svg xmlns="http://www.w3.org/2000/svg" id="hot-spring" width="21" height="21" viewBox="0 0 21 21"><g><path d="M0,0 H21 V21 H0 Z" fill="none"/><path d="M16.536 15.008a1.584 1.584 0 0 0-1.105 0.416l-0.437 0.407a0.662 0.662 0 0 1-0.928 0c-0.139-0.119-0.269-0.258-0.409-0.387a1.679 1.679 0 0 0-2.275 0c-0.148 0.129-0.288 0.278-0.436 0.407a0.663 0.663 0 0 1-0.929 0c-0.148-0.129-0.288-0.278-0.436-0.407a1.68 1.68 0 0 0-2.266 0c-0.139 0.129-0.269 0.268-0.408 0.387a0.86 0.86 0 0 1-0.279 0.159 0.748 0.748 0 0 1-0.743-0.248 5.9 5.9 0 0 0-0.733-0.576 1.089 1.089 0 0 0-0.632-0.158h-0.056a0.5 0.5 0 0 0 0 0.992 0.847 0.847 0 0 1 0.6 0.307l0.334 0.258a1.676 1.676 0 0 0 2.164 0.06c0.176-0.139 0.334-0.317 0.51-0.466a0.663 0.663 0 0 1 0.929 0l0.362 0.347a1.687 1.687 0 0 0 2.284 0.07c0.14-0.11 0.251-0.248 0.39-0.367A0.683 0.683 0 0 1 13 16.15l0.422 0.406a1.667 1.667 0 0 0 1.634 0.367 1.961 1.961 0 0 0 0.928-0.6 0.923 0.923 0 0 1 0.552-0.323 0.5 0.5 0 0 0 0-0.992zM10.464 5.047000000000001a2.871 2.871 0 0 0-0.594 4.536 1.785 1.785 0 0 1 0.562 1.694C10.119 12.17 9.341999999999999 13 9.774000000000001 14c0.286-0.971 1.367-1.291 1.861-2.124 0.99-1.565-0.155-3-1.03-4.245C10.144 6.323 11.824 5.32 11.225 4a2.2 2.2 0 0 1-0.761 1.047z m2.946 1.5a2.262 2.262 0 0 0 0.525 3.106 1.059 1.059 0 0 1 0.52 1.067c-0.319 0.741-1.088 1.408-0.686 2.28 0.374-0.87 1.016-0.644 1.817-1.546a2.261 2.261 0 0 0-0.519-3.109 1.059 1.059 0 0 1-0.527-1.067c0.318-0.741 1.088-1.406 0.687-2.278-0.372 0.87-1.016 0.645-1.817 1.547z m-8 0a2.262 2.262 0 0 0 0.525 3.106 1.059 1.059 0 0 1 0.52 1.067c-0.319 0.741-1.088 1.408-0.686 2.28 0.374-0.87 1.016-0.644 1.817-1.546a2.261 2.261 0 0 0-0.519-3.109 1.059 1.059 0 0 1-0.527-1.067c0.318-0.741 1.088-1.406 0.687-2.278-0.372 0.87-1.016 0.645-1.817 1.547z" fill="hsl(20, 2%, 55%)" stroke="hsl(175, 5%, 100%)" stroke-linejoin="round" stroke-miterlimit="4px" stroke-width="2"/><path d="M16.536 15.008a1.584 1.584 0 0 0-1.105 0.416l-0.437 0.407a0.662 0.662 0 0 1-0.928 0c-0.139-0.119-0.269-0.258-0.409-0.387a1.679 1.679 0 0 0-2.275 0c-0.148 0.129-0.288 0.278-0.436 0.407a0.663 0.663 0 0 1-0.929 0c-0.148-0.129-0.288-0.278-0.436-0.407a1.68 1.68 0 0 0-2.266 0c-0.139 0.129-0.269 0.268-0.408 0.387a0.86 0.86 0 0 1-0.279 0.159 0.748 0.748 0 0 1-0.743-0.248 5.9 5.9 0 0 0-0.733-0.576 1.089 1.089 0 0 0-0.632-0.158h-0.056a0.5 0.5 0 0 0 0 0.992 0.847 0.847 0 0 1 0.6 0.307l0.334 0.258a1.676 1.676 0 0 0 2.164 0.06c0.176-0.139 0.334-0.317 0.51-0.466a0.663 0.663 0 0 1 0.929 0l0.362 0.347a1.687 1.687 0 0 0 2.284 0.07c0.14-0.11 0.251-0.248 0.39-0.367A0.683 0.683 0 0 1 13 16.15l0.422 0.406a1.667 1.667 0 0 0 1.634 0.367 1.961 1.961 0 0 0 0.928-0.6 0.923 0.923 0 0 1 0.552-0.323 0.5 0.5 0 0 0 0-0.992zM10.464 5.047000000000001a2.871 2.871 0 0 0-0.594 4.536 1.785 1.785 0 0 1 0.562 1.694C10.119 12.17 9.341999999999999 13 9.774000000000001 14c0.286-0.971 1.367-1.291 1.861-2.124 0.99-1.565-0.155-3-1.03-4.245C10.144 6.323 11.824 5.32 11.225 4a2.2 2.2 0 0 1-0.761 1.047z m2.946 1.5a2.262 2.262 0 0 0 0.525 3.106 1.059 1.059 0 0 1 0.52 1.067c-0.319 0.741-1.088 1.408-0.686 2.28 0.374-0.87 1.016-0.644 1.817-1.546a2.261 2.261 0 0 0-0.519-3.109 1.059 1.059 0 0 1-0.527-1.067c0.318-0.741 1.088-1.406 0.687-2.278-0.372 0.87-1.016 0.645-1.817 1.547z m-8 0a2.262 2.262 0 0 0 0.525 3.106 1.059 1.059 0 0 1 0.52 1.067c-0.319 0.741-1.088 1.408-0.686 2.28 0.374-0.87 1.016-0.644 1.817-1.546a2.261 2.261 0 0 0-0.519-3.109 1.059 1.059 0 0 1-0.527-1.067c0.318-0.741 1.088-1.406 0.687-2.278-0.372 0.87-1.016 0.645-1.817 1.547z" fill="hsl(20, 2%, 55%)"/></g></svg>