<svg xmlns="http://www.w3.org/2000/svg" id="hu-main-5" width="38" height="20" viewBox="0 0 38 20"><g><path d="M0,0 H38 V20 H0 Z" fill="none"/><path d="M1,3V13a2.951,2.951,0,0,0,2,3c1.632.744,16,3,16,3s14.368-2.256,16-3a2.951,2.951,0,0,0,2-3V3Z" fill="none" stroke="hsl(0, 0%, 100%)" stroke-linejoin="round" stroke-miterlimit="4px" stroke-width="2"/><path d="M1,3V13a2.951,2.951,0,0,0,2,3c1.632.744,16,3,16,3s14.368-2.256,16-3a2.951,2.951,0,0,0,2-3V3Z" fill="hsl(140, 74%, 37%)"/><path d="M0,7 H38 V13 H0 Z" fill="none" id="mapbox-text-placeholder"/></g></svg>