<svg xmlns="http://www.w3.org/2000/svg" id="in-national-3" width="20" height="22" viewBox="0 0 20 22"><g><path d="M0,0 H20 V22 H0 Z" fill="none"/><path d="M19,3V13.042c0,4-7.041,7.958-9,7.958-2.042,0-9-3.958-9-7.958V3H7c1,0,2.083-1,3-2,.958,1.042,1.917,2,3,2Z" fill="none" stroke="hsl(230, 18%, 13%)" stroke-linejoin="round" stroke-miterlimit="4px" stroke-width="2"/><path d="M19,3V13.042c0,4-7.041,7.958-9,7.958-2.042,0-9-3.958-9-7.958V3H7c1,0,2.083-1,3-2,.958,1.042,1.917,2,3,2Z" fill="hsl(50, 100%, 70%)"/><path d="M0,8 H20 V14 H0 Z" fill="none" id="mapbox-text-placeholder"/></g></svg>