<svg xmlns="http://www.w3.org/2000/svg" id="in-national-4" width="24" height="22" viewBox="0 0 24 22"><g><path d="M0,0 H24 V22 H0 Z" fill="none"/><path d="M23,3V13.042c0,4-9.041,7.958-11,7.958C9.958,21,1,17.042,1,13.042V3H9c1,0,2.083-1,3-2,.958,1.042,1.917,2,3,2Z" fill="none" stroke="hsl(230, 18%, 13%)" stroke-linejoin="round" stroke-miterlimit="4px" stroke-width="2"/><path d="M23,3V13.042c0,4-9.041,7.958-11,7.958C9.958,21,1,17.042,1,13.042V3H9c1,0,2.083-1,3-2,.958,1.042,1.917,2,3,2Z" fill="hsl(50, 100%, 70%)"/><path d="M0,8 H24 V14 H0 Z" fill="none" id="mapbox-text-placeholder"/></g></svg>