<svg xmlns="http://www.w3.org/2000/svg" id="in-national-2" width="16" height="22" viewBox="0 0 16 22"><g><path d="M0,0 H16 V22 H0 Z" fill="none"/><path d="M15,3V13.042C15,17.042,9.958,21,8,21c-2.042,0-7-3.958-7-7.958V3H5C6,3,7.083,2,8,1c.958,1.042,1.917,2,3,2Z" fill="none" stroke="hsl(230, 18%, 13%)" stroke-linejoin="round" stroke-miterlimit="4px" stroke-width="2"/><path d="M15,3V13.042C15,17.042,9.958,21,8,21c-2.042,0-7-3.958-7-7.958V3H5C6,3,7.083,2,8,1c.958,1.042,1.917,2,3,2Z" fill="hsl(50, 100%, 70%)"/><path d="M0,8 H16 V14 H0 Z" fill="none" id="mapbox-text-placeholder"/></g></svg>