<svg xmlns="http://www.w3.org/2000/svg" id="in-state-2" width="16" height="22" viewBox="0 0 16 22"><g><path d="M0,0 H16 V22 H0 Z" fill="none"/><path d="M5,18c1.031,0,2.431.116,3,1,.57-.884,1.98-1,3-1,.969,0,3.4-1.071,3.75-3,.531-2.927-.75-5.026-.75-7,0-2.941,1-4.063,1-5L13,1a4.793,4.793,0,0,1-2.5,1A4.564,4.564,0,0,1,8,1,4.654,4.654,0,0,1,5.5,2,4.085,4.085,0,0,1,3,1L1,3C1,4.031,2,5,2,8c0,2.049-1.332,4.107-.75,7A3.943,3.943,0,0,0,5,18Z" fill="none" stroke="hsl(230, 18%, 13%)" stroke-linejoin="round" stroke-miterlimit="4px" stroke-width="2"/><path d="M5,18c1.031,0,2.431.116,3,1,.57-.884,1.98-1,3-1,.969,0,3.4-1.071,3.75-3,.531-2.927-.75-5.026-.75-7,0-2.941,1-4.063,1-5L13,1a4.793,4.793,0,0,1-2.5,1A4.564,4.564,0,0,1,8,1,4.654,4.654,0,0,1,5.5,2,4.085,4.085,0,0,1,3,1L1,3C1,4.031,2,5,2,8c0,2.049-1.332,4.107-.75,7A3.943,3.943,0,0,0,5,18Z" fill="hsl(0, 0%, 100%)"/><path d="M10.5,2A4.564,4.564,0,0,1,8,1,4.654,4.654,0,0,1,5.5,2,4.085,4.085,0,0,1,3,1L1,3a8.057,8.057,0,0,0,.572,2H14.426A9.017,9.017,0,0,0,15,3L13,1A4.793,4.793,0,0,1,10.5,2Z" fill="hsl(140, 74%, 37%)"/><path d="M0,8 H16 V14 H0 Z" fill="none" id="mapbox-text-placeholder"/></g></svg>