<svg xmlns="http://www.w3.org/2000/svg" id="in-state-3" width="20" height="22" viewBox="0 0 20 22"><g><path d="M0,0 H20 V22 H0 Z" fill="none"/><path d="M7,18c1.031,0,2.431.116,3,1,.57-.884,1.98-1,3-1,.969,0,5.167.042,5.75-3,.677-3.532-.75-5.026-.75-7,0-2.941,1-4.063,1-5L17,1a7.341,7.341,0,0,1-3.5,1A6.948,6.948,0,0,1,10,1,7.111,7.111,0,0,1,6.5,2,6.734,6.734,0,0,1,3,1L1,3C1,4.031,2,5,2,8c0,2.049-1.352,3.439-.75,7C1.75,17.958,5.891,18,7,18Z" fill="none" stroke="hsl(230, 18%, 13%)" stroke-linejoin="round" stroke-miterlimit="4px" stroke-width="2"/><path d="M7,18c1.031,0,2.431.116,3,1,.57-.884,1.98-1,3-1,.969,0,5.167.042,5.75-3,.677-3.532-.75-5.026-.75-7,0-2.941,1-4.063,1-5L17,1a7.341,7.341,0,0,1-3.5,1A6.948,6.948,0,0,1,10,1,7.111,7.111,0,0,1,6.5,2,6.734,6.734,0,0,1,3,1L1,3C1,4.031,2,5,2,8c0,2.049-1.352,3.439-.75,7C1.75,17.958,5.891,18,7,18Z" fill="hsl(0, 0%, 100%)"/><path d="M13.5,2A6.948,6.948,0,0,1,10,1,7.111,7.111,0,0,1,6.5,2,6.734,6.734,0,0,1,3,1L1,3a8.057,8.057,0,0,0,.572,2H18.426A9.073,9.073,0,0,0,19,3L17,1A7.341,7.341,0,0,1,13.5,2Z" fill="hsl(140, 74%, 37%)"/><path d="M0,8 H20 V14 H0 Z" fill="none" id="mapbox-text-placeholder"/></g></svg>