<svg xmlns="http://www.w3.org/2000/svg" id="kr-metro-expy-2" width="20" height="19" viewBox="0 0 20 19"><g><path d="M0,0 H20 V19 H0 Z" fill="none"/><path d="M18.854,11.146l-3.708,3.708a.5.5,0,0,1-.352.146H5.206a.5.5,0,0,1-.352-.146L1.146,11.146A.5.5,0,0,1,1,10.794V5.206a.5.5,0,0,1,.146-.352L4.854,1.146A.5.5,0,0,1,5.206,1h9.588a.5.5,0,0,1,.352.146l3.708,3.708A.5.5,0,0,1,19,5.206v5.588A.5.5,0,0,1,18.854,11.146Z" fill="none" stroke="hsl(230, 57%, 54%)" stroke-linejoin="round" stroke-miterlimit="4px" stroke-width="2"/><path d="M18.854,11.146l-3.708,3.708a.5.5,0,0,1-.352.146H5.206a.5.5,0,0,1-.352-.146L1.146,11.146A.5.5,0,0,1,1,10.794V5.206a.5.5,0,0,1,.146-.352L4.854,1.146A.5.5,0,0,1,5.206,1h9.588a.5.5,0,0,1,.352.146l3.708,3.708A.5.5,0,0,1,19,5.206v5.588A.5.5,0,0,1,18.854,11.146Z" fill="hsl(0, 0%, 100%)"/><path d="M14.794,1H5.206a.5.5,0,0,0-.352.146L2,4H18L15.146,1.146A.5.5,0,0,0,14.794,1Z" fill="hsl(0, 87%, 59%)"/><path d="M0,6.5 H20 V12.5 H0 Z" fill="none" id="mapbox-text-placeholder"/></g></svg>