<svg xmlns="http://www.w3.org/2000/svg" id="kr-metropolitan-4" width="32" height="16" viewBox="0 0 32 16"><g><path d="M0,0 H32 V16 H0 Z" fill="none"/><path d="M30.854,11.146l-3.708,3.708a.5.5,0,0,1-.352.146H5.206a.5.5,0,0,1-.352-.146L1.146,11.146A.5.5,0,0,1,1,10.794V5.206a.5.5,0,0,1,.146-.352L4.854,1.146A.5.5,0,0,1,5.206,1H26.794a.5.5,0,0,1,.352.146l3.708,3.708A.5.5,0,0,1,31,5.206v5.588A.5.5,0,0,1,30.854,11.146Z" fill="none" stroke="hsl(230, 57%, 54%)" stroke-linejoin="round" stroke-miterlimit="4px" stroke-width="2"/><path d="M30.854,11.146l-3.708,3.708a.5.5,0,0,1-.352.146H5.206a.5.5,0,0,1-.352-.146L1.146,11.146A.5.5,0,0,1,1,10.794V5.206a.5.5,0,0,1,.146-.352L4.854,1.146A.5.5,0,0,1,5.206,1H26.794a.5.5,0,0,1,.352.146l3.708,3.708A.5.5,0,0,1,31,5.206v5.588A.5.5,0,0,1,30.854,11.146Z" fill="hsl(0, 0%, 100%)"/><path d="M0,5 H32 V11 H0 Z" fill="none" id="mapbox-text-placeholder"/></g></svg>