<svg xmlns="http://www.w3.org/2000/svg" id="kr-natl-expy-3" width="26" height="22" viewBox="0 0 26 22"><g><path d="M0,0 H26 V22 H0 Z" fill="none"/><path d="M8.5,17c1.158.059,3.765.164,4.5,1,.735-.836,3.342-.941,4.5-1,1.429-.074,4.564-.138,6-1.666C25.692,13,25.2,10.455,24,8c-1.19-2.438.219-3.742,1-4.5L21.991,1A6.836,6.836,0,0,1,17.5,2.5,6.98,6.98,0,0,1,13,1,6.98,6.98,0,0,1,8.5,2.5,6.94,6.94,0,0,1,4,1L1,3.5c.781.758,2.2,2.062,1.01,4.5-1.2,2.455-1.7,5,.492,7.334C3.938,16.862,7.071,16.926,8.5,17Z" fill="none" stroke="hsl(0, 0%, 100%)" stroke-linejoin="round" stroke-miterlimit="4px" stroke-width="2"/><path d="M8.5,17c1.158.059,3.765.164,4.5,1,.735-.836,3.342-.941,4.5-1,1.429-.074,4.564-.138,6-1.666C25.692,13,25.2,10.455,24,8c-1.19-2.438.219-3.742,1-4.5L21.991,1A6.836,6.836,0,0,1,17.5,2.5,6.98,6.98,0,0,1,13,1,6.98,6.98,0,0,1,8.5,2.5,6.94,6.94,0,0,1,4,1L1,3.5c.781.758,2.2,2.062,1.01,4.5-1.2,2.455-1.7,5,.492,7.334C3.938,16.862,7.071,16.926,8.5,17Z" fill="hsl(230, 57%, 54%)"/><path d="M1,4 H25 V5 H1 Z" fill="hsl(0, 0%, 100%)"/><path d="M1.49,4H24.512c.17-.187.34-.357.488-.5L21.991,1A6.834,6.834,0,0,1,17.5,2.5,6.98,6.98,0,0,1,13,1,6.98,6.98,0,0,1,8.5,2.5,6.94,6.94,0,0,1,4,1L1,3.5C1.148,3.643,1.319,3.813,1.49,4Z" fill="hsl(0, 87%, 59%)"/><path d="M0,8 H26 V14 H0 Z" fill="none" id="mapbox-text-placeholder"/></g></svg>