<svg xmlns="http://www.w3.org/2000/svg" id="library" width="21" height="21" viewBox="0 0 21 21"><g><path d="M0,0 H21 V21 H0 Z" fill="none"/><path d="M4.082 12.939C3.987 12.867 4 12.748 4 12.748L4.526 6.5s0.008-0.069 0.039-0.104c0.019-0.022 0.043-0.054 0.09-0.073C5.182 6.107 8.053 4.552 9.5 6c0.24 0.278 0.5 0.688 0.5 1v5.288s0.006 0.112-0.095 0.18a0.252 0.252 0 0 1-0.242 0.003c-2.226-1.114-4.711 0.154-5.338 0.487a0.22 0.22 0 0 1-0.243-0.02z m12.593 0.019c-0.627-0.333-3.112-1.6-5.338-0.487a0.252 0.252 0 0 1-0.242-0.003C10.994 12.4 11 12.288 11 12.288V7c0-0.312 0.26-0.722 0.5-1 1.446-1.448 4.3 0.107 4.827 0.323 0.046 0.019 0.07 0.051 0.09 0.073 0.03 0.035 0.039 0.104 0.039 0.104l0.543 6.248s0.014 0.119-0.08 0.19a0.22 0.22 0 0 1-0.244 0.02z m-4.81 2.728a0.24 0.24 0 0 0 0.118-0.077 0.214 0.214 0 0 0 0.042-0.109c0.05-0.938 1.624-1.812 4.648-0.03 0.077 0.044 0.166 0.04 0.242-0.015 0.086-0.063 0.085-0.17 0.085-0.17v-0.553s0-0.077-0.027-0.119a0.227 0.227 0 0 0-0.093-0.085c-2.025-1.315-4.586-1.898-5.885-0.16a0.197 0.197 0 0 1-0.073 0.09c-0.057 0.045-0.126 0.042-0.126 0.042h-0.585s-0.07 0.003-0.126-0.041a0.197 0.197 0 0 1-0.073-0.09c-1.3-1.739-3.86-1.184-5.885 0.131a0.227 0.227 0 0 0-0.093 0.086c-0.027 0.042-0.027 0.118-0.027 0.118v0.554s-0.001 0.107 0.085 0.17c0.076 0.054 0.165 0.059 0.243 0.015 3.023-1.782 4.598-0.88 4.647 0.057a0.214 0.214 0 0 0 0.043 0.109 0.24 0.24 0 0 0 0.118 0.077c0.721 0.18 1.768 0.25 2.722 0z" fill="hsl(20, 2%, 55%)" stroke="hsl(175, 5%, 100%)" stroke-linejoin="round" stroke-miterlimit="4px" stroke-width="2"/><path d="M4.082 12.939C3.987 12.867 4 12.748 4 12.748L4.526 6.5s0.008-0.069 0.039-0.104c0.019-0.022 0.043-0.054 0.09-0.073C5.182 6.107 8.053 4.552 9.5 6c0.24 0.278 0.5 0.688 0.5 1v5.288s0.006 0.112-0.095 0.18a0.252 0.252 0 0 1-0.242 0.003c-2.226-1.114-4.711 0.154-5.338 0.487a0.22 0.22 0 0 1-0.243-0.02z m12.593 0.019c-0.627-0.333-3.112-1.6-5.338-0.487a0.252 0.252 0 0 1-0.242-0.003C10.994 12.4 11 12.288 11 12.288V7c0-0.312 0.26-0.722 0.5-1 1.446-1.448 4.3 0.107 4.827 0.323 0.046 0.019 0.07 0.051 0.09 0.073 0.03 0.035 0.039 0.104 0.039 0.104l0.543 6.248s0.014 0.119-0.08 0.19a0.22 0.22 0 0 1-0.244 0.02z m-4.81 2.728a0.24 0.24 0 0 0 0.118-0.077 0.214 0.214 0 0 0 0.042-0.109c0.05-0.938 1.624-1.812 4.648-0.03 0.077 0.044 0.166 0.04 0.242-0.015 0.086-0.063 0.085-0.17 0.085-0.17v-0.553s0-0.077-0.027-0.119a0.227 0.227 0 0 0-0.093-0.085c-2.025-1.315-4.586-1.898-5.885-0.16a0.197 0.197 0 0 1-0.073 0.09c-0.057 0.045-0.126 0.042-0.126 0.042h-0.585s-0.07 0.003-0.126-0.041a0.197 0.197 0 0 1-0.073-0.09c-1.3-1.739-3.86-1.184-5.885 0.131a0.227 0.227 0 0 0-0.093 0.086c-0.027 0.042-0.027 0.118-0.027 0.118v0.554s-0.001 0.107 0.085 0.17c0.076 0.054 0.165 0.059 0.243 0.015 3.023-1.782 4.598-0.88 4.647 0.057a0.214 0.214 0 0 0 0.043 0.109 0.24 0.24 0 0 0 0.118 0.077c0.721 0.18 1.768 0.25 2.722 0z" fill="hsl(20, 2%, 55%)"/></g></svg>