<svg xmlns="http://www.w3.org/2000/svg" id="mx-federal-2" width="18" height="22" viewBox="0 0 18 22"><g><path d="M0,0 H18 V22 H0 Z" fill="none"/><path d="M3,1,1,4V6.5a2.34,2.34,0,0,1,0,4A10.248,10.248,0,0,0,9,21c1.6-.4,8.1-3.3,8-10.5a2.34,2.34,0,0,1,0-4V4L15,1a4.571,4.571,0,0,1-3,1.5A5.075,5.075,0,0,1,9,1,4.571,4.571,0,0,1,6,2.5,4.809,4.809,0,0,1,3,1Z" fill="none" stroke="hsl(230, 18%, 13%)" stroke-linejoin="round" stroke-miterlimit="4px" stroke-width="2"/><path d="M3,1,1,4V6.5a2.34,2.34,0,0,1,0,4A10.248,10.248,0,0,0,9,21c1.6-.4,8.1-3.3,8-10.5a2.34,2.34,0,0,1,0-4V4L15,1a4.571,4.571,0,0,1-3,1.5A5.075,5.075,0,0,1,9,1,4.571,4.571,0,0,1,6,2.5,4.809,4.809,0,0,1,3,1Z" fill="hsl(0, 0%, 100%)"/><path d="M16.95,5H1.05a.5.5,0,1,1,0-1h15.9a.5.5,0,0,1,0,1Z" fill="hsl(230, 18%, 13%)"/><path d="M0,8 H18 V14 H0 Z" fill="none" id="mapbox-text-placeholder"/></g></svg>