<svg xmlns="http://www.w3.org/2000/svg" id="mx-federal-3" width="23" height="22" viewBox="0 0 23 22"><g><path d="M0,0 H23 V22 H0 Z" fill="none"/><path d="M4.95,1l-4,3V6.5a2.284,2.284,0,0,1,0,4c0,8,8.715,10.1,10.5,10.5,1.68-.4,10.6-3.3,10.5-10.5a2.284,2.284,0,0,1,0-4V4l-4-3A5.136,5.136,0,0,1,14.7,2.5,5.708,5.708,0,0,1,11.45,1,5.136,5.136,0,0,1,8.2,2.5,5.413,5.413,0,0,1,4.95,1Z" fill="none" stroke="hsl(230, 18%, 13%)" stroke-linejoin="round" stroke-miterlimit="4px" stroke-width="2"/><path d="M4.95,1l-4,3V6.5a2.284,2.284,0,0,1,0,4c0,8,8.715,10.1,10.5,10.5,1.68-.4,10.6-3.3,10.5-10.5a2.284,2.284,0,0,1,0-4V4l-4-3A5.136,5.136,0,0,1,14.7,2.5,5.708,5.708,0,0,1,11.45,1,5.136,5.136,0,0,1,8.2,2.5,5.413,5.413,0,0,1,4.95,1Z" fill="hsl(0, 0%, 100%)"/><path d="M22.5,5H.5a.5.5,0,0,1,0-1h22a.5.5,0,0,1,0,1Z" fill="hsl(230, 18%, 13%)"/><path d="M0,8 H23 V14 H0 Z" fill="none" id="mapbox-text-placeholder"/></g></svg>