<svg xmlns="http://www.w3.org/2000/svg" id="mx-federal-4" width="28" height="22" viewBox="0 0 28 22"><g><path d="M0.05,0 H28 V22 H0.05 Z" fill="none"/><path d="M6,1,1,4V6.5c1.95,1,1.95,3,0,4,0,8,10.79,10.1,13,10.5,2.08-.4,13.13-3.3,13-10.5-1.95-1-1.95-3,0-4V4L22,1a7.031,7.031,0,0,1-4,1.5A7.826,7.826,0,0,1,14,1a7.028,7.028,0,0,1-4,1.5A7.4,7.4,0,0,1,6,1Z" fill="none" stroke="hsl(230, 18%, 13%)" stroke-linejoin="round" stroke-miterlimit="4px" stroke-width="2"/><path d="M6,1,1,4V6.5c1.95,1,1.95,3,0,4,0,8,10.79,10.1,13,10.5,2.08-.4,13.13-3.3,13-10.5-1.95-1-1.95-3,0-4V4L22,1a7.031,7.031,0,0,1-4,1.5A7.826,7.826,0,0,1,14,1a7.028,7.028,0,0,1-4,1.5A7.4,7.4,0,0,1,6,1Z" fill="hsl(0, 0%, 100%)"/><path d="M27,5H1A.5.5,0,0,1,1,4H27a.5.5,0,0,1,0,1Z" fill="hsl(230, 18%, 13%)"/><path d="M0,8 H28 V14 H0 Z" fill="none" id="mapbox-text-placeholder"/></g></svg>