<svg xmlns="http://www.w3.org/2000/svg" id="my-federal-3" width="28" height="16" viewBox="0 0 28 16"><g><path d="M0,0 H28 V16 H0 Z" fill="none"/><path d="M14,1,25,3a2.151,2.151,0,0,1,2,2v6a2.151,2.151,0,0,1-2,2L14,15,3,13a2.151,2.151,0,0,1-2-2V5A2.151,2.151,0,0,1,3,3Z" fill="none" stroke="hsl(230, 18%, 13%)" stroke-linejoin="round" stroke-miterlimit="4px" stroke-width="2"/><path d="M14,1,25,3a2.151,2.151,0,0,1,2,2v6a2.151,2.151,0,0,1-2,2L14,15,3,13a2.151,2.151,0,0,1-2-2V5A2.151,2.151,0,0,1,3,3Z" fill="hsl(50, 100%, 70%)"/><path d="M0,5 H28 V11 H0 Z" fill="none" id="mapbox-text-placeholder"/></g></svg>