<svg xmlns="http://www.w3.org/2000/svg" id="observation-tower" width="21" height="21" viewBox="0 0 21 21"><g><path d="M0,0 H21 V21 H0 Z" fill="none"/><path d="M15 15.5h-0.5L13 12V10c0.995 0 0.995-0.75 0.995-0.75L14.5 6s0-0.5-0.5-0.5h-1s0-0.5-0.5-0.5h-1v-0.5s0-1-1-1-1 1-1 1V5h-1c-0.5 0-0.5 0.5-0.5 0.5H7c-0.5 0-0.5 0.5-0.5 0.5l0.505 3.25S7.005 10 8 10v2l-1.5 3.5H6s-1 0-1 0.75S6 17 6 17h9s1 0 1-0.75-1-0.75-1-0.75z m-1.75-9L13 8H8l-0.25-1.503 5.5 0.003zM11.5 10v1h-2V10h2z m-2 2.497h2l1 3.003h-4l1-3.003z" fill="hsl(20, 2%, 55%)" stroke="hsl(175, 5%, 100%)" stroke-linejoin="round" stroke-miterlimit="4px" stroke-width="2"/><path d="M15 15.5h-0.5L13 12V10c0.995 0 0.995-0.75 0.995-0.75L14.5 6s0-0.5-0.5-0.5h-1s0-0.5-0.5-0.5h-1v-0.5s0-1-1-1-1 1-1 1V5h-1c-0.5 0-0.5 0.5-0.5 0.5H7c-0.5 0-0.5 0.5-0.5 0.5l0.505 3.25S7.005 10 8 10v2l-1.5 3.5H6s-1 0-1 0.75S6 17 6 17h9s1 0 1-0.75-1-0.75-1-0.75z m-1.75-9L13 8H8l-0.25-1.503 5.5 0.003zM11.5 10v1h-2V10h2z m-2 2.497h2l1 3.003h-4l1-3.003z" fill="hsl(20, 2%, 55%)"/></g></svg>