<svg xmlns="http://www.w3.org/2000/svg" id="pe-national-3" width="22" height="26" viewBox="0 0 22 26"><g><path d="M0,0 H22 V26 H0 Z" fill="none"/><path d="M8,19.5A4.37,4.37,0,0,1,11,21a4.374,4.374,0,0,1,3-1.5c.987-.163,7-.5,7-4.5,0-3.958-2-4.042-2-7,0-1.958.348-2.893,2-4L19,1a6.744,6.744,0,0,1-4,1.5A5.878,5.878,0,0,1,11,1,5.989,5.989,0,0,1,7,2.5,6.956,6.956,0,0,1,3,1L1,4A4.351,4.351,0,0,1,3,8c0,3.042-2,3.042-2,7C1,19.036,7.056,19.345,8,19.5Z" fill="none" stroke="hsl(230, 18%, 13%)" stroke-linejoin="round" stroke-miterlimit="4px" stroke-width="2"/><path d="M8,19.5A4.37,4.37,0,0,1,11,21a4.374,4.374,0,0,1,3-1.5c.987-.163,7-.5,7-4.5,0-3.958-2-4.042-2-7,0-1.958.348-2.893,2-4L19,1a6.744,6.744,0,0,1-4,1.5A5.878,5.878,0,0,1,11,1,5.989,5.989,0,0,1,7,2.5,6.956,6.956,0,0,1,3,1L1,4A4.351,4.351,0,0,1,3,8c0,3.042-2,3.042-2,7C1,19.036,7.056,19.345,8,19.5Z" fill="hsl(0, 0%, 100%)"/><path d="M15,2.5A5.878,5.878,0,0,1,11,1,5.989,5.989,0,0,1,7,2.5,6.956,6.956,0,0,1,3,1L1,4A4.211,4.211,0,0,1,2.922,7H19.05A3.677,3.677,0,0,1,21,4L19,1A6.744,6.744,0,0,1,15,2.5Z" fill="hsl(0, 87%, 59%)"/><path d="M0,10 H22 V16 H0 Z" fill="none" id="mapbox-text-placeholder"/></g></svg>