<svg xmlns="http://www.w3.org/2000/svg" id="pe-national-2" width="18" height="26" viewBox="0 0 18 26"><g><path d="M0,0 H18 V26 H0 Z" fill="none"/><path d="M6,19.5A4.37,4.37,0,0,1,9,21a4.374,4.374,0,0,1,3-1.5c.987-.163,5-.5,5-4.5,0-3.958-2-4.042-2-7,0-1.958.348-2.893,2-4L15,1a4.3,4.3,0,0,1-3,1A4.483,4.483,0,0,1,9,1,4.543,4.543,0,0,1,6,2,4.3,4.3,0,0,1,3,1L1,4A4.351,4.351,0,0,1,3,8c0,3.042-2,3.042-2,7C1,19.036,5.056,19.345,6,19.5Z" fill="none" stroke="hsl(230, 18%, 13%)" stroke-linejoin="round" stroke-miterlimit="4px" stroke-width="2"/><path d="M6,19.5A4.37,4.37,0,0,1,9,21a4.374,4.374,0,0,1,3-1.5c.987-.163,5-.5,5-4.5,0-3.958-2-4.042-2-7,0-1.958.348-2.893,2-4L15,1a4.3,4.3,0,0,1-3,1A4.483,4.483,0,0,1,9,1,4.543,4.543,0,0,1,6,2,4.3,4.3,0,0,1,3,1L1,4A4.351,4.351,0,0,1,3,8c0,3.042-2,3.042-2,7C1,19.036,5.056,19.345,6,19.5Z" fill="hsl(0, 0%, 100%)"/><path d="M12,2A4.483,4.483,0,0,1,9,1,4.543,4.543,0,0,1,6,2,4.3,4.3,0,0,1,3,1L1,4A4.211,4.211,0,0,1,2.922,7H15.05A3.677,3.677,0,0,1,17,4L15,1A4.3,4.3,0,0,1,12,2Z" fill="hsl(0, 87%, 59%)"/><path d="M0,10 H18 V16 H0 Z" fill="none" id="mapbox-text-placeholder"/></g></svg>