<svg xmlns="http://www.w3.org/2000/svg" id="racetrack-horse" width="21" height="21" viewBox="0 0 21 21"><g><path d="M0,0 H21 V21 H0 Z" fill="none"/><path d="M13 4a1 1 0 1 0 0 2 1 1 0 0 0 0-2zM8.5 6c-0.25 0-1 0-0.5 0.75L9.25 9H7.5c-0.277 0.003-0.517 0.1-0.75 0.25-0.806-1.129-1.508-0.698-2.24-0.25-0.403 0.247-0.816 0.499-1.26 0.5a0.258 0.258 0 0 0-0.25 0.25 0.258 0.258 0 0 0 0.25 0.25c0.376 0.02 0.807-0.093 1.238-0.207 0.656-0.173 1.31-0.345 1.766-0.043C6.16 9.937000000000001 6 10.5 6 11l-0.002 1.51c-0.206 0.204-0.379 0.123-0.555 0.04-0.14-0.065-0.283-0.13-0.443-0.05l-1 2.95c0 0.25 0.393 0.302 0.5 0.05l0.75-1.756C5.998 13.744 7.5 13 8 12l4 1 2.5 2.5c0.197 0.197 0.62-0.138 0.46-0.385L13 12l2-2.5c0.248 0.5 0.495 0.5 0.986 0.5H16l0.6 0.75c0.388 0.485 1.22-0.007 0.9-0.5l-1.666-2.46L16 7.5c0.062-0.187-0.363-0.576-0.5-0.5l-2 1.5-1.61-2.313A0.5 0.5 0 0 0 11.5 6h-3zM12 8.25l0.5 0.75-2.723 1.916a0.5 0.5 0 1 1-0.554-0.832L12 8.25z" fill="hsl(20, 2%, 55%)" stroke="hsl(175, 5%, 100%)" stroke-linejoin="round" stroke-miterlimit="4px" stroke-width="2"/><path d="M13 4a1 1 0 1 0 0 2 1 1 0 0 0 0-2zM8.5 6c-0.25 0-1 0-0.5 0.75L9.25 9H7.5c-0.277 0.003-0.517 0.1-0.75 0.25-0.806-1.129-1.508-0.698-2.24-0.25-0.403 0.247-0.816 0.499-1.26 0.5a0.258 0.258 0 0 0-0.25 0.25 0.258 0.258 0 0 0 0.25 0.25c0.376 0.02 0.807-0.093 1.238-0.207 0.656-0.173 1.31-0.345 1.766-0.043C6.16 9.937000000000001 6 10.5 6 11l-0.002 1.51c-0.206 0.204-0.379 0.123-0.555 0.04-0.14-0.065-0.283-0.13-0.443-0.05l-1 2.95c0 0.25 0.393 0.302 0.5 0.05l0.75-1.756C5.998 13.744 7.5 13 8 12l4 1 2.5 2.5c0.197 0.197 0.62-0.138 0.46-0.385L13 12l2-2.5c0.248 0.5 0.495 0.5 0.986 0.5H16l0.6 0.75c0.388 0.485 1.22-0.007 0.9-0.5l-1.666-2.46L16 7.5c0.062-0.187-0.363-0.576-0.5-0.5l-2 1.5-1.61-2.313A0.5 0.5 0 0 0 11.5 6h-3zM12 8.25l0.5 0.75-2.723 1.916a0.5 0.5 0 1 1-0.554-0.832L12 8.25z" fill="hsl(20, 2%, 55%)"/></g></svg>