<svg xmlns="http://www.w3.org/2000/svg" id="racetrack-cycling" width="21" height="21" viewBox="0 0 21 21"><g><path d="M0,0 H21 V21 H0 Z" fill="none"/><path d="M11 4l3 3h1c2 0 2-3 0-3H11z m0.463 2a0.5 0.5 0 0 0-0.317 0.146l-2.5 2.5a0.5 0.5 0 0 0 0.042 0.745l2.158 1.726-1.276 2.125a0.501 0.501 0 1 0 0.86 0.516l1.5-2.5a0.5 0.5 0 0 0-0.117-0.649L10.304 9.402000000000001 12 7.707l1.146 1.147A0.5 0.5 0 0 0 13.5 9H16a0.5 0.5 0 0 0 0-1h-2.293L11.854 6.146A0.5 0.5 0 0 0 11.463 6zM5.949 10a3 3 0 1 0 0.1 6 3 3 0 0 0-0.099-6h-0.001z m9 0a3 3 0 1 0 0.1 6 3 3 0 0 0-0.099-6h-0.001z m0.1 1a2 2 0 1 1-0.098 3.998A2 2 0 0 1 15.05 11z" fill="hsl(20, 2%, 55%)" stroke="hsl(175, 5%, 100%)" stroke-linejoin="round" stroke-miterlimit="4px" stroke-width="2"/><path d="M11 4l3 3h1c2 0 2-3 0-3H11z m0.463 2a0.5 0.5 0 0 0-0.317 0.146l-2.5 2.5a0.5 0.5 0 0 0 0.042 0.745l2.158 1.726-1.276 2.125a0.501 0.501 0 1 0 0.86 0.516l1.5-2.5a0.5 0.5 0 0 0-0.117-0.649L10.304 9.402000000000001 12 7.707l1.146 1.147A0.5 0.5 0 0 0 13.5 9H16a0.5 0.5 0 0 0 0-1h-2.293L11.854 6.146A0.5 0.5 0 0 0 11.463 6zM5.949 10a3 3 0 1 0 0.1 6 3 3 0 0 0-0.099-6h-0.001z m9 0a3 3 0 1 0 0.1 6 3 3 0 0 0-0.099-6h-0.001z m0.1 1a2 2 0 1 1-0.098 3.998A2 2 0 0 1 15.05 11z" fill="hsl(20, 2%, 55%)"/></g></svg>