<svg xmlns="http://www.w3.org/2000/svg" id="racetrack-boat" width="21" height="21" viewBox="0 0 21 21"><g><path d="M0,0 H21 V21 H0 Z" fill="none"/><path d="M13.064 15.216c0.47-0.513 0.936-1.022 1.594-1.242a2.004 2.004 0 0 1 1.867 0.28c0.724 0.532 1.39-0.22 0.591-0.806a3.023 3.023 0 0 0-2.774-0.423c-0.72 0.24-1.213 0.767-1.705 1.294-0.4 0.427-0.8 0.855-1.322 1.129-0.62 0.324-1.065-0.027-1.065-0.636V14.8c0-0.798-0.408-1.3-1.25-1.3-0.49 0-0.992 0.258-1.5 0.5a16.15 16.15 0 0 0-3.317 2.113 0.505 0.505 0 0 0-0.067 0.707c0.25 0.3 0.58 0.162 0.83-0.038 0.413-0.333 1.78-1.391 2.933-1.94 0.477-0.227 0.862-0.342 1.121-0.342 0.25 0 0.25 0.102 0.25 0.34-0.002 1.326 1.29 2.142 2.529 1.494 0.504-0.265 0.896-0.692 1.285-1.118zM5.5 13c1.5-1 3.255-2 5-2 0.75 0 0.75 0.375 0.75 0.75s0 0.75 0.75 0.75c2.527 0 5.363-3.214 5.5-5.5L15 8l-2.342-0.974c-0.612-0.204-0.928 0.744-0.316 0.948L13.5 8.5 12 9 8 7.75c-0.236-0.079-0.389 0.027-0.5 0.25L6 11 4 12l1.5 1zM8 6a1 1 0 1 1 2 0 1 1 0 0 1-2 0z" fill="hsl(20, 2%, 55%)" stroke="hsl(175, 5%, 100%)" stroke-linejoin="round" stroke-miterlimit="4px" stroke-width="2"/><path d="M13.064 15.216c0.47-0.513 0.936-1.022 1.594-1.242a2.004 2.004 0 0 1 1.867 0.28c0.724 0.532 1.39-0.22 0.591-0.806a3.023 3.023 0 0 0-2.774-0.423c-0.72 0.24-1.213 0.767-1.705 1.294-0.4 0.427-0.8 0.855-1.322 1.129-0.62 0.324-1.065-0.027-1.065-0.636V14.8c0-0.798-0.408-1.3-1.25-1.3-0.49 0-0.992 0.258-1.5 0.5a16.15 16.15 0 0 0-3.317 2.113 0.505 0.505 0 0 0-0.067 0.707c0.25 0.3 0.58 0.162 0.83-0.038 0.413-0.333 1.78-1.391 2.933-1.94 0.477-0.227 0.862-0.342 1.121-0.342 0.25 0 0.25 0.102 0.25 0.34-0.002 1.326 1.29 2.142 2.529 1.494 0.504-0.265 0.896-0.692 1.285-1.118zM5.5 13c1.5-1 3.255-2 5-2 0.75 0 0.75 0.375 0.75 0.75s0 0.75 0.75 0.75c2.527 0 5.363-3.214 5.5-5.5L15 8l-2.342-0.974c-0.612-0.204-0.928 0.744-0.316 0.948L13.5 8.5 12 9 8 7.75c-0.236-0.079-0.389 0.027-0.5 0.25L6 11 4 12l1.5 1zM8 6a1 1 0 1 1 2 0 1 1 0 0 1-2 0z" fill="hsl(20, 2%, 55%)"/></g></svg>