<svg xmlns="http://www.w3.org/2000/svg" id="racetrack" width="21" height="21" viewBox="0 0 21 21"><g><path d="M0,0 H21 V21 H0 Z" fill="none"/><path d="M7.993 4.582a0.5 0.5 0 1 0-0.986-0.164l-2 12a0.5 0.5 0 1 0 0.986 0.164l0.67-4.02c0.806 0.118 1.677 0.157 2.363 0.638a3.3 3.3 0 0 0 1.432 0.583c0.966 0.146 1.83-0.385 2.784-0.234l1.289 0.194c0.26 0.04 0.53-0.16 0.569-0.42l0.884-5.934 0.004-0.004a0.518 0.518 0 0 0-0.427-0.564l-1.289-0.194c-0.963-0.143-1.829 0.373-2.783 0.23A2.8 2.8 0 0 1 10.3 6.38c-0.739-0.517-1.619-0.603-2.486-0.725l0.18-1.074z m-0.59 3.538l0.33-1.972c0.599 0.082 1.233 0.129 1.788 0.369l-0.295 1.965c-0.57-0.233-1.213-0.278-1.822-0.362zM6.746 12.07l0.33-1.974c0.62 0.086 1.277 0.13 1.858 0.368l0.3-1.976c0.658 0.27 1.159 0.733 1.893 0.841l0.3-1.98c0.738 0.111 1.349-0.177 2.058-0.234l-0.3 1.966c-0.71 0.06-1.324 0.36-2.06 0.25l-0.286 1.978c-0.736-0.11-1.238-0.575-1.899-0.844l-0.3 1.976c-0.595-0.239-1.263-0.281-1.894-0.371z m4.094-0.76c0.734 0.11 1.351-0.192 2.061-0.251l0.284-1.978c0.655-0.06 1.325 0.111 1.968 0.209l-0.28 1.976c-0.644-0.097-1.316-0.269-1.971-0.207l-0.3 1.976c-0.709 0.048-1.335 0.36-2.062 0.25l0.3-1.976z" fill="hsl(20, 2%, 55%)" stroke="hsl(175, 5%, 100%)" stroke-linejoin="round" stroke-miterlimit="4px" stroke-width="2"/><path d="M7.993 4.582a0.5 0.5 0 1 0-0.986-0.164l-2 12a0.5 0.5 0 1 0 0.986 0.164l0.67-4.02c0.806 0.118 1.677 0.157 2.363 0.638a3.3 3.3 0 0 0 1.432 0.583c0.966 0.146 1.83-0.385 2.784-0.234l1.289 0.194c0.26 0.04 0.53-0.16 0.569-0.42l0.884-5.934 0.004-0.004a0.518 0.518 0 0 0-0.427-0.564l-1.289-0.194c-0.963-0.143-1.829 0.373-2.783 0.23A2.8 2.8 0 0 1 10.3 6.38c-0.739-0.517-1.619-0.603-2.486-0.725l0.18-1.074z m-0.59 3.538l0.33-1.972c0.599 0.082 1.233 0.129 1.788 0.369l-0.295 1.965c-0.57-0.233-1.213-0.278-1.822-0.362zM6.746 12.07l0.33-1.974c0.62 0.086 1.277 0.13 1.858 0.368l0.3-1.976c0.658 0.27 1.159 0.733 1.893 0.841l0.3-1.98c0.738 0.111 1.349-0.177 2.058-0.234l-0.3 1.966c-0.71 0.06-1.324 0.36-2.06 0.25l-0.286 1.978c-0.736-0.11-1.238-0.575-1.899-0.844l-0.3 1.976c-0.595-0.239-1.263-0.281-1.894-0.371z m4.094-0.76c0.734 0.11 1.351-0.192 2.061-0.251l0.284-1.978c0.655-0.06 1.325 0.111 1.968 0.209l-0.28 1.976c-0.644-0.097-1.316-0.269-1.971-0.207l-0.3 1.976c-0.709 0.048-1.335 0.36-2.062 0.25l0.3-1.976z" fill="hsl(20, 2%, 55%)"/></g></svg>