<svg xmlns="http://www.w3.org/2000/svg" id="rail" width="21" height="21" viewBox="0 0 21 21"><g><path d="M2,1 H15 C15,1 16,1 16,2 V15 C16,15 16,16 15,16 H2 C2,16 1,16 1,15 V2 C1,2 1,1 2,1" fill="hsl(40, 3%, 70%)" stroke="hsl(175, 5%, 100%)" stroke-linejoin="round" stroke-miterlimit="4px" stroke-width="2"/><path d="M2,1 H15 C15,1 16,1 16,2 V15 C16,15 16,16 15,16 H2 C2,16 1,16 1,15 V2 C1,2 1,1 2,1" fill="hsl(40, 3%, 70%)"/><path d="M4.800000000000001 3.2a0.8 0.8 0 0 0-0.8 0.8v6.4a0.8 0.8 0 0 0 0.8 0.8h7.2a0.8 0.8 0 0 0 0.8-0.8V4a0.8 0.8 0 0 0-0.8-0.8H4.800000000000001z m2.2 0.4h2.808a0.2 0.2 0 1 1 0 0.4H7.000000000000001a0.2 0.2 0 1 1 0-0.4zM5.200000000000001 4.800000000000001H8v3.2H5.200000000000001a0.4 0.4 0 0 1-0.4-0.4v-2.4000000000000004a0.4 0.4 0 0 1 0.4-0.4zM8.8 4.800000000000001h2.8000000000000003a0.4 0.4 0 0 1 0.4 0.4v2.4000000000000004a0.4 0.4 0 0 1-0.4 0.4H8.8V4.800000000000001zM6.4 8.8a0.8 0.8 0 1 1 0 1.6 0.8 0.8 0 0 1 0-1.6z m4 0a0.8 0.8 0 1 1 0 1.6 0.8 0.8 0 0 1 0-1.6z m0.35600000000000004 3.1952000000000003a0.4032 0.4032 0 0 0-0.34 0.5408000000000001l0.136 0.264H6.248l0.10400000000000001-0.21600000000000003a0.4 0.4 0 0 0-0.7280000000000001-0.328l-0.8 1.6a0.3896 0.3896 0 0 0-0.024 0.144 0.4 0.4 0 0 0 0.4 0.4 0.392 0.392 0 0 0 0.34400000000000003-0.20800000000000002v-0.04000000000000001H5.6000000000000005l0.248-0.5519999999999999h5.104l0.248 0.5519999999999999v0.04000000000000001a0.392 0.392 0 0 0 0.34400000000000003 0.20800000000000002 0.4 0.4 0 0 0 0.4-0.4 0.392 0.392 0 0 0 0-0.192l-0.8-1.6a0.4 0.4 0 0 0-0.388-0.21280000000000002z" fill="hsl(175, 5%, 100%)"/></g></svg>