<svg xmlns="http://www.w3.org/2000/svg" id="rail-metro" width="21" height="21" viewBox="0 0 21 21"><g><path d="M2,1 H15 C15,1 16,1 16,2 V15 C16,15 16,16 15,16 H2 C2,16 1,16 1,15 V2 C1,2 1,1 2,1" fill="hsl(40, 3%, 70%)" stroke="hsl(175, 5%, 100%)" stroke-linejoin="round" stroke-miterlimit="4px" stroke-width="2"/><path d="M2,1 H15 C15,1 16,1 16,2 V15 C16,15 16,16 15,16 H2 C2,16 1,16 1,15 V2 C1,2 1,1 2,1" fill="hsl(40, 3%, 70%)"/><path d="M6.800000000000001 2.4000000000000004s-0.6000000000000001 0-0.8 0.8L4.800000000000001 7.6000000000000005V10.4c0 0.8 0.8 0.8 0.8 0.8h5.6000000000000005s0.8 0 0.8-0.8V7.6000000000000005L10.8 3.2c-0.21840000000000004-0.8-0.8-0.8-0.8-0.8h-3.2z m0.8 1.2000000000000002h1.6s0.42880000000000007 0 0.6000000000000001 0.8L10.4 7.200000000000001c0.17200000000000001 0.8016000000000001-0.8 0.8-0.8 0.8H7.200000000000001s-0.9720000000000001 0.0016-0.8-0.8l0.6000000000000001-2.8000000000000003c0.17120000000000002-0.8 0.6000000000000001-0.8 0.6000000000000001-0.8zM6.4 8.8a0.8 0.8 0 1 1 0 1.6 0.8 0.8 0 0 1 0-1.6z m1.4000000000000001 0h1.2000000000000002a0.2 0.2 0 1 1 0 0.4h-1.2000000000000002a0.2 0.2 0 1 1 0-0.4zM10.4 8.8a0.8 0.8 0 1 1 0 1.6 0.8 0.8 0 0 1 0-1.6z m-4.7 3.2L4.800000000000001 14.4h1.2000000000000002l0.30000000000000004-0.8h4.2l0.30000000000000004 0.8H12.000000000000002l-0.9-2.4000000000000004h-1.2000000000000002l0.30000000000000004 0.8h-3.6l0.30000000000000004-0.8h-1.2000000000000002z" fill="hsl(175, 5%, 100%)"/></g></svg>