<svg xmlns="http://www.w3.org/2000/svg" id="rail-light" width="21" height="21" viewBox="0 0 21 21"><g><path d="M2,1 H15 C15,1 16,1 16,2 V15 C16,15 16,16 15,16 H2 C2,16 1,16 1,15 V2 C1,2 1,1 2,1" fill="hsl(40, 3%, 70%)" stroke="hsl(175, 5%, 100%)" stroke-linejoin="round" stroke-miterlimit="4px" stroke-width="2"/><path d="M2,1 H15 C15,1 16,1 16,2 V15 C16,15 16,16 15,16 H2 C2,16 1,16 1,15 V2 C1,2 1,1 2,1" fill="hsl(40, 3%, 70%)"/><path d="M6.800000000000001 2.4000000000000004C6.4 2.4000000000000004 6.4 2.8000000000000003 6.4 2.8000000000000003v0.8a0.3992 0.3992 0 1 0 0.8 0V3.2h0.8v1.6H7.200000000000001S5.6000000000000005 4.800000000000001 5.6000000000000005 6.4v2.4000000000000004c0 2.4000000000000004 2.4000000000000004 2.4000000000000004 2.4000000000000004 2.4000000000000004h0.8s2.4000000000000004 0 2.4000000000000004-2.4000000000000004V6.4c0-1.6-1.6-1.6-1.6-1.6H8.8V3.2h0.8v0.4a0.3992 0.3992 0 1 0 0.8 0v-0.8c0-0.4-0.4-0.4-0.4-0.4h-3.2z m1.6 3.2l1.6360000000000001 0.6184000000000001L10.4 7.6000000000000005c0.10560000000000001 0.4-0.4 0.4-0.4 0.4h-3.2s-0.5056 0-0.4-0.4l0.36400000000000005-1.3816000000000002L8.4 5.6000000000000005z m0 3.2a0.4 0.4 0 1 1 0 0.8 0.4 0.4 0 0 1 0-0.8z m-2.7 3.2L4.800000000000001 14.4h1.2000000000000002l0.30000000000000004-0.8h4.2l0.30000000000000004 0.8H12.000000000000002l-0.9-2.4000000000000004h-1.2000000000000002l0.30000000000000004 0.8h-3.6l0.30000000000000004-0.8h-1.2000000000000002z" fill="hsl(175, 5%, 100%)"/></g></svg>