<svg xmlns="http://www.w3.org/2000/svg" id="rectangle-blue-2" width="20" height="14" viewBox="0 0 20 14"><g><path d="M0,0 H20 V14 H0 Z" fill="none"/><path d="M3,1 H17 C17,1 19,1 19,3 V11 C19,11 19,13 17,13 H3 C3,13 1,13 1,11 V3 C1,3 1,1 3,1" fill="none" stroke="hsl(0, 0%, 100%)" stroke-linejoin="round" stroke-miterlimit="4px" stroke-width="2"/><path d="M3,1 H17 C17,1 19,1 19,3 V11 C19,11 19,13 17,13 H3 C3,13 1,13 1,11 V3 C1,3 1,1 3,1" fill="hsl(230, 57%, 54%)"/><path d="M0,4 H20 V10 H0 Z" fill="none" id="mapbox-text-placeholder"/></g></svg>