<svg xmlns="http://www.w3.org/2000/svg" id="rectangle-blue-6" width="44" height="14" viewBox="0 0 44 14"><g><path d="M0,0 H44 V14 H0 Z" fill="none"/><path d="M3,1 H41 C41,1 43,1 43,3 V11 C43,11 43,13 41,13 H3 C3,13 1,13 1,11 V3 C1,3 1,1 3,1" fill="none" stroke="hsl(0, 0%, 100%)" stroke-linejoin="round" stroke-miterlimit="4px" stroke-width="2"/><path d="M3,1 H41 C41,1 43,1 43,3 V11 C43,11 43,13 41,13 H3 C3,13 1,13 1,11 V3 C1,3 1,1 3,1" fill="hsl(230, 57%, 54%)"/><path d="M0,4 H44 V10 H0 Z" fill="none" id="mapbox-text-placeholder"/></g></svg>