<svg xmlns="http://www.w3.org/2000/svg" id="rectangle-yellow-3" width="26" height="14" viewBox="0 0 26 14"><g><path d="M0,0 H26 V14 H0 Z" fill="none"/><path d="M3,1 H23 C23,1 25,1 25,3 V11 C25,11 25,13 23,13 H3 C3,13 1,13 1,11 V3 C1,3 1,1 3,1" fill="none" stroke="hsl(230, 18%, 13%)" stroke-linejoin="round" stroke-miterlimit="4px" stroke-width="2"/><path d="M3,1 H23 C23,1 25,1 25,3 V11 C25,11 25,13 23,13 H3 C3,13 1,13 1,11 V3 C1,3 1,1 3,1" fill="hsl(50, 100%, 70%)"/><path d="M0,4 H26 V10 H0 Z" fill="none" id="mapbox-text-placeholder"/></g></svg>