<svg xmlns="http://www.w3.org/2000/svg" id="restaurant-bbq" width="21" height="21" viewBox="0 0 21 21"><g><path d="M0,0 H21 V21 H0 Z" fill="none"/><path d="M15.017 15.5H17.5L15 18v-2.483a1.619 1.619 0 0 1-1.137 0.48 1.6 1.6 0 0 1-0.993-0.345 6.784 6.784 0 0 1 0.008-10.31 1.618 1.618 0 0 1 2.122 0.12V3l2.5 2.5h-2.464a1.593 1.593 0 0 1 0.122 0.129 1.624 1.624 0 0 1-0.287 2.28 3.515 3.515 0 0 0-1.121 2.586 3.558 3.558 0 0 0 1.147 2.616 1.635 1.635 0 0 1 0.232 2.279c-0.034 0.041-0.075 0.072-0.112 0.11zM5.504 3l-1 5.5c-0.146 0.805 1.781 1.181 1.75 2l-0.25 6.5a0.963 0.963 0 0 0 1 1 0.963 0.963 0 0 0 1-1l-0.25-6.5c-0.031-0.818 1.733-1.18 1.75-2l-1-5.5h-0.5l0.25 4-0.75 0.5-0.25-4.5h-0.5l-0.25 4.5-0.75-0.5 0.25-4z" fill="hsl(14, 4%, 61%)" stroke="hsl(175, 5%, 100%)" stroke-linejoin="round" stroke-miterlimit="4px" stroke-width="2"/><path d="M15.017 15.5H17.5L15 18v-2.483a1.619 1.619 0 0 1-1.137 0.48 1.6 1.6 0 0 1-0.993-0.345 6.784 6.784 0 0 1 0.008-10.31 1.618 1.618 0 0 1 2.122 0.12V3l2.5 2.5h-2.464a1.593 1.593 0 0 1 0.122 0.129 1.624 1.624 0 0 1-0.287 2.28 3.515 3.515 0 0 0-1.121 2.586 3.558 3.558 0 0 0 1.147 2.616 1.635 1.635 0 0 1 0.232 2.279c-0.034 0.041-0.075 0.072-0.112 0.11zM5.504 3l-1 5.5c-0.146 0.805 1.781 1.181 1.75 2l-0.25 6.5a0.963 0.963 0 0 0 1 1 0.963 0.963 0 0 0 1-1l-0.25-6.5c-0.031-0.818 1.733-1.18 1.75-2l-1-5.5h-0.5l0.25 4-0.75 0.5-0.25-4.5h-0.5l-0.25 4.5-0.75-0.5 0.25-4z" fill="hsl(14, 4%, 61%)"/></g></svg>