<svg xmlns="http://www.w3.org/2000/svg" id="ro-national-3" width="26" height="20" viewBox="0 0 26 20"><g><path d="M0,0 H26 V20 H0 Z" fill="none"/><path d="M13,3a15.57,15.57,0,0,0,8-2l4,4a4.787,4.787,0,0,0-1,3,5.12,5.12,0,0,0,.5,2.336,5.021,5.021,0,0,1,.5,2.147C25,16,19.969,17,17,17a4.772,4.772,0,0,0-4,2,4.7,4.7,0,0,0-4-2c-3,0-8-1-8-4.517a5.021,5.021,0,0,1,.5-2.147A5.12,5.12,0,0,0,2,8,4.787,4.787,0,0,0,1,5L5,1A15.078,15.078,0,0,0,13,3Z" fill="none" stroke="hsl(0, 0%, 100%)" stroke-linejoin="round" stroke-miterlimit="4px" stroke-width="2"/><path d="M13,3a15.57,15.57,0,0,0,8-2l4,4a4.787,4.787,0,0,0-1,3,5.12,5.12,0,0,0,.5,2.336,5.021,5.021,0,0,1,.5,2.147C25,16,19.969,17,17,17a4.772,4.772,0,0,0-4,2,4.7,4.7,0,0,0-4-2c-3,0-8-1-8-4.517a5.021,5.021,0,0,1,.5-2.147A5.12,5.12,0,0,0,2,8,4.787,4.787,0,0,0,1,5L5,1A15.078,15.078,0,0,0,13,3Z" fill="hsl(0, 87%, 59%)"/><path d="M0,7 H26 V13 H0 Z" fill="none" id="mapbox-text-placeholder"/></g></svg>