<svg xmlns="http://www.w3.org/2000/svg" id="ro-national-2" width="20" height="20" viewBox="0 0 20 20"><g><path d="M0,0 H20 V20 H0 Z" fill="none"/><path d="M10.161,3c1.818.021,3.512-1.2,4.839-2l4,4a4.787,4.787,0,0,0-1,3,5.12,5.12,0,0,0,.5,2.336,5.021,5.021,0,0,1,.5,2.147C19,15.225,16.742,17,14,17a4.772,4.772,0,0,0-4,2,4.7,4.7,0,0,0-4-2c-2.742,0-5-1.775-5-4.517a5.021,5.021,0,0,1,.5-2.147A5.12,5.12,0,0,0,2,8,4.787,4.787,0,0,0,1,5L5,1A9.732,9.732,0,0,0,10.161,3Z" fill="none" stroke="hsl(0, 0%, 100%)" stroke-linejoin="round" stroke-miterlimit="4px" stroke-width="2"/><path d="M10.161,3c1.818.021,3.512-1.2,4.839-2l4,4a4.787,4.787,0,0,0-1,3,5.12,5.12,0,0,0,.5,2.336,5.021,5.021,0,0,1,.5,2.147C19,15.225,16.742,17,14,17a4.772,4.772,0,0,0-4,2,4.7,4.7,0,0,0-4-2c-2.742,0-5-1.775-5-4.517a5.021,5.021,0,0,1,.5-2.147A5.12,5.12,0,0,0,2,8,4.787,4.787,0,0,0,1,5L5,1A9.732,9.732,0,0,0,10.161,3Z" fill="hsl(0, 87%, 59%)"/><path d="M0,7 H20 V13 H0 Z" fill="none" id="mapbox-text-placeholder"/></g></svg>