<svg xmlns="http://www.w3.org/2000/svg" id="shoe" width="21" height="21" viewBox="0 0 21 21"><g><path d="M0,0 H21 V21 H0 Z" fill="none"/><path d="M12.5 10a9.97 9.97 0 0 1-1.315-0.948L9.01 6.221a0.558 0.558 0 0 0-1 0.279H8V8H6.209a0.5 0.5 0 0 1-0.357-0.148S5.5 7 5 7h-0.5a0.5 0.5 0 0 0-0.5 0.5V12h5.5c1.5 0 2 1 3.5 1h4v-0.5C17 11 13.547 10.594000000000001 12.5 10z m0 4a3.131 3.131 0 0 1-1.526-0.447A4.1 4.1 0 0 0 9 13H4v1.5a0.5 0.5 0 0 0 0.5 0.5h4a0.5 0.5 0 0 0 0.5-0.5V14a3.134 3.134 0 0 1 1.526 0.447A4.1 4.1 0 0 0 12.5 15h4a0.5 0.5 0 0 0 0.5-0.5V14z" fill="hsl(20, 2%, 55%)" stroke="hsl(175, 5%, 100%)" stroke-linejoin="round" stroke-miterlimit="4px" stroke-width="2"/><path d="M12.5 10a9.97 9.97 0 0 1-1.315-0.948L9.01 6.221a0.558 0.558 0 0 0-1 0.279H8V8H6.209a0.5 0.5 0 0 1-0.357-0.148S5.5 7 5 7h-0.5a0.5 0.5 0 0 0-0.5 0.5V12h5.5c1.5 0 2 1 3.5 1h4v-0.5C17 11 13.547 10.594000000000001 12.5 10z m0 4a3.131 3.131 0 0 1-1.526-0.447A4.1 4.1 0 0 0 9 13H4v1.5a0.5 0.5 0 0 0 0.5 0.5h4a0.5 0.5 0 0 0 0.5-0.5V14a3.134 3.134 0 0 1 1.526 0.447A4.1 4.1 0 0 0 12.5 15h4a0.5 0.5 0 0 0 0.5-0.5V14z" fill="hsl(20, 2%, 55%)"/></g></svg>