<svg xmlns="http://www.w3.org/2000/svg" id="th-motorway-toll-2" width="20" height="23" viewBox="0 0 20 23"><g><path d="M0,0 H20 V23 H0 Z" fill="none"/><path d="M3,1 H17 C17,1 19,1 19,3 V17 C19,17 19,19 17,19 H3 C3,19 1,19 1,17 V3 C1,3 1,1 3,1" fill="none" stroke="hsl(0, 0%, 100%)" stroke-linejoin="round" stroke-miterlimit="4px" stroke-width="2"/><path d="M3,1 H17 C17,1 19,1 19,3 V17 C19,17 19,19 17,19 H3 C3,19 1,19 1,17 V3 C1,3 1,1 3,1" fill="hsl(230, 57%, 54%)"/><path d="M12.043,2.024A.659.659,0,0,0,11.8,1.75s-.008.079-.008.2a1.21,1.21,0,0,1,0,.421,1.879,1.879,0,0,1-.141.331,1.6,1.6,0,0,1-.116.19s-.257-.091-.3-.2a.184.184,0,0,0-.149-.116s-.058.2-.034.232a1.04,1.04,0,0,0,.232.2c.1.058.017.025-.033.125a.56.56,0,0,1-.306.265,2.86,2.86,0,0,1-.307.074c-.149.009-.074-.116-.1-.124a1.285,1.285,0,0,0-.141-.016l.091-.257s-.213-.262-.273-.365A4.1,4.1,0,0,1,10,2.129a4.1,4.1,0,0,1-.213.582c-.06.1-.273.365-.273.365l.091.257a1.285,1.285,0,0,0-.141.016c-.025.008.05.133-.1.124A2.86,2.86,0,0,1,9.058,3.4a.56.56,0,0,1-.306-.265c-.05-.1-.133-.067-.033-.125a1.04,1.04,0,0,0,.232-.2c.024-.033-.034-.232-.034-.232a.184.184,0,0,0-.149.116c-.041.107-.3.2-.3.2a1.6,1.6,0,0,1-.116-.19,1.879,1.879,0,0,1-.141-.331,1.21,1.21,0,0,1,0-.421c0-.122-.008-.2-.008-.2a.659.659,0,0,0-.248.274,2.309,2.309,0,0,0-.133.762,3.656,3.656,0,0,0,.207.828,1.776,1.776,0,0,0,.348.53l.364.224a.273.273,0,0,0-.1.207c0,.132.182.282.24.34s.361.211.406.256-.016.1-.016.1L9,5.436s-.223-.232-.315-.323-.2.046-.248.091-.017.178.058.178a.464.464,0,0,1,.257.121c.058.058.207.207.207.251s-.029.126,0,.154.075-.048.157-.13S9.083,5.6,9.083,5.6l.323-.182a.256.256,0,0,0,.042.182c.058.058.106.125.157.176A2.632,2.632,0,0,0,10,5.967a2.632,2.632,0,0,0,.395-.189c.051-.051.1-.118.157-.176a.256.256,0,0,0,.042-.182l.323.182s-.115.094-.033.176.128.16.157.13,0-.109,0-.154.149-.193.207-.251a.461.461,0,0,1,.257-.121c.075,0,.1-.132.058-.178s-.157-.182-.248-.091S11,5.436,11,5.436l-.274-.165s-.062-.054-.016-.1.348-.2.406-.256.24-.208.24-.34a.273.273,0,0,0-.1-.207l.364-.224a1.776,1.776,0,0,0,.348-.53,3.656,3.656,0,0,0,.207-.828A2.309,2.309,0,0,0,12.043,2.024Z" fill="hsl(0, 0%, 100%)"/><path d="M0,8.5 H20 V14.5 H0 Z" fill="none" id="mapbox-text-placeholder"/></g></svg>