<svg xmlns="http://www.w3.org/2000/svg" id="town-hall" width="21" height="21" viewBox="0 0 21 21"><g><path d="M0,0 H21 V21 H0 Z" fill="none"/><path d="M16 7H12V4L10.5 3 9 4v3H5L4 8v1h13V8l-1-1zM10.5 4.5c0.4 0 0.7 0.3 0.7 0.8s-0.3 0.7-0.7 0.7-0.8-0.3-0.8-0.8c0-0.4 0.4-0.7 0.8-0.7zM16 10H5v4l-1 1.5V17h13v-1.5L16 14V10z m-8 5.5H7V11h1v4.5z m3 0H10V11h1v4.5z m3 0h-1V11h1v4.5z" fill="hsl(20, 2%, 55%)" stroke="hsl(175, 5%, 100%)" stroke-linejoin="round" stroke-miterlimit="4px" stroke-width="2"/><path d="M16 7H12V4L10.5 3 9 4v3H5L4 8v1h13V8l-1-1zM10.5 4.5c0.4 0 0.7 0.3 0.7 0.8s-0.3 0.7-0.7 0.7-0.8-0.3-0.8-0.8c0-0.4 0.4-0.7 0.8-0.7zM16 10H5v4l-1 1.5V17h13v-1.5L16 14V10z m-8 5.5H7V11h1v4.5z m3 0H10V11h1v4.5z m3 0h-1V11h1v4.5z" fill="hsl(20, 2%, 55%)"/></g></svg>