<svg xmlns="http://www.w3.org/2000/svg" id="tr-motorway-5" width="38" height="16" viewBox="0 0 38 16"><g><path d="M0,0 H38 V16 H0 Z" fill="none"/><path d="M18.719,1,34.75,3A2.3,2.3,0,0,1,37,5v6a2.3,2.3,0,0,1-2.25,2L18.719,15,3.25,13A2.3,2.3,0,0,1,1,11V5A2.3,2.3,0,0,1,3.25,3Z" fill="none" stroke="hsl(230, 18%, 13%)" stroke-linejoin="round" stroke-miterlimit="4px" stroke-width="2"/><path d="M18.719,1,34.75,3A2.3,2.3,0,0,1,37,5v6a2.3,2.3,0,0,1-2.25,2L18.719,15,3.25,13A2.3,2.3,0,0,1,1,11V5A2.3,2.3,0,0,1,3.25,3Z" fill="hsl(25, 100%, 63%)"/><path d="M0,5 H38 V11 H0 Z" fill="none" id="mapbox-text-placeholder"/></g></svg>