<svg xmlns="http://www.w3.org/2000/svg" id="tr-motorway-6" width="44" height="16" viewBox="0 0 44 16"><g><path d="M-0.063,0 H43.937 V16 H-0.063 Z" fill="none"/><path d="M21.672,1l18.7,2C41.688,3,43,4,43,5v6c0,1-1.312,2-2.625,2l-18.7,2L3.625,13C2.312,13,1,12,1,11V5C1,4,2.312,3,3.625,3Z" fill="none" stroke="hsl(230, 18%, 13%)" stroke-linejoin="round" stroke-miterlimit="4px" stroke-width="2"/><path d="M21.672,1l18.7,2C41.688,3,43,4,43,5v6c0,1-1.312,2-2.625,2l-18.7,2L3.625,13C2.312,13,1,12,1,11V5C1,4,2.312,3,3.625,3Z" fill="hsl(25, 100%, 63%)"/><path d="M0,5 H44 V11 H0 Z" fill="none" id="mapbox-text-placeholder"/></g></svg>