<svg xmlns="http://www.w3.org/2000/svg" id="tr-motorway-4" width="34" height="16" viewBox="0 0 34 16"><g><path d="M0,0 H34 V16 H0 Z" fill="none"/><path d="M16.75,1,31,3a2.151,2.151,0,0,1,2,2v6a2.151,2.151,0,0,1-2,2L16.75,15,3,13a2.151,2.151,0,0,1-2-2V5A2.151,2.151,0,0,1,3,3Z" fill="none" stroke="hsl(230, 18%, 13%)" stroke-linejoin="round" stroke-miterlimit="4px" stroke-width="2"/><path d="M16.75,1,31,3a2.151,2.151,0,0,1,2,2v6a2.151,2.151,0,0,1-2,2L16.75,15,3,13a2.151,2.151,0,0,1-2-2V5A2.151,2.151,0,0,1,3,3Z" fill="hsl(25, 100%, 63%)"/><path d="M0,5 H34 V11 H0 Z" fill="none" id="mapbox-text-placeholder"/></g></svg>