<svg xmlns="http://www.w3.org/2000/svg" id="tw-county-township-6" width="44" height="20" viewBox="0 0 44 20"><g><path d="M0,0 H44 V20 H0 Z" fill="none"/><path d="M3,1 H41 C41,1 43,1 43,3 V17 C43,17 43,19 41,19 H3 C3,19 1,19 1,17 V3 C1,3 1,1 3,1" fill="none" stroke="hsl(230, 18%, 13%)" stroke-linejoin="round" stroke-miterlimit="4px" stroke-width="2"/><path d="M3,1 H41 C41,1 43,1 43,3 V17 C43,17 43,19 41,19 H3 C3,19 1,19 1,17 V3 C1,3 1,1 3,1" fill="hsl(0, 0%, 100%)"/><path d="M0,7 H44 V13 H0 Z" fill="none" id="mapbox-text-placeholder"/></g></svg>