<svg xmlns="http://www.w3.org/2000/svg" id="tw-national-2" width="21" height="22" viewBox="0 0 21 22"><g><path d="M0,0 H21 V22 H0 Z" fill="none"/><path d="M19.818,7.749a3.679,3.679,0,0,0-5.887-1.688,3.694,3.694,0,1,0-6.862,0A3.679,3.679,0,0,0,1.182,7.749a3.706,3.706,0,0,0,2.371,4.668,3.665,3.665,0,0,0,.753.159,3.735,3.735,0,0,0-.484.54,3.715,3.715,0,0,0,6.02,4.356,3.642,3.642,0,0,0,.658-1.665,3.642,3.642,0,0,0,.658,1.665,3.715,3.715,0,1,0,5.536-4.9,3.665,3.665,0,0,0,.753-.159A3.706,3.706,0,0,0,19.818,7.749Z" fill="none" stroke="hsl(140, 74%, 37%)" stroke-linejoin="round" stroke-miterlimit="4px" stroke-width="2"/><path d="M19.818,7.749a3.679,3.679,0,0,0-5.887-1.688,3.694,3.694,0,1,0-6.862,0A3.679,3.679,0,0,0,1.182,7.749a3.706,3.706,0,0,0,2.371,4.668,3.665,3.665,0,0,0,.753.159,3.735,3.735,0,0,0-.484.54,3.715,3.715,0,0,0,6.02,4.356,3.642,3.642,0,0,0,.658-1.665,3.642,3.642,0,0,0,.658,1.665,3.715,3.715,0,1,0,5.536-4.9,3.665,3.665,0,0,0,.753-.159A3.706,3.706,0,0,0,19.818,7.749Z" fill="hsl(0, 0%, 100%)"/><path d="M0,8 H21 V14 H0 Z" fill="none" id="mapbox-text-placeholder"/></g></svg>