<svg xmlns="http://www.w3.org/2000/svg" id="tw-provincial-expy-2" width="22" height="24" viewBox="0 0 22 24"><g><path d="M0,0 H22 V24 H0 Z" fill="none"/><path d="M13.329,22.178A20.947,20.947,0,0,0,20.945,9.04a4.21,4.21,0,0,0-2.431-4.587,20.159,20.159,0,0,0-15.028,0A4.21,4.21,0,0,0,1.055,9.04,20.947,20.947,0,0,0,8.671,22.178,3.71,3.71,0,0,0,13.329,22.178Z" fill="none" stroke="hsl(0, 0%, 100%)" stroke-linejoin="round" stroke-miterlimit="4px" stroke-width="2"/><path d="M13.329,22.178A20.947,20.947,0,0,0,20.945,9.04a4.21,4.21,0,0,0-2.431-4.587,20.159,20.159,0,0,0-15.028,0A4.21,4.21,0,0,0,1.055,9.04,20.947,20.947,0,0,0,8.671,22.178,3.71,3.71,0,0,0,13.329,22.178Z" fill="hsl(0, 87%, 59%)"/><path d="M0,9 H22 V15 H0 Z" fill="none" id="mapbox-text-placeholder"/></g></svg>