<svg xmlns="http://www.w3.org/2000/svg" id="tw-provincial-expy-3" width="28" height="24" viewBox="0 0 28 24"><g><path d="M0,0 H28 V24 H0 Z" fill="none"/><path d="M17.04,22.193c5.193-3.116,9.44-8.193,9.938-12.9.206-1.942-1.063-3.451-3.173-4.506C19.05,2.4,9.012,2.4,4.2,4.784,2.079,5.828.816,7.348,1.022,9.29c.5,4.71,4.745,9.787,9.938,12.9A6.129,6.129,0,0,0,17.04,22.193Z" fill="none" stroke="hsl(0, 0%, 100%)" stroke-linejoin="round" stroke-miterlimit="4px" stroke-width="2"/><path d="M17.04,22.193c5.193-3.116,9.44-8.193,9.938-12.9.206-1.942-1.063-3.451-3.173-4.506C19.05,2.4,9.012,2.4,4.2,4.784,2.079,5.828.816,7.348,1.022,9.29c.5,4.71,4.745,9.787,9.938,12.9A6.129,6.129,0,0,0,17.04,22.193Z" fill="hsl(0, 87%, 59%)"/><path d="M0,9 H28 V15 H0 Z" fill="none" id="mapbox-text-placeholder"/></g></svg>