<svg xmlns="http://www.w3.org/2000/svg" id="us-bia-4" width="30" height="20" viewBox="0 0 30 20"><g><path d="M0,0.003 H30 V20.003 H0 Z" fill="none"/><path d="M27.284,4.181l-1.59.835a1.019,1.019,0,0,1-1.422-.588l-.007-.017a1.227,1.227,0,0,1,.515-1.529l1.646-.864V1.5H3.574v.515l1.646.864a1.227,1.227,0,0,1,.515,1.529l-.007.017a1.019,1.019,0,0,1-1.422.588l-1.59-.835L1,6.786C1,17,15,18.5,15,18.5S29,17,29,6.786Z" fill="none" stroke="hsl(230, 18%, 13%)" stroke-linejoin="round" stroke-miterlimit="4px" stroke-width="2"/><path d="M27.284,4.181l-1.59.835a1.019,1.019,0,0,1-1.422-.588l-.007-.017a1.227,1.227,0,0,1,.515-1.529l1.646-.864V1.5H3.574v.515l1.646.864a1.227,1.227,0,0,1,.515,1.529l-.007.017a1.019,1.019,0,0,1-1.422.588l-1.59-.835L1,6.786C1,17,15,18.5,15,18.5S29,17,29,6.786Z" fill="hsl(0, 0%, 100%)"/><path d="M0,7 H30 V13 H0 Z" fill="none" id="mapbox-text-placeholder"/></g></svg>