<svg xmlns="http://www.w3.org/2000/svg" id="us-bia-3" width="26" height="20" viewBox="0 0 26 20"><g><path d="M0,0.003 H26 V20.003 H0 Z" fill="none"/><path d="M23.176,4.179l-1.724.852a1.076,1.076,0,0,1-1.469-.585l-.008-.019a1.209,1.209,0,0,1,.542-1.549l1.747-.864V1.5H3.736v.511l1.747.864a1.209,1.209,0,0,1,.542,1.549l-.008.019a1.076,1.076,0,0,1-1.469.585L2.824,4.179,1,6.785C1,16.5,13,18.5,13,18.5s12-2,12-11.717Z" fill="none" stroke="hsl(230, 18%, 13%)" stroke-linejoin="round" stroke-miterlimit="4px" stroke-width="2"/><path d="M23.176,4.179l-1.724.852a1.076,1.076,0,0,1-1.469-.585l-.008-.019a1.209,1.209,0,0,1,.542-1.549l1.747-.864V1.5H3.736v.511l1.747.864a1.209,1.209,0,0,1,.542,1.549l-.008.019a1.076,1.076,0,0,1-1.469.585L2.824,4.179,1,6.785C1,16.5,13,18.5,13,18.5s12-2,12-11.717Z" fill="hsl(0, 0%, 100%)"/><path d="M0,7 H26 V13 H0 Z" fill="none" id="mapbox-text-placeholder"/></g></svg>