<svg xmlns="http://www.w3.org/2000/svg" id="us-bia-2" width="20" height="20" viewBox="0 0 20 20"><g><path d="M0.037,0 H20.037 V20 H0.037 Z" fill="none"/><path d="M17.3,4.186l-1.589.791a1.173,1.173,0,0,1-1.605-.6h0a1.167,1.167,0,0,1,.558-1.494L16.4,2.025V1.509H3.748v.516l1.733.863a1.167,1.167,0,0,1,.558,1.494h0a1.174,1.174,0,0,1-1.606.6L2.845,4.186l-1.808,2.6c0,8.712,9.037,11.709,9.037,11.709s8.963-3,9.038-11.709Z" fill="none" stroke="hsl(230, 18%, 13%)" stroke-linejoin="round" stroke-miterlimit="4px" stroke-width="2"/><path d="M17.3,4.186l-1.589.791a1.173,1.173,0,0,1-1.605-.6h0a1.167,1.167,0,0,1,.558-1.494L16.4,2.025V1.509H3.748v.516l1.733.863a1.167,1.167,0,0,1,.558,1.494h0a1.174,1.174,0,0,1-1.606.6L2.845,4.186l-1.808,2.6c0,8.712,9.037,11.709,9.037,11.709s8.963-3,9.038-11.709Z" fill="hsl(0, 0%, 100%)"/><path d="M0,7 H20 V13 H0 Z" fill="none" id="mapbox-text-placeholder"/></g></svg>