<svg xmlns="http://www.w3.org/2000/svg" id="us-highway-truck-2" width="20" height="38" viewBox="0 0 20 38"><g><path d="M-0.001,0 H19.999 V38 H-0.001 Z" fill="none"/><path d="M7,26a3.99,3.99,0,0,1,3,1,3.993,3.993,0,0,1,3-1,5.872,5.872,0,0,0,4.5-1.666c2.187-2.328,1.7-4.884.5-7.334A3.446,3.446,0,0,1,19,12.5L16,10a4,4,0,0,1-3.025,1.5A4.041,4.041,0,0,1,10,10a4.127,4.127,0,0,1-3.012,1.5A3.862,3.862,0,0,1,3.993,10L1,12.5c.78.756,2.2,2.072,1.008,4.505-1.2,2.45-1.7,5.006.491,7.334A5.876,5.876,0,0,0,7,26Z" fill="none" stroke="hsl(230, 18%, 13%)" stroke-linejoin="round" stroke-miterlimit="4px" stroke-width="2"/><path d="M7,26a3.99,3.99,0,0,1,3,1,3.993,3.993,0,0,1,3-1,5.872,5.872,0,0,0,4.5-1.666c2.187-2.328,1.7-4.884.5-7.334A3.446,3.446,0,0,1,19,12.5L16,10a4,4,0,0,1-3.025,1.5A4.041,4.041,0,0,1,10,10a4.127,4.127,0,0,1-3.012,1.5A3.862,3.862,0,0,1,3.993,10L1,12.5c.78.756,2.2,2.072,1.008,4.505-1.2,2.45-1.7,5.006.491,7.334A5.876,5.876,0,0,0,7,26Z" fill="hsl(0, 0%, 100%)"/><path d="M.92,0H19.081A.88.88,0,0,1,20,.865v6.27a.882.882,0,0,1-.92.865H.92A.879.879,0,0,1,0,7.135V.865A.879.879,0,0,1,.92,0Z" fill="hsl(0, 0%, 100%)"/><path d="M2.244,6.98V1.807H1.253V1h2.84v.807H3.1V6.98Zm2.227,0V1H5.848Q7.359,1,7.36,2.756a2.2,2.2,0,0,1-.164.9,1.267,1.267,0,0,1-.575.6L7.545,6.98H6.638l-.8-2.553H5.327V6.98Zm.856-5.173V3.671h.487a.865.865,0,0,0,.362-.063.5.5,0,0,0,.21-.18.818.818,0,0,0,.092-.29,2.769,2.769,0,0,0,.025-.4,2.749,2.749,0,0,0-.025-.4.789.789,0,0,0-.1-.3.681.681,0,0,0-.6-.235ZM10.82,1V5.637a1.392,1.392,0,0,1-.1.542,1.368,1.368,0,0,1-.3.44,1.412,1.412,0,0,1-.445.3,1.349,1.349,0,0,1-.537.109A1.321,1.321,0,0,1,8.9,6.922a1.47,1.47,0,0,1-.744-.743,1.342,1.342,0,0,1-.108-.542V1H8.9V5.553a.64.64,0,0,0,.152.47.547.547,0,0,0,.755,0,.64.64,0,0,0,.152-.47V1Zm3.529,4.275v.371a1.33,1.33,0,0,1-.106.524,1.462,1.462,0,0,1-.29.441,1.4,1.4,0,0,1-.432.307,1.279,1.279,0,0,1-.534.113,1.907,1.907,0,0,1-.495-.067,1.181,1.181,0,0,1-.454-.235,1.292,1.292,0,0,1-.332-.433,1.525,1.525,0,0,1-.13-.676V2.327a1.441,1.441,0,0,1,.1-.546,1.266,1.266,0,0,1,.286-.436,1.323,1.323,0,0,1,.44-.29,1.47,1.47,0,0,1,.568-.106,1.3,1.3,0,0,1,.982.4,1.409,1.409,0,0,1,.29.457,1.549,1.549,0,0,1,.106.576v.336h-.858V2.428a.7.7,0,0,0-.142-.437.464.464,0,0,0-.387-.184.434.434,0,0,0-.424.2,1.059,1.059,0,0,0-.105.5V5.562A.791.791,0,0,0,12.547,6a.446.446,0,0,0,.407.176.613.613,0,0,0,.181-.029.555.555,0,0,0,.18-.1.511.511,0,0,0,.126-.185.736.736,0,0,0,.05-.294V5.275Zm.7,1.705V1H15.9V3.729h.017L17.171,1h.856L16.86,3.394,18.246,6.98h-.907l-.975-2.654-.462.865V6.98Z" fill="hsl(230, 18%, 13%)"/><path d="M0,16 H20 V22 H0 Z" fill="none" id="mapbox-text-placeholder"/></g></svg>