<svg xmlns="http://www.w3.org/2000/svg" id="us-highway-bypass-3" width="26" height="38" viewBox="0 0 26 38"><g><path d="M0.003,0 H26.003 V38 H0.003 Z" fill="none"/><path d="M8.5,26c1.158.059,3.765.164,4.5,1,.735-.836,3.342-.941,4.5-1,1.428-.074,4.564-.138,6-1.666C25.7,22,25.2,19.455,24,17c-1.19-2.438.219-3.742,1-4.5L21.994,10A6.836,6.836,0,0,1,17.5,11.5,6.98,6.98,0,0,1,13,10a6.98,6.98,0,0,1-4.5,1.5A6.94,6.94,0,0,1,4,10L1,12.5c.781.758,2.2,2.062,1.01,4.5-1.2,2.455-1.7,5,.492,7.334C3.941,25.862,7.074,25.926,8.5,26Z" fill="none" stroke="hsl(230, 18%, 13%)" stroke-linejoin="round" stroke-miterlimit="4px" stroke-width="2"/><path d="M8.5,26c1.158.059,3.765.164,4.5,1,.735-.836,3.342-.941,4.5-1,1.428-.074,4.564-.138,6-1.666C25.7,22,25.2,19.455,24,17c-1.19-2.438.219-3.742,1-4.5L21.994,10A6.836,6.836,0,0,1,17.5,11.5,6.98,6.98,0,0,1,13,10a6.98,6.98,0,0,1-4.5,1.5A6.94,6.94,0,0,1,4,10L1,12.5c.781.758,2.2,2.062,1.01,4.5-1.2,2.455-1.7,5,.492,7.334C3.941,25.862,7.074,25.926,8.5,26Z" fill="hsl(0, 0%, 100%)"/><path d="M.922,0H25.083A.88.88,0,0,1,26,.865v6.27a.882.882,0,0,1-.92.865H.922A.879.879,0,0,1,0,7.135V.865A.879.879,0,0,1,.922,0Z" fill="hsl(0, 0%, 100%)"/><path d="M5.052,5.273a3.139,3.139,0,0,1-.084.823,1.158,1.158,0,0,1-.3.512A1.19,1.19,0,0,1,4.2,6.9a2.286,2.286,0,0,1-.7.091H2V1.006H3.5a2.325,2.325,0,0,1,.7.088,1.076,1.076,0,0,1,.462.281,1.188,1.188,0,0,1,.295.475,2.641,2.641,0,0,1,.084.752,2.213,2.213,0,0,1-.068.571,1.085,1.085,0,0,1-.277.471.926.926,0,0,1-.143.117,1.207,1.207,0,0,1-.168.093,1.1,1.1,0,0,1,.328.217,1.082,1.082,0,0,1,.277.5A3.08,3.08,0,0,1,5.052,5.273ZM4.1,2.66a.965.965,0,0,0-.156-.625.659.659,0,0,0-.525-.181h-.47V3.476h.47a.636.636,0,0,0,.525-.194A.991.991,0,0,0,4.1,2.66Zm.016,2.546a1.188,1.188,0,0,0-.168-.719A.653.653,0,0,0,3.4,4.273H2.944V6.138H3.4a.667.667,0,0,0,.546-.205A1.181,1.181,0,0,0,4.111,5.206ZM7.4,4.643V6.986H6.455V4.643L5.3,1.006H6.337l.588,2.369.6-2.369H8.555Zm.807.344V4.139H9.9v.848Zm5.208-2.159a2.144,2.144,0,0,1-.362,1.378,1.442,1.442,0,0,1-1.175.437h-.563V6.986H10.37V1.006h1.5a1.434,1.434,0,0,1,1.175.44A2.166,2.166,0,0,1,13.411,2.828Zm-.941,0a1.667,1.667,0,0,0-.126-.714.5.5,0,0,0-.5-.26h-.529V3.8h.529a.506.506,0,0,0,.5-.257A1.636,1.636,0,0,0,12.47,2.828ZM16.2,6.986,15.956,5.8H14.57l-.236,1.184h-.991l1.47-5.98h.916l1.453,5.98ZM15.267,2.45l-.513,2.5h1.025Zm5.4,2.882a3.229,3.229,0,0,1-.08.781,1.094,1.094,0,0,1-.306.537,1.394,1.394,0,0,1-.475.287,1.986,1.986,0,0,1-.693.108,1.567,1.567,0,0,1-1.159-.395,1.16,1.16,0,0,1-.3-.512,2.894,2.894,0,0,1-.084-.773h.941a1.908,1.908,0,0,0,.034.4.606.606,0,0,0,.134.272.535.535,0,0,0,.173.113.633.633,0,0,0,.264.047.562.562,0,0,0,.453-.168.6.6,0,0,0,.127-.264,1.988,1.988,0,0,0,.033-.4,3.094,3.094,0,0,0-.021-.394.684.684,0,0,0-.084-.265.591.591,0,0,0-.172-.181,1.4,1.4,0,0,0-.285-.142l-.715-.294a1.811,1.811,0,0,1-.386-.21.912.912,0,0,1-.256-.29,1.355,1.355,0,0,1-.143-.416,3.2,3.2,0,0,1-.046-.588,2.034,2.034,0,0,1,.122-.727,1.355,1.355,0,0,1,.365-.542,1.486,1.486,0,0,1,.449-.264,1.611,1.611,0,0,1,.576-.1,1.5,1.5,0,0,1,1.075.361,1.22,1.22,0,0,1,.328.551,2.766,2.766,0,0,1,.092.751h-.941a2.293,2.293,0,0,0-.025-.36.59.59,0,0,0-.118-.278.492.492,0,0,0-.419-.176.549.549,0,0,0-.24.046.5.5,0,0,0-.164.122.891.891,0,0,0-.159.588,2.453,2.453,0,0,0,.016.31.531.531,0,0,0,.072.215.516.516,0,0,0,.151.155,1.129,1.129,0,0,0,.256.126l.706.285a1.979,1.979,0,0,1,.445.245.957.957,0,0,1,.277.327,1.5,1.5,0,0,1,.143.462A4.266,4.266,0,0,1,20.668,5.332Zm3.713,0a3.28,3.28,0,0,1-.08.781A1.1,1.1,0,0,1,24,6.65a1.394,1.394,0,0,1-.475.287,1.986,1.986,0,0,1-.693.108,1.571,1.571,0,0,1-1.16-.395,1.168,1.168,0,0,1-.3-.512,2.894,2.894,0,0,1-.084-.773h.941a1.908,1.908,0,0,0,.034.4.606.606,0,0,0,.134.272.541.541,0,0,0,.172.113.642.642,0,0,0,.265.047.562.562,0,0,0,.453-.168.6.6,0,0,0,.127-.264,1.988,1.988,0,0,0,.033-.4,3.094,3.094,0,0,0-.021-.394.684.684,0,0,0-.084-.265.591.591,0,0,0-.172-.181,1.381,1.381,0,0,0-.286-.142l-.714-.294a1.811,1.811,0,0,1-.386-.21.915.915,0,0,1-.257-.29,1.382,1.382,0,0,1-.142-.416,3.2,3.2,0,0,1-.046-.588,2.034,2.034,0,0,1,.122-.727,1.355,1.355,0,0,1,.365-.542,1.486,1.486,0,0,1,.449-.264,1.611,1.611,0,0,1,.576-.1,1.5,1.5,0,0,1,1.075.361,1.22,1.22,0,0,1,.328.551,2.766,2.766,0,0,1,.092.751H23.4a2.293,2.293,0,0,0-.025-.36.59.59,0,0,0-.118-.278.493.493,0,0,0-.42-.176.548.548,0,0,0-.239.046.5.5,0,0,0-.164.122.891.891,0,0,0-.16.588,2.431,2.431,0,0,0,.017.31.531.531,0,0,0,.072.215.516.516,0,0,0,.151.155,1.129,1.129,0,0,0,.256.126l.706.285a1.979,1.979,0,0,1,.445.245.957.957,0,0,1,.277.327,1.5,1.5,0,0,1,.143.462A4.266,4.266,0,0,1,24.381,5.332Z" fill="hsl(230, 18%, 13%)"/><path d="M0,16 H26 V22 H0 Z" fill="none" id="mapbox-text-placeholder"/></g></svg>