<svg xmlns="http://www.w3.org/2000/svg" id="us-highway-business-2" width="20" height="38" viewBox="0 0 20 38"><g><path d="M-0.001,0 H19.999 V38 H-0.001 Z" fill="none"/><path d="M7,26a3.99,3.99,0,0,1,3,1,3.993,3.993,0,0,1,3-1,5.872,5.872,0,0,0,4.5-1.666c2.187-2.328,1.7-4.884.5-7.334A3.446,3.446,0,0,1,19,12.5L16,10a4,4,0,0,1-3.025,1.5A4.041,4.041,0,0,1,10,10a4.127,4.127,0,0,1-3.012,1.5A3.862,3.862,0,0,1,3.993,10L1,12.5c.78.756,2.2,2.072,1.008,4.505-1.2,2.45-1.7,5.006.491,7.334A5.876,5.876,0,0,0,7,26Z" fill="none" stroke="hsl(230, 18%, 13%)" stroke-linejoin="round" stroke-miterlimit="4px" stroke-width="2"/><path d="M7,26a3.99,3.99,0,0,1,3,1,3.993,3.993,0,0,1,3-1,5.872,5.872,0,0,0,4.5-1.666c2.187-2.328,1.7-4.884.5-7.334A3.446,3.446,0,0,1,19,12.5L16,10a4,4,0,0,1-3.025,1.5A4.041,4.041,0,0,1,10,10a4.127,4.127,0,0,1-3.012,1.5A3.862,3.862,0,0,1,3.993,10L1,12.5c.78.756,2.2,2.072,1.008,4.505-1.2,2.45-1.7,5.006.491,7.334A5.876,5.876,0,0,0,7,26Z" fill="hsl(0, 0%, 100%)"/><path d="M.92,0H19.081A.88.88,0,0,1,20,.865v6.27a.882.882,0,0,1-.92.865H.92A.879.879,0,0,1,0,7.135V.865A.879.879,0,0,1,.92,0Z" fill="hsl(0, 0%, 100%)"/><path d="M4.287.994A1.644,1.644,0,0,1,6.146,2.676a1.4,1.4,0,0,1-.741,1.236,1.383,1.383,0,0,1,.832,1.345A1.661,1.661,0,0,1,4.4,6.98h-2.5V.994ZM3.06,2.037V3.424H4.212a.674.674,0,0,0,.765-.7.672.672,0,0,0-.765-.69Zm0,2.43V5.938H4.287a.7.7,0,0,0,.782-.74.7.7,0,0,0-.782-.731Zm8.671.463a2.082,2.082,0,0,1-2.21,2.1,2.074,2.074,0,0,1-2.2-2.1V.994H8.494V4.888a.989.989,0,0,0,1.027,1.1,1,1,0,0,0,1.041-1.1V.994h1.169Zm5.015-3.288-.74.731a1.556,1.556,0,0,0-1.228-.412c-.622,0-.924.345-.924.757a.562.562,0,0,0,.176.428.965.965,0,0,0,.546.228l.715.109a1.9,1.9,0,0,1,1.144.471A1.646,1.646,0,0,1,16.9,5.215c0,1.16-.959,1.816-2.219,1.816a2.814,2.814,0,0,1-2.187-.79l.757-.757a1.956,1.956,0,0,0,1.438.5c.7,0,1.068-.268,1.068-.748a.669.669,0,0,0-.186-.5.9.9,0,0,0-.538-.2l-.714-.109a2.076,2.076,0,0,1-1.161-.5,1.574,1.574,0,0,1-.428-1.178A1.844,1.844,0,0,1,14.812.944,2.566,2.566,0,0,1,16.746,1.642ZM19.112,6.98H17.868V5.736h1.244Z" fill="hsl(230, 18%, 13%)"/><path d="M0,16 H20 V22 H0 Z" fill="none" id="mapbox-text-placeholder"/></g></svg>