<svg xmlns="http://www.w3.org/2000/svg" id="us-highway-duplex-5" width="38" height="20" viewBox="0 0 38 20"><g><path d="M0,0 H38 V20 H0 Z" fill="none"/><path d="M11.5,17c1.158.059,6.5-.469,7.5,1,.969-1.438,6.342-.941,7.5-1,1.429-.074,7.564-.138,9-1.666C37.692,13,37.2,10.455,36,8c-1.19-2.438.219-3.742,1-4.5L33.991,1C32,2.469,27.993,3,26.5,3S21,2.531,19,1c-2,1.531-6.021,2-7.5,2C10,3,5.969,2.469,4,1L1,3.5c.781.758,2.2,2.062,1.01,4.5-1.2,2.455-1.7,5,.492,7.334C3.938,16.862,10.071,16.926,11.5,17Z" fill="none" stroke="hsl(230, 18%, 13%)" stroke-linejoin="round" stroke-miterlimit="4px" stroke-width="2"/><path d="M11.5,17c1.158.059,6.5-.469,7.5,1,.969-1.438,6.342-.941,7.5-1,1.429-.074,7.564-.138,9-1.666C37.692,13,37.2,10.455,36,8c-1.19-2.438.219-3.742,1-4.5L33.991,1C32,2.469,27.993,3,26.5,3S21,2.531,19,1c-2,1.531-6.021,2-7.5,2C10,3,5.969,2.469,4,1L1,3.5c.781.758,2.2,2.062,1.01,4.5-1.2,2.455-1.7,5,.492,7.334C3.938,16.862,10.071,16.926,11.5,17Z" fill="hsl(0, 0%, 100%)"/><path d="M0,7 H38 V13 H0 Z" fill="none" id="mapbox-text-placeholder"/></g></svg>