<svg xmlns="http://www.w3.org/2000/svg" id="us-highway-4" width="32" height="20" viewBox="0 0 32 20"><g><path d="M0,0 H32 V20 H0 Z" fill="none"/><path d="M10,17c1.158.059,5-.469,6,1,.969-1.438,4.842-.941,6-1,1.429-.074,6.064-.138,7.5-1.666C31.692,13,31.2,10.455,30,8c-1.19-2.438.219-3.742,1-4.5L27.991,1A14.417,14.417,0,0,1,22,2.5,14.725,14.725,0,0,1,16,1a14.6,14.6,0,0,1-6,1.5A13.982,13.982,0,0,1,4,1L1,3.5c.781.758,2.2,2.062,1.01,4.5-1.2,2.455-1.7,5,.492,7.334C3.938,16.862,8.571,16.926,10,17Z" fill="none" stroke="hsl(230, 18%, 13%)" stroke-linejoin="round" stroke-miterlimit="4px" stroke-width="2"/><path d="M10,17c1.158.059,5-.469,6,1,.969-1.438,4.842-.941,6-1,1.429-.074,6.064-.138,7.5-1.666C31.692,13,31.2,10.455,30,8c-1.19-2.438.219-3.742,1-4.5L27.991,1A14.417,14.417,0,0,1,22,2.5,14.725,14.725,0,0,1,16,1a14.6,14.6,0,0,1-6,1.5A13.982,13.982,0,0,1,4,1L1,3.5c.781.758,2.2,2.062,1.01,4.5-1.2,2.455-1.7,5,.492,7.334C3.938,16.862,8.571,16.926,10,17Z" fill="hsl(0, 0%, 100%)"/><path d="M0,7 H32 V13 H0 Z" fill="none" id="mapbox-text-placeholder"/></g></svg>