<svg xmlns="http://www.w3.org/2000/svg" id="us-highway-truck-3" width="26" height="38" viewBox="0 0 26 38"><g><path d="M0.003,0 H26.003 V38 H0.003 Z" fill="none"/><path d="M8.5,26c1.158.059,3.765.164,4.5,1,.735-.836,3.342-.941,4.5-1,1.428-.074,4.564-.138,6-1.666C25.7,22,25.2,19.455,24,17c-1.19-2.438.219-3.742,1-4.5L21.994,10A6.836,6.836,0,0,1,17.5,11.5,6.98,6.98,0,0,1,13,10a6.98,6.98,0,0,1-4.5,1.5A6.94,6.94,0,0,1,4,10L1,12.5c.781.758,2.2,2.062,1.01,4.5-1.2,2.455-1.7,5,.492,7.334C3.941,25.862,7.074,25.926,8.5,26Z" fill="none" stroke="hsl(230, 18%, 13%)" stroke-linejoin="round" stroke-miterlimit="4px" stroke-width="2"/><path d="M8.5,26c1.158.059,3.765.164,4.5,1,.735-.836,3.342-.941,4.5-1,1.428-.074,4.564-.138,6-1.666C25.7,22,25.2,19.455,24,17c-1.19-2.438.219-3.742,1-4.5L21.994,10A6.836,6.836,0,0,1,17.5,11.5,6.98,6.98,0,0,1,13,10a6.98,6.98,0,0,1-4.5,1.5A6.94,6.94,0,0,1,4,10L1,12.5c.781.758,2.2,2.062,1.01,4.5-1.2,2.455-1.7,5,.492,7.334C3.941,25.862,7.074,25.926,8.5,26Z" fill="hsl(0, 0%, 100%)"/><path d="M3.92,0H22.081A.88.88,0,0,1,23,.865v6.27a.882.882,0,0,1-.92.865H3.92A.879.879,0,0,1,3,7.135V.865A.879.879,0,0,1,3.92,0Z" fill="hsl(0, 0%, 100%)"/><path d="M5.244,6.98V1.807H4.253V1h2.84v.807H6.1V6.98Zm2.227,0V1H8.848q1.51,0,1.512,1.756a2.2,2.2,0,0,1-.164.9,1.267,1.267,0,0,1-.575.6l.924,2.729H9.638l-.8-2.553H8.327V6.98Zm.856-5.173V3.671h.487a.865.865,0,0,0,.362-.063.5.5,0,0,0,.21-.18.818.818,0,0,0,.092-.29,2.769,2.769,0,0,0,.025-.4,2.749,2.749,0,0,0-.025-.4.789.789,0,0,0-.1-.3.681.681,0,0,0-.605-.235ZM13.82,1V5.637a1.392,1.392,0,0,1-.1.542,1.368,1.368,0,0,1-.3.44,1.412,1.412,0,0,1-.445.3,1.349,1.349,0,0,1-.537.109,1.321,1.321,0,0,1-.534-.109,1.47,1.47,0,0,1-.744-.743,1.342,1.342,0,0,1-.108-.542V1h.856V5.553a.64.64,0,0,0,.152.47.547.547,0,0,0,.755,0,.64.64,0,0,0,.152-.47V1Zm3.529,4.275v.371a1.33,1.33,0,0,1-.106.524,1.462,1.462,0,0,1-.29.441,1.4,1.4,0,0,1-.432.307,1.279,1.279,0,0,1-.534.113,1.907,1.907,0,0,1-.495-.067,1.181,1.181,0,0,1-.454-.235,1.292,1.292,0,0,1-.332-.433,1.525,1.525,0,0,1-.13-.676V2.327a1.441,1.441,0,0,1,.1-.546,1.266,1.266,0,0,1,.286-.436,1.323,1.323,0,0,1,.44-.29,1.47,1.47,0,0,1,.568-.106,1.3,1.3,0,0,1,.982.4,1.409,1.409,0,0,1,.29.457,1.549,1.549,0,0,1,.106.576v.336h-.858V2.428a.7.7,0,0,0-.142-.437.464.464,0,0,0-.387-.184.434.434,0,0,0-.424.2,1.059,1.059,0,0,0-.105.5V5.562A.791.791,0,0,0,15.547,6a.446.446,0,0,0,.407.176.613.613,0,0,0,.181-.029.555.555,0,0,0,.18-.1.511.511,0,0,0,.126-.185.736.736,0,0,0,.05-.294V5.275Zm.7,1.705V1H18.9V3.729h.017L20.171,1h.856L19.86,3.394,21.246,6.98h-.907l-.975-2.654-.462.865V6.98Z" fill="hsl(230, 18%, 13%)"/><path d="M0,16 H26 V22 H0 Z" fill="none" id="mapbox-text-placeholder"/></g></svg>