<svg xmlns="http://www.w3.org/2000/svg" id="us-highway-business-3" width="26" height="38" viewBox="0 0 26 38"><g><path d="M0.003,0 H26.003 V38 H0.003 Z" fill="none"/><path d="M8.5,26c1.158.059,3.765.164,4.5,1,.735-.836,3.342-.941,4.5-1,1.428-.074,4.564-.138,6-1.666C25.7,22,25.2,19.455,24,17c-1.19-2.438.219-3.742,1-4.5L21.994,10A6.836,6.836,0,0,1,17.5,11.5,6.98,6.98,0,0,1,13,10a6.98,6.98,0,0,1-4.5,1.5A6.94,6.94,0,0,1,4,10L1,12.5c.781.758,2.2,2.062,1.01,4.5-1.2,2.455-1.7,5,.492,7.334C3.941,25.862,7.074,25.926,8.5,26Z" fill="none" stroke="hsl(230, 18%, 13%)" stroke-linejoin="round" stroke-miterlimit="4px" stroke-width="2"/><path d="M8.5,26c1.158.059,3.765.164,4.5,1,.735-.836,3.342-.941,4.5-1,1.428-.074,4.564-.138,6-1.666C25.7,22,25.2,19.455,24,17c-1.19-2.438.219-3.742,1-4.5L21.994,10A6.836,6.836,0,0,1,17.5,11.5,6.98,6.98,0,0,1,13,10a6.98,6.98,0,0,1-4.5,1.5A6.94,6.94,0,0,1,4,10L1,12.5c.781.758,2.2,2.062,1.01,4.5-1.2,2.455-1.7,5,.492,7.334C3.941,25.862,7.074,25.926,8.5,26Z" fill="hsl(0, 0%, 100%)"/><path d="M3.92,0H22.081A.88.88,0,0,1,23,.865v6.27a.882.882,0,0,1-.92.865H3.92A.879.879,0,0,1,3,7.135V.865A.879.879,0,0,1,3.92,0Z" fill="hsl(0, 0%, 100%)"/><path d="M7.287.994A1.644,1.644,0,0,1,9.146,2.676,1.4,1.4,0,0,1,8.4,3.912a1.383,1.383,0,0,1,.832,1.345A1.661,1.661,0,0,1,7.4,6.98h-2.5V.994ZM6.06,2.037V3.424H7.212a.674.674,0,0,0,.765-.7.672.672,0,0,0-.765-.69Zm0,2.43V5.938H7.287a.7.7,0,0,0,.782-.74.7.7,0,0,0-.782-.731Zm8.671.463a2.082,2.082,0,0,1-2.21,2.1,2.074,2.074,0,0,1-2.2-2.1V.994h1.168V4.888a.989.989,0,0,0,1.027,1.1,1,1,0,0,0,1.041-1.1V.994h1.169Zm5.015-3.288-.74.731a1.556,1.556,0,0,0-1.228-.412c-.622,0-.924.345-.924.757a.562.562,0,0,0,.176.428.965.965,0,0,0,.546.228l.715.109a1.9,1.9,0,0,1,1.144.471A1.646,1.646,0,0,1,19.9,5.215c0,1.16-.959,1.816-2.219,1.816a2.814,2.814,0,0,1-2.187-.79l.757-.757a1.956,1.956,0,0,0,1.438.5c.7,0,1.068-.268,1.068-.748a.669.669,0,0,0-.186-.5.9.9,0,0,0-.538-.2l-.714-.109a2.076,2.076,0,0,1-1.161-.5,1.574,1.574,0,0,1-.428-1.178A1.844,1.844,0,0,1,17.812.944,2.566,2.566,0,0,1,19.746,1.642ZM22.112,6.98H20.868V5.736h1.244Z" fill="hsl(230, 18%, 13%)"/><path d="M0,16 H26 V22 H0 Z" fill="none" id="mapbox-text-placeholder"/></g></svg>