<svg xmlns="http://www.w3.org/2000/svg" id="us-highway-bypass-2" width="20" height="38" viewBox="0 0 20 38"><g><path d="M-0.001,0 H19.999 V38 H-0.001 Z" fill="none"/><path d="M7,26a3.99,3.99,0,0,1,3,1,3.993,3.993,0,0,1,3-1,5.872,5.872,0,0,0,4.5-1.666c2.187-2.328,1.7-4.884.5-7.334A3.446,3.446,0,0,1,19,12.5L16,10a4,4,0,0,1-3.025,1.5A4.041,4.041,0,0,1,10,10a4.127,4.127,0,0,1-3.012,1.5A3.862,3.862,0,0,1,3.993,10L1,12.5c.78.756,2.2,2.072,1.008,4.505-1.2,2.45-1.7,5.006.491,7.334A5.876,5.876,0,0,0,7,26Z" fill="none" stroke="hsl(230, 18%, 13%)" stroke-linejoin="round" stroke-miterlimit="4px" stroke-width="2"/><path d="M7,26a3.99,3.99,0,0,1,3,1,3.993,3.993,0,0,1,3-1,5.872,5.872,0,0,0,4.5-1.666c2.187-2.328,1.7-4.884.5-7.334A3.446,3.446,0,0,1,19,12.5L16,10a4,4,0,0,1-3.025,1.5A4.041,4.041,0,0,1,10,10a4.127,4.127,0,0,1-3.012,1.5A3.862,3.862,0,0,1,3.993,10L1,12.5c.78.756,2.2,2.072,1.008,4.505-1.2,2.45-1.7,5.006.491,7.334A5.876,5.876,0,0,0,7,26Z" fill="hsl(0, 0%, 100%)"/><path d="M.92,0H19.081A.88.88,0,0,1,20,.865v6.27a.882.882,0,0,1-.92.865H.92A.879.879,0,0,1,0,7.135V.865A.879.879,0,0,1,.92,0Z" fill="hsl(0, 0%, 100%)"/><path d="M6.09,3.915a2.279,2.279,0,0,1,.268.159,1.552,1.552,0,0,1,.185.16,1.31,1.31,0,0,1,.281.462,1.721,1.721,0,0,1,.089.572,1.9,1.9,0,0,1-.126.709,1.471,1.471,0,0,1-.366.538,1.673,1.673,0,0,1-.58.344,2.24,2.24,0,0,1-.76.121h-2.5V1h2.4a2.369,2.369,0,0,1,.764.117,1.7,1.7,0,0,1,.584.332,1.462,1.462,0,0,1,.369.517,1.7,1.7,0,0,1,.131.68A1.358,1.358,0,0,1,6.09,3.915Zm-1.2-.5a.818.818,0,0,0,.567-.185.643.643,0,0,0,.206-.5.643.643,0,0,0-.206-.5.818.818,0,0,0-.567-.185H3.746V3.419Zm.076,2.52a.8.8,0,0,0,.571-.2.708.708,0,0,0,.21-.542.7.7,0,0,0-.21-.538.809.809,0,0,0-.571-.193H3.746v1.47ZM10.39,4.528V6.98H9.231V4.528L7.434,1H8.7L9.819,3.411,10.92,1h1.268ZM17.2,2.864a1.93,1.93,0,0,1-.135.719,1.728,1.728,0,0,1-1.008,1,2.209,2.209,0,0,1-.831.147H14.078V6.98H12.91V1h2.319a2.25,2.25,0,0,1,.831.146,1.791,1.791,0,0,1,.622.4,1.765,1.765,0,0,1,.386.6A1.929,1.929,0,0,1,17.2,2.864Zm-1.168,0a.8.8,0,0,0-.231-.595.862.862,0,0,0-.634-.227H14.078V3.68H15.17a.877.877,0,0,0,.634-.223A.785.785,0,0,0,16.035,2.864ZM16.3,6.98V5.737h1.251V6.98Z" fill="hsl(230, 18%, 13%)"/><path d="M0,16 H20 V22 H0 Z" fill="none" id="mapbox-text-placeholder"/></g></svg>