<svg xmlns="http://www.w3.org/2000/svg" id="us-interstate-3" width="26" height="22" viewBox="0 0 26 22"><g><path d="M0,0 H26 V22 H0 Z" fill="none"/><path d="M23,1a6.908,6.908,0,0,1-5,2,7.058,7.058,0,0,1-5-2A7.021,7.021,0,0,1,8,3,6.8,6.8,0,0,1,3,1,5.4,5.4,0,0,0,1,5.007v2C1,16.342,13,19,13,19S25,16.28,25,7.008v-2A5.442,5.442,0,0,0,23,1Z" fill="none" stroke="hsl(0, 0%, 100%)" stroke-linejoin="round" stroke-miterlimit="4px" stroke-width="2"/><path d="M1,7c0,9.317,12,11.97,12,11.97S25,16.253,25,7V6H1Z" fill="hsl(230, 57%, 54%)"/><path d="M1,5 H25 V6 H1 Z" fill="hsl(0, 0%, 100%)"/><path d="M1,5A5.389,5.389,0,0,1,3,1,6.8,6.8,0,0,0,8,3a7.027,7.027,0,0,0,5-2,7.064,7.064,0,0,0,5,2,6.914,6.914,0,0,0,5-2,5.429,5.429,0,0,1,2,4Z" fill="hsl(0, 87%, 59%)"/><path d="M0,8 H26 V14 H0 Z" fill="none" id="mapbox-text-placeholder"/></g></svg>