<svg xmlns="http://www.w3.org/2000/svg" id="us-interstate-2" width="20" height="22" viewBox="0 0 20 22"><g><path d="M0,0 H20 V22 H0 Z" fill="none"/><path d="M17,1a4.077,4.077,0,0,1-3.542,2A3.945,3.945,0,0,1,10,1,3.952,3.952,0,0,1,6.531,3,4.069,4.069,0,0,1,2.969,1,7.413,7.413,0,0,0,1,5V7.032C1,16.372,10,19,10,19s9-2.691,9-11.969V5A7.734,7.734,0,0,0,17,1Z" fill="none" stroke="hsl(0, 0%, 100%)" stroke-linejoin="round" stroke-miterlimit="4px" stroke-width="2"/><path d="M1,7.032C1,16.372,10,19,10,19s9-2.691,9-11.969V6H1Z" fill="hsl(230, 57%, 54%)"/><path d="M1,5 H19 V6 H1 Z" fill="hsl(0, 0%, 100%)"/><path d="M1,5A7.413,7.413,0,0,1,2.969,1,4.069,4.069,0,0,0,6.531,3,3.952,3.952,0,0,0,10,1a3.945,3.945,0,0,0,3.458,2A4.077,4.077,0,0,0,17,1a7.734,7.734,0,0,1,2,4Z" fill="hsl(0, 87%, 59%)"/><path d="M0,8 H20 V14 H0 Z" fill="none" id="mapbox-text-placeholder"/></g></svg>