<svg xmlns="http://www.w3.org/2000/svg" id="us-interstate-duplex-4" width="32" height="22" viewBox="0 0 32 22"><g><path d="M0,0 H32 V22 H0 Z" fill="none"/><path d="M31,5a5.447,5.447,0,0,0-2-4,8.167,8.167,0,0,1-5.5,2A14.573,14.573,0,0,1,16,1,14.573,14.573,0,0,1,8.5,3,8.1,8.1,0,0,1,3,1,5.389,5.389,0,0,0,1,5V7c0,9.317,14.75,11.97,14.75,11.97S30.826,16.251,31,7C31.009,6.542,31,5.5,31,5Z" fill="none" stroke="hsl(0, 0%, 100%)" stroke-linejoin="round" stroke-miterlimit="4px" stroke-width="2"/><path d="M1,7c0,9.317,15,11.97,15,11.97S31,16.253,31,7V6H1Z" fill="hsl(230, 57%, 54%)"/><path d="M1,5 H31 V6 H1 Z" fill="hsl(0, 0%, 100%)"/><path d="M1,5A5.389,5.389,0,0,1,3,1,8.1,8.1,0,0,0,8.5,3,14.573,14.573,0,0,0,16,1a14.573,14.573,0,0,0,7.5,2A8.167,8.167,0,0,0,29,1a5.433,5.433,0,0,1,2,4Z" fill="hsl(0, 87%, 59%)"/><path d="M0,8 H32 V14 H0 Z" fill="none" id="mapbox-text-placeholder"/></g></svg>