<svg xmlns="http://www.w3.org/2000/svg" id="us-interstate-truck-2" width="20" height="40" viewBox="0 0 20 40"><g><path d="M0,0 H20 V40 H0 Z" fill="none"/><path d="M17,10a4.077,4.077,0,0,1-3.542,2A3.945,3.945,0,0,1,10,10a3.952,3.952,0,0,1-3.469,2,4.069,4.069,0,0,1-3.562-2A7.413,7.413,0,0,0,1,14v2.032C1,25.372,10,28,10,28s9-2.691,9-11.969V14A7.734,7.734,0,0,0,17,10Z" fill="none" stroke="hsl(0, 0%, 100%)" stroke-linejoin="round" stroke-miterlimit="4px" stroke-width="2"/><path d="M1,16.032C1,25.372,10,28,10,28s9-2.691,9-11.969V15H1Z" fill="hsl(230, 57%, 54%)"/><path d="M1,14 H19 V15 H1 Z" fill="hsl(0, 0%, 100%)"/><path d="M1,14a7.413,7.413,0,0,1,1.969-4,4.069,4.069,0,0,0,3.562,2A3.952,3.952,0,0,0,10,10a3.945,3.945,0,0,0,3.458,2A4.077,4.077,0,0,0,17,10a7.734,7.734,0,0,1,2,4Z" fill="hsl(0, 87%, 59%)"/><path d="M.92,0H19.08A.88.88,0,0,1,20,.865v6.27A.882.882,0,0,1,19.08,8H.92A.88.88,0,0,1,0,7.135V.865A.88.88,0,0,1,.92,0Z" fill="hsl(0, 0%, 100%)"/><path d="M2.675,1.848V6.98h-.94V1.848h-1V1H3.684v.848ZM6.708,4.326a1.116,1.116,0,0,0,.554-.613,2.8,2.8,0,0,0,.143-.95,2.072,2.072,0,0,0-.353-1.347A1.464,1.464,0,0,0,5.876,1H4.364V6.98h.941V4.528h.529L6.615,6.98H7.6ZM6.443,3.117a1,1,0,0,1-.08.294.448.448,0,0,1-.176.2.583.583,0,0,1-.3.071H5.305V1.848h.579a.574.574,0,0,1,.3.072.448.448,0,0,1,.176.2.987.987,0,0,1,.08.294,2.834,2.834,0,0,1,.021.352A2.867,2.867,0,0,1,6.443,3.117Zm4.851,2.394a1.7,1.7,0,0,1-.109.621,1.459,1.459,0,0,1-.3.479,1.484,1.484,0,0,1-1.108.437,1.5,1.5,0,0,1-1.118-.437,1.457,1.457,0,0,1-.3-.479,1.679,1.679,0,0,1-.109-.621V1h.941V5.561a.622.622,0,0,0,.172.479.589.589,0,0,0,.416.159.576.576,0,0,0,.411-.159.632.632,0,0,0,.168-.479V1h.941Zm3.923-.118a2.325,2.325,0,0,1-.143.735,1.4,1.4,0,0,1-.353.542,1.3,1.3,0,0,1-.445.285,1.675,1.675,0,0,1-.588.093,1.478,1.478,0,0,1-.7-.147,1.55,1.55,0,0,1-.462-.366,1.326,1.326,0,0,1-.235-.4,2.4,2.4,0,0,1-.13-.52,5.631,5.631,0,0,1-.059-.7c-.009-.267-.013-.576-.013-.929s0-.662.013-.928a5.632,5.632,0,0,1,.059-.7,2.4,2.4,0,0,1,.13-.52,1.326,1.326,0,0,1,.235-.395,1.532,1.532,0,0,1,.462-.365,1.465,1.465,0,0,1,.7-.148,1.669,1.669,0,0,1,.6.1,1.353,1.353,0,0,1,.454.29,1.339,1.339,0,0,1,.345.533,2.423,2.423,0,0,1,.134.727h-.941a2.111,2.111,0,0,0-.038-.319A.668.668,0,0,0,14.133,2a.48.48,0,0,0-.172-.16.558.558,0,0,0-.273-.059.49.49,0,0,0-.445.227,1.483,1.483,0,0,0-.176.688c-.023.315-.034.745-.034,1.294s.011.98.034,1.294a1.483,1.483,0,0,0,.176.688.49.49,0,0,0,.445.227.558.558,0,0,0,.273-.059.486.486,0,0,0,.172-.159.76.76,0,0,0,.105-.269,2.126,2.126,0,0,0,.038-.319Zm3.15,1.587L17.4,4.519l-.454.924V6.98h-.941V1h.941V3.813L18.249,1H19.2L18,3.477l1.386,3.5Z" fill="hsl(230, 18%, 13%)"/><path d="M0,17 H20 V23 H0 Z" fill="none" id="mapbox-text-placeholder"/></g></svg>