<svg xmlns="http://www.w3.org/2000/svg" id="us-interstate-duplex-5" width="38" height="22" viewBox="0 0 38 22"><g><path d="M0,0 H38 V22 H0 Z" fill="none"/><path d="M37,5a5.15,5.15,0,0,0-2-4s-2.469,2-8,2c-6.5,0-8-2-8-2s-1.5,2-8,2C5.5,3,3,1,3,1A5.389,5.389,0,0,0,1,5V7c0,9.317,18,11.97,18,11.97S37,16.253,37,7Z" fill="none" stroke="hsl(0, 0%, 100%)" stroke-linejoin="round" stroke-miterlimit="4px" stroke-width="2"/><path d="M1,7c0,9.317,18,11.97,18,11.97S37,16.253,37,7V6H1Z" fill="hsl(230, 57%, 54%)"/><path d="M1,5 H37 V6 H1 Z" fill="hsl(0, 0%, 100%)"/><path d="M1,5A5.389,5.389,0,0,1,3,1s2.5,2,8,2c6.5,0,8-2,8-2s1.5,2,8,2c5.531,0,8-2,8-2a5.433,5.433,0,0,1,2,4Z" fill="hsl(0, 87%, 59%)"/><path d="M0,8 H38 V14 H0 Z" fill="none" id="mapbox-text-placeholder"/></g></svg>