<svg xmlns="http://www.w3.org/2000/svg" id="us-interstate-truck-3" width="26" height="40" viewBox="0 0 26 40"><g><path d="M0,0 H26 V40 H0 Z" fill="none"/><path d="M23,10a6.908,6.908,0,0,1-5,2,7.058,7.058,0,0,1-5-2,7.021,7.021,0,0,1-5,2,6.8,6.8,0,0,1-5-2,5.4,5.4,0,0,0-2,4.007v2C1,25.342,13,28,13,28s12-2.72,12-11.992v-2A5.442,5.442,0,0,0,23,10Z" fill="none" stroke="hsl(0, 0%, 100%)" stroke-linejoin="round" stroke-miterlimit="4px" stroke-width="2"/><path d="M1,16c0,9.317,12,11.97,12,11.97S25,25.253,25,16V15H1Z" fill="hsl(230, 57%, 54%)"/><path d="M1,14 H25 V15 H1 Z" fill="hsl(0, 0%, 100%)"/><path d="M1,14a5.389,5.389,0,0,1,2-4,6.8,6.8,0,0,0,5,2,7.027,7.027,0,0,0,5-2,7.064,7.064,0,0,0,5,2,6.914,6.914,0,0,0,5-2,5.429,5.429,0,0,1,2,4Z" fill="hsl(0, 87%, 59%)"/><path d="M3.92,0H22.08A.88.88,0,0,1,23,.865v6.27A.882.882,0,0,1,22.08,8H3.92A.88.88,0,0,1,3,7.135V.865A.88.88,0,0,1,3.92,0Z" fill="hsl(0, 0%, 100%)"/><path d="M5.675,1.848V6.98h-.94V1.848h-1V1H6.684v.848ZM9.615,6.98,8.834,4.528H8.305V6.98H7.364V1H8.876a1.464,1.464,0,0,1,1.176.416,2.072,2.072,0,0,1,.353,1.347,2.8,2.8,0,0,1-.143.95,1.116,1.116,0,0,1-.554.613L10.6,6.98ZM9.464,2.763a2.834,2.834,0,0,0-.021-.352.987.987,0,0,0-.08-.294.448.448,0,0,0-.176-.2.574.574,0,0,0-.3-.072H8.305V3.679h.579a.583.583,0,0,0,.3-.071.448.448,0,0,0,.176-.2,1,1,0,0,0,.08-.294A2.867,2.867,0,0,0,9.464,2.763Zm4.83,2.748a1.7,1.7,0,0,1-.109.621,1.459,1.459,0,0,1-.3.479,1.636,1.636,0,0,1-2.226,0,1.457,1.457,0,0,1-.3-.479,1.679,1.679,0,0,1-.109-.621V1h.941V5.561a.622.622,0,0,0,.172.479.589.589,0,0,0,.416.159.576.576,0,0,0,.411-.159.632.632,0,0,0,.168-.479V1h.941Zm3.923-.118a2.325,2.325,0,0,1-.143.735,1.4,1.4,0,0,1-.353.542,1.3,1.3,0,0,1-.445.285,1.675,1.675,0,0,1-.588.093,1.478,1.478,0,0,1-.7-.147,1.55,1.55,0,0,1-.462-.366,1.326,1.326,0,0,1-.235-.4,2.4,2.4,0,0,1-.13-.52,5.631,5.631,0,0,1-.059-.7c-.009-.267-.013-.576-.013-.929s0-.662.013-.928a5.632,5.632,0,0,1,.059-.7,2.4,2.4,0,0,1,.13-.52,1.326,1.326,0,0,1,.235-.395,1.532,1.532,0,0,1,.462-.365,1.465,1.465,0,0,1,.7-.148,1.669,1.669,0,0,1,.6.1,1.353,1.353,0,0,1,.454.29,1.339,1.339,0,0,1,.345.533,2.423,2.423,0,0,1,.134.727h-.941a2.111,2.111,0,0,0-.038-.319A.668.668,0,0,0,17.133,2a.48.48,0,0,0-.172-.16.558.558,0,0,0-.273-.059.49.49,0,0,0-.445.227,1.483,1.483,0,0,0-.176.688c-.023.315-.034.745-.034,1.294s.011.98.034,1.294a1.483,1.483,0,0,0,.176.688.49.49,0,0,0,.445.227.558.558,0,0,0,.273-.059.486.486,0,0,0,.172-.159.76.76,0,0,0,.105-.269,2.126,2.126,0,0,0,.038-.319Zm3.15,1.587L20.4,4.519l-.454.924V6.98h-.941V1h.941V3.813L21.249,1H22.2L21,3.477l1.386,3.5Z" fill="hsl(230, 18%, 13%)"/><path d="M0,17 H26 V23 H0 Z" fill="none" id="mapbox-text-placeholder"/></g></svg>