<svg xmlns="http://www.w3.org/2000/svg" id="watch" width="21" height="21" viewBox="0 0 21 21"><g><path d="M0,0 H21 V21 H0 Z" fill="none"/><path d="M15.5 10H15a0.426 0.426 0 0 0-0.049 0.01A4.484 4.484 0 0 0 13 6.76V4.5a0.5 0.5 0 0 0-0.5-0.5h-4a0.5 0.5 0 0 0-0.5 0.5v2.26a4.5 4.5 0 0 0 0 7.48v2.26a0.5 0.5 0 0 0 0.5 0.5h4a0.5 0.5 0 0 0 0.5-0.5v-2.26a4.486 4.486 0 0 0 1.951-3.25A0.426 0.426 0 0 0 15 11h0.5a0.5 0.5 0 0 0 0-1z m-5 4A3.5 3.5 0 1 1 14 10.5 3.5 3.5 0 0 1 10.5 14zM12 10H11V8.5a0.5 0.5 0 0 0-1 0v2a0.5 0.5 0 0 0 0.5 0.5H12a0.5 0.5 0 0 0 0-1z" fill="hsl(20, 2%, 55%)" stroke="hsl(175, 5%, 100%)" stroke-linejoin="round" stroke-miterlimit="4px" stroke-width="2"/><path d="M15.5 10H15a0.426 0.426 0 0 0-0.049 0.01A4.484 4.484 0 0 0 13 6.76V4.5a0.5 0.5 0 0 0-0.5-0.5h-4a0.5 0.5 0 0 0-0.5 0.5v2.26a4.5 4.5 0 0 0 0 7.48v2.26a0.5 0.5 0 0 0 0.5 0.5h4a0.5 0.5 0 0 0 0.5-0.5v-2.26a4.486 4.486 0 0 0 1.951-3.25A0.426 0.426 0 0 0 15 11h0.5a0.5 0.5 0 0 0 0-1z m-5 4A3.5 3.5 0 1 1 14 10.5 3.5 3.5 0 0 1 10.5 14zM12 10H11V8.5a0.5 0.5 0 0 0-1 0v2a0.5 0.5 0 0 0 0.5 0.5H12a0.5 0.5 0 0 0 0-1z" fill="hsl(20, 2%, 55%)"/></g></svg>